<svg width="160" height="36" viewBox="0 0 160 36" fill="none" xmlns="http://www.w3.org/2000/svg">
<g clip-path="url(#clip0_1040_318)">
<path d="M87.1823 27.0996H84.2217V25.1978H84.1678C83.7474 26.0134 83.1366 26.5974 82.3318 26.95C81.527 27.3026 80.6755 27.4807 79.7809 27.4807C78.667 27.4807 77.6934 27.2848 76.8598 26.8966C76.0262 26.5084 75.34 25.9777 74.7903 25.3082C74.2406 24.6386 73.831 23.8444 73.5579 22.9291C73.2848 22.0138 73.1483 21.0308 73.1483 19.9801C73.1483 18.7122 73.3208 17.6153 73.6693 16.6928C74.0178 15.7704 74.4777 15.0082 75.0526 14.4099C75.6274 13.8115 76.2849 13.3735 77.0251 13.0921C77.7652 12.8107 78.5197 12.6718 79.285 12.6718C79.7234 12.6718 80.1725 12.711 80.6288 12.7929C81.0851 12.8749 81.5234 13.0066 81.9438 13.1883C82.3642 13.3699 82.7522 13.6014 83.1079 13.8828C83.4636 14.1641 83.7618 14.4954 83.9989 14.8764H84.0528V8.1665H87.1787V27.1032L87.1823 27.0996ZM76.2706 20.2259C76.2706 20.8242 76.346 21.4119 76.5041 21.9924C76.6586 22.5729 76.8957 23.0893 77.2155 23.5417C77.5353 23.994 77.9413 24.3572 78.4335 24.6279C78.9293 24.8986 79.5114 25.0339 80.1868 25.0339C80.8623 25.0339 81.4803 24.8879 81.9833 24.5994C82.4863 24.3109 82.8959 23.9299 83.2157 23.4597C83.5355 22.9896 83.7726 22.4589 83.9271 21.8713C84.0816 21.2836 84.1606 20.6817 84.1606 20.0656C84.1606 18.5056 83.8085 17.2947 83.1043 16.4221C82.4001 15.5531 81.4444 15.1186 80.2407 15.1186C79.5078 15.1186 78.8934 15.2682 78.3904 15.5674C77.8874 15.8665 77.4778 16.2548 77.158 16.7356C76.8382 17.2164 76.6083 17.7613 76.4718 18.3667C76.3352 18.9722 76.267 19.5955 76.267 20.2294L76.2706 20.2259Z" fill="white"/>
<path d="M92.7477 20.8775C92.7477 21.4224 92.8267 21.946 92.9812 22.4553C93.1357 22.961 93.3692 23.4062 93.6818 23.7873C93.9908 24.1684 94.386 24.4711 94.8603 24.699C95.3346 24.927 95.9023 25.0374 96.5598 25.0374C97.4724 25.0374 98.2089 24.8415 98.7658 24.4533C99.3227 24.0651 99.7395 23.481 100.013 22.701H102.973C102.808 23.4632 102.524 24.1399 102.122 24.7382C101.719 25.3366 101.234 25.8387 100.67 26.2483C100.102 26.6543 99.4664 26.9642 98.7658 27.1707C98.0616 27.3809 97.325 27.4842 96.5598 27.4842C95.446 27.4842 94.4579 27.3025 93.5992 26.9392C92.7405 26.576 92.0147 26.0702 91.4183 25.4185C90.8255 24.7667 90.3763 23.9867 90.0745 23.0821C89.7727 22.1775 89.6218 21.1802 89.6218 20.094C89.6218 19.0967 89.7799 18.1494 90.0997 17.2554C90.4195 16.3579 90.8758 15.5708 91.4722 14.8906C92.065 14.2103 92.7836 13.6725 93.6243 13.2736C94.4651 12.8747 95.4136 12.6753 96.4771 12.6753C97.5909 12.6753 98.5934 12.9068 99.4808 13.3698C100.368 13.8328 101.101 14.4418 101.687 15.204C102.272 15.9662 102.696 16.8387 102.962 17.8253C103.228 18.8118 103.296 19.8304 103.167 20.8811H92.7477V20.8775ZM100.041 18.8403C100.005 18.3524 99.8976 17.8787 99.7251 17.4264C99.5527 16.9741 99.3155 16.5787 99.0137 16.244C98.7119 15.9092 98.3454 15.6385 97.9179 15.4284C97.4867 15.2218 97.0089 15.1149 96.4771 15.1149C95.9454 15.1149 95.4316 15.2111 94.9825 15.3999C94.5333 15.5886 94.1525 15.8522 93.8327 16.187C93.513 16.5218 93.2579 16.9171 93.0638 17.3694C92.8698 17.8217 92.7656 18.3132 92.7477 18.8367H100.041V18.8403Z" fill="white"/>
<path d="M105.276 13.0493H108.208V15.7667H108.262C108.352 15.3857 108.531 15.0153 108.797 14.652C109.063 14.2887 109.383 13.9575 109.757 13.6583C110.13 13.3592 110.547 13.1205 111.003 12.9389C111.46 12.7573 111.927 12.6682 112.401 12.6682C112.767 12.6682 113.019 12.6789 113.156 12.6967C113.292 12.7145 113.436 12.7323 113.579 12.7501V15.7383C113.36 15.7026 113.138 15.6706 112.908 15.6421C112.678 15.6136 112.455 15.5994 112.236 15.5994C111.704 15.5994 111.208 15.7026 110.741 15.9128C110.274 16.1193 109.868 16.4292 109.519 16.8352C109.171 17.2412 108.898 17.747 108.697 18.3417C108.495 18.9401 108.395 19.6275 108.395 20.4074V27.0924H105.269V13.0422L105.276 13.0493Z" fill="white"/>
<path d="M120.657 27.4806C119.526 27.4806 118.516 27.2954 117.629 26.925C116.741 26.5546 115.994 26.0417 115.379 25.39C114.765 24.7382 114.302 23.9582 113.982 23.0536C113.662 22.149 113.5 21.1517 113.5 20.0655C113.5 18.9792 113.662 18.0105 113.982 17.1023C114.302 16.1977 114.769 15.4177 115.379 14.7659C115.99 14.1142 116.741 13.6013 117.629 13.2309C118.516 12.8605 119.526 12.6753 120.657 12.6753C121.789 12.6753 122.799 12.8605 123.686 13.2309C124.574 13.6013 125.321 14.1142 125.935 14.7659C126.546 15.4177 127.013 16.1977 127.333 17.1023C127.653 18.0069 127.815 18.997 127.815 20.0655C127.815 21.1339 127.653 22.149 127.333 23.0536C127.013 23.9582 126.546 24.7382 125.935 25.39C125.325 26.0417 124.574 26.5546 123.686 26.925C122.799 27.2954 121.789 27.4806 120.657 27.4806ZM120.657 25.0374C121.351 25.0374 121.955 24.8914 122.468 24.6029C122.978 24.3144 123.402 23.9333 123.729 23.4632C124.056 22.9931 124.301 22.4624 124.455 21.8747C124.61 21.2871 124.689 20.6852 124.689 20.069C124.689 19.4529 124.61 18.8724 124.455 18.274C124.301 17.6757 124.056 17.145 123.729 16.6856C123.399 16.2226 122.978 15.8486 122.468 15.5566C121.958 15.2681 121.354 15.1221 120.657 15.1221C119.96 15.1221 119.36 15.2681 118.847 15.5566C118.333 15.8451 117.912 16.2226 117.586 16.6856C117.259 17.1486 117.014 17.6793 116.86 18.274C116.705 18.8724 116.626 19.4707 116.626 20.069C116.626 20.6674 116.702 21.2871 116.86 21.8747C117.014 22.4624 117.259 22.9931 117.586 23.4632C117.916 23.9333 118.336 24.3144 118.847 24.6029C119.357 24.8914 119.96 25.0374 120.657 25.0374Z" fill="white"/>
<path d="M158.491 23.9762C158.491 24.3573 158.541 24.6279 158.642 24.7918C158.743 24.9556 158.94 25.0375 159.231 25.0375H159.562C159.691 25.0375 159.835 25.0197 160 24.9841V27.1317C159.892 27.1673 159.749 27.2101 159.576 27.2528C159.404 27.2991 159.224 27.3383 159.041 27.3739C158.858 27.4095 158.674 27.438 158.491 27.4558C158.308 27.4736 158.153 27.4843 158.024 27.4843C157.384 27.4843 156.853 27.3561 156.432 27.1032C156.012 26.8503 155.739 26.4052 155.61 25.7712C154.988 26.3695 154.226 26.804 153.321 27.0747C152.415 27.3454 151.542 27.4807 150.702 27.4807C150.062 27.4807 149.451 27.3953 148.866 27.2243C148.28 27.0534 147.766 26.7969 147.317 26.4621C146.868 26.1274 146.512 25.7 146.246 25.1835C145.98 24.6671 145.848 24.0652 145.848 23.3778C145.848 22.5088 146.009 21.8001 146.329 21.2587C146.649 20.7138 147.069 20.29 147.59 19.9801C148.111 19.6739 148.697 19.4495 149.343 19.3141C149.99 19.1788 150.644 19.0755 151.305 19.0007C151.873 18.8939 152.412 18.8155 152.922 18.7692C153.432 18.7229 153.885 18.6481 154.28 18.5377C154.672 18.4309 154.984 18.2599 155.214 18.0355C155.441 17.8076 155.556 17.4693 155.556 17.0169C155.556 16.6181 155.459 16.294 155.268 16.0375C155.074 15.7847 154.837 15.5888 154.557 15.4534C154.273 15.3181 153.957 15.2255 153.612 15.1828C153.263 15.1365 152.936 15.1151 152.624 15.1151C151.747 15.1151 151.025 15.2967 150.457 15.66C149.89 16.0233 149.57 16.5824 149.498 17.3446H146.372C146.426 16.44 146.645 15.6885 147.03 15.0902C147.414 14.4918 147.903 14.011 148.496 13.6513C149.088 13.288 149.76 13.0352 150.511 12.8891C151.258 12.7431 152.027 12.6719 152.814 12.6719C153.508 12.6719 154.194 12.7431 154.869 12.8891C155.545 13.0352 156.152 13.2702 156.691 13.5943C157.23 13.922 157.665 14.3422 157.992 14.8587C158.322 15.3751 158.484 16.0055 158.484 16.7463V23.9762H158.491ZM155.365 20.0621C154.891 20.3719 154.305 20.5571 153.612 20.6177C152.918 20.6818 152.221 20.7779 151.528 20.9026C151.197 20.956 150.878 21.0344 150.569 21.1341C150.256 21.2338 149.983 21.3691 149.746 21.5401C149.509 21.7111 149.322 21.939 149.185 22.2204C149.049 22.5017 148.981 22.8401 148.981 23.2389C148.981 23.5844 149.081 23.8729 149.282 24.108C149.484 24.343 149.724 24.5282 150.008 24.6636C150.292 24.7989 150.601 24.8951 150.939 24.9485C151.276 25.0019 151.582 25.0304 151.858 25.0304C152.203 25.0304 152.581 24.9841 152.983 24.8951C153.385 24.806 153.763 24.6493 154.122 24.4321C154.478 24.2148 154.776 23.937 155.013 23.6022C155.25 23.2674 155.369 22.8543 155.369 22.3664V20.0549L155.365 20.0621Z" fill="white"/>
<path d="M1.7282 8.16309V15.742H1.78209C1.96533 15.2363 2.22402 14.7911 2.56175 14.41C2.89949 14.0289 3.28752 13.7084 3.72586 13.4448C4.1642 13.1813 4.63846 12.989 5.15225 12.8608C5.66244 12.7325 6.17623 12.672 6.68643 12.672C7.7643 12.672 8.70206 12.8714 9.49609 13.2703C10.2901 13.6692 10.9548 14.207 11.483 14.8873C12.0147 15.5675 12.4064 16.3546 12.6615 17.2521C12.9166 18.1496 13.0459 19.097 13.0459 20.0907C13.0459 21.0843 12.9166 22.0353 12.6615 22.9292C12.4064 23.8267 12.0111 24.6138 11.483 25.2941C10.9512 25.9743 10.2901 26.5086 9.49609 26.8968C8.70206 27.285 7.7643 27.4809 6.68643 27.4809C5.53669 27.4809 4.50552 27.2173 3.6037 26.6938C2.69828 26.1702 2.04437 25.4152 1.64197 24.4393H1.58807V27.1033H0V8.16309H1.7282ZM11.0626 17.9288C10.8901 17.2129 10.6135 16.5754 10.2398 16.0127C9.86616 15.45 9.38471 14.9941 8.79907 14.6415C8.21342 14.2889 7.50921 14.1108 6.68643 14.1108C5.77383 14.1108 5.00135 14.2889 4.36899 14.6415C3.74023 14.9941 3.22644 15.4535 2.83482 16.0127C2.44319 16.5754 2.15935 17.2129 1.98329 17.9288C1.81083 18.6447 1.7246 19.3641 1.7246 20.0907C1.7246 20.8172 1.81083 21.5367 1.98329 22.2525C2.15575 22.9684 2.43959 23.6059 2.83482 24.1686C3.22644 24.7313 3.74023 25.1872 4.36899 25.5398C4.99775 25.8924 5.77023 26.0705 6.68643 26.0705C7.50921 26.0705 8.21342 25.8924 8.79907 25.5398C9.38471 25.1872 9.86257 24.7278 10.2398 24.1686C10.6135 23.6059 10.8901 22.9684 11.0626 22.2525C11.2351 21.5367 11.3213 20.8172 11.3213 20.0907C11.3213 19.3641 11.2351 18.6447 11.0626 17.9288Z" fill="white"/>
<path d="M15.9849 15.254C16.276 14.6557 16.6748 14.1677 17.1778 13.7866C17.6808 13.4056 18.27 13.1242 18.9455 12.9426C19.621 12.7609 20.3719 12.6719 21.1947 12.6719C21.8162 12.6719 22.4378 12.7324 23.0594 12.85C23.681 12.9675 24.2379 13.1883 24.7301 13.516C25.2223 13.8436 25.6247 14.2995 25.9373 14.8871C26.2499 15.4748 26.4044 16.2405 26.4044 17.1843V24.6315C26.4044 25.3189 26.7421 25.6644 27.4176 25.6644C27.6188 25.6644 27.8021 25.6287 27.9673 25.5539V26.9928C27.7661 27.0284 27.5865 27.0569 27.432 27.0747C27.2775 27.0925 27.0799 27.1032 26.8427 27.1032C26.4044 27.1032 26.0523 27.0462 25.7864 26.9251C25.5205 26.8076 25.3158 26.6402 25.1684 26.423C25.0211 26.2057 24.9277 25.9457 24.881 25.6501C24.8343 25.3509 24.8127 25.0197 24.8127 24.6564H24.7589C24.4463 25.1088 24.1337 25.5112 23.8139 25.8674C23.4941 26.22 23.1384 26.5156 22.7432 26.7506C22.3516 26.9857 21.9025 27.1673 21.3995 27.2955C20.8965 27.4238 20.2964 27.4843 19.603 27.4843C18.9455 27.4843 18.3275 27.4059 17.7527 27.2528C17.1778 27.0997 16.6748 26.8539 16.2436 26.5191C15.8125 26.1843 15.4747 25.757 15.2304 25.2405C14.9825 24.7241 14.8604 24.1115 14.8604 23.4063C14.8604 22.4269 15.0795 21.6648 15.5179 21.1092C15.9562 20.5571 16.5347 20.1369 17.2568 19.8448C17.979 19.5563 18.791 19.3498 19.6964 19.2322C20.6018 19.1147 21.5216 19.0007 22.4522 18.8939C22.8187 18.8583 23.1384 18.812 23.4115 18.7585C23.6846 18.7051 23.9145 18.609 24.0978 18.4736C24.281 18.3383 24.4211 18.1531 24.5217 17.918C24.6223 17.683 24.6726 17.3731 24.6726 16.9956C24.6726 16.415 24.5756 15.9414 24.3852 15.5674C24.1948 15.197 23.9289 14.9014 23.5912 14.6841C23.2534 14.4669 22.8582 14.3173 22.4127 14.2354C21.9636 14.1535 21.4857 14.1143 20.9719 14.1143C19.8761 14.1143 18.9778 14.3707 18.2844 14.8871C17.591 15.4036 17.2245 16.2334 17.1886 17.3731H15.4604C15.5143 16.5575 15.6903 15.8523 15.9813 15.254H15.9849ZM24.6187 19.4388C24.5073 19.6382 24.299 19.7843 23.99 19.8733C23.6774 19.9623 23.4043 20.0264 23.1672 20.0621C22.4342 20.1903 21.6833 20.3007 20.9036 20.4004C20.1276 20.5001 19.4198 20.6497 18.7802 20.8492C18.1407 21.0486 17.6161 21.3335 17.2029 21.7039C16.7933 22.0743 16.585 22.605 16.585 23.2924C16.585 23.7269 16.6712 24.1115 16.8436 24.4463C17.0161 24.7811 17.2496 25.0696 17.5443 25.3153C17.8353 25.5611 18.173 25.7463 18.5575 25.8709C18.9419 25.9991 19.3335 26.0597 19.7359 26.0597C20.3935 26.0597 21.0258 25.96 21.6258 25.7605C22.2294 25.5611 22.754 25.2726 23.2031 24.8915C23.6522 24.5104 24.0079 24.0474 24.2738 23.5061C24.5397 22.9612 24.6726 22.3486 24.6726 21.6576V19.4281H24.6187V19.4388Z" fill="white"/>
<path d="M31.4453 13.0779V15.4962H31.4992C31.8297 14.645 32.4118 13.9612 33.2525 13.4447C34.0933 12.9283 35.0167 12.6719 36.0227 12.6719C37.0287 12.6719 37.8371 12.8001 38.5054 13.053C39.1737 13.3058 39.7054 13.6655 40.1078 14.125C40.5102 14.588 40.7941 15.1543 40.9594 15.8238C41.1246 16.4934 41.2073 17.2449 41.2073 18.0783V27.0997H39.4791V18.349C39.4791 17.7506 39.4252 17.195 39.3138 16.6786C39.2024 16.1622 39.012 15.7134 38.7389 15.3323C38.4659 14.9513 38.0958 14.6521 37.6287 14.4348C37.1616 14.2176 36.5832 14.1072 35.8897 14.1072C35.1963 14.1072 34.5783 14.2283 34.0394 14.474C33.5005 14.7198 33.0442 15.0545 32.6669 15.4784C32.2932 15.9057 31.9986 16.4115 31.7902 16.9991C31.5818 17.5868 31.4669 18.2279 31.4489 18.9152V27.0961H29.7207V13.0743H31.4489L31.4453 13.0779Z" fill="white"/>
<path d="M53.0208 15.0083C52.3812 14.41 51.4866 14.1108 50.3333 14.1108C49.5105 14.1108 48.7883 14.2818 48.1667 14.6273C47.5452 14.9727 47.0278 15.425 46.6182 15.9878C46.2086 16.5505 45.896 17.188 45.6876 17.9039C45.4756 18.6197 45.3715 19.3499 45.3715 20.0907C45.3715 20.8315 45.4756 21.5616 45.6876 22.2774C45.896 22.9933 46.2086 23.6308 46.6182 24.1935C47.0278 24.7563 47.5452 25.2086 48.1667 25.554C48.7883 25.8995 49.5105 26.0705 50.3333 26.0705C50.8614 26.0705 51.3644 25.9707 51.8423 25.7713C52.3166 25.5719 52.7369 25.2976 53.1034 24.9415C53.4699 24.5889 53.7717 24.1686 54.0088 23.6771C54.246 23.1892 54.3933 22.655 54.4472 22.0744H56.1754C55.9382 23.7768 55.3059 25.1053 54.2855 26.0562C53.2615 27.0072 51.9465 27.4844 50.3369 27.4844C49.259 27.4844 48.3033 27.2885 47.4733 26.9003C46.6398 26.5121 45.9427 25.9814 45.375 25.3119C44.8074 24.6423 44.3798 23.8588 44.0852 22.9613C43.7942 22.0637 43.6469 21.1093 43.6469 20.0942C43.6469 19.0792 43.7942 18.1247 44.0852 17.2272C44.3762 16.3297 44.8074 15.5461 45.375 14.8766C45.9427 14.207 46.6398 13.6728 47.4733 13.2739C48.3033 12.875 49.259 12.6755 50.3369 12.6755C51.8531 12.6755 53.1358 13.0744 54.1885 13.8722C55.2376 14.67 55.8664 15.8738 56.0676 17.4872H54.3394C54.1023 16.4365 53.6639 15.6102 53.0244 15.0155L53.0208 15.0083Z" fill="white"/>
<path d="M67.3205 13.2702C68.1505 13.6691 68.8511 14.2033 69.4188 14.8729C69.9865 15.5425 70.4141 16.326 70.7087 17.2235C70.9997 18.121 71.147 19.0755 71.147 20.0906C71.147 21.1056 70.9997 22.0601 70.7087 22.9576C70.4176 23.8551 69.9865 24.6386 69.4188 25.3082C68.8511 25.9778 68.1541 26.5084 67.3205 26.8966C66.487 27.2849 65.5349 27.4807 64.457 27.4807C63.3791 27.4807 62.4234 27.2849 61.5934 26.8966C60.7599 26.5084 60.0628 25.9778 59.4952 25.3082C58.9275 24.6386 58.4999 23.8551 58.2053 22.9576C57.9143 22.0601 57.767 21.1056 57.767 20.0906C57.767 19.0755 57.9143 18.121 58.2053 17.2235C58.4963 16.326 58.9275 15.5425 59.4952 14.8729C60.0628 14.2033 60.7599 13.6691 61.5934 13.2702C62.4234 12.8713 63.3791 12.6719 64.457 12.6719C65.5349 12.6719 66.4906 12.8713 67.3205 13.2702ZM62.2869 14.6272C61.6653 14.9726 61.1479 15.4249 60.7383 15.9877C60.3287 16.5504 60.0161 17.1879 59.8078 17.9038C59.5958 18.6196 59.4916 19.3498 59.4916 20.0906C59.4916 20.8314 59.5958 21.5615 59.8078 22.2773C60.0161 22.9932 60.3287 23.6307 60.7383 24.1934C61.1479 24.7562 61.6653 25.2085 62.2869 25.5539C62.9084 25.8994 63.6306 26.0704 64.4534 26.0704C65.2762 26.0704 65.9984 25.8994 66.6199 25.5539C67.2415 25.2085 67.7589 24.7562 68.1685 24.1934C68.5781 23.6307 68.8907 22.9932 69.099 22.2773C69.3074 21.5615 69.4152 20.8314 69.4152 20.0906C69.4152 19.3498 69.311 18.6196 69.099 17.9038C68.8907 17.1879 68.5781 16.5504 68.1685 15.9877C67.7589 15.4249 67.2415 14.9726 66.6199 14.6272C65.9984 14.2817 65.2762 14.1107 64.4534 14.1107C63.6306 14.1107 62.9084 14.2817 62.2869 14.6272Z" fill="white"/>
<path d="M130.225 21.5793H133.402V27.2564H130.225V21.5793Z" fill="white"/>
<path d="M130.225 30.323H133.402V36.0001H130.225V30.323Z" fill="white"/>
<path d="M130.225 12.8643H133.402V18.52H130.225V12.8643Z" fill="white"/>
<path d="M143.85 17.2378C143.577 16.3331 143.164 15.5389 142.617 14.8587C142.068 14.1784 141.378 13.6442 140.548 13.256C139.718 12.8678 138.744 12.6719 137.627 12.6719C136.714 12.6719 135.863 12.85 135.076 13.2025C134.379 13.516 133.826 14.0253 133.402 14.7019V18.5164C133.56 17.7293 133.829 17.0383 134.242 16.4792C134.911 15.5745 135.902 15.1186 137.217 15.1186C137.857 15.1186 138.425 15.2575 138.917 15.5389C139.409 15.8203 139.822 16.1907 140.149 16.6537C140.48 17.1167 140.724 17.6473 140.889 18.2421C141.055 18.8405 141.137 19.4566 141.137 20.0906C141.137 20.7245 141.069 21.3086 140.932 21.8963C140.796 22.4839 140.566 23.011 140.246 23.474C139.926 23.937 139.52 24.311 139.028 24.603C138.536 24.8915 137.932 25.0375 137.217 25.0375C136.578 25.0375 136.017 24.9093 135.532 24.6564C135.047 24.4036 134.63 24.0581 134.285 23.6236C133.937 23.1891 133.678 22.6691 133.506 22.0601C133.463 21.9069 133.441 21.7395 133.405 21.5793V25.2797C133.642 25.6608 133.941 25.992 134.296 26.2734C134.652 26.5547 135.04 26.7862 135.46 26.9679C135.881 27.1495 136.319 27.2813 136.775 27.3632C137.232 27.4451 137.688 27.4843 138.148 27.4843C139.19 27.4843 140.095 27.2813 140.861 26.8717C141.626 26.4657 142.262 25.9208 142.765 25.2405C143.268 24.5603 143.641 23.7767 143.889 22.8899C144.137 22.0031 144.259 21.0878 144.259 20.144C144.259 19.1111 144.123 18.1424 143.85 17.2378Z" fill="white"/>
<path d="M14.8101 2.05859V3.1876H11.8351V4.59797H14.4148V5.6415H11.8351V8.16306H10.4806V2.05859H14.8101Z" fill="white"/>
<path d="M21.845 7.6965C21.3815 8.09896 20.7348 8.2984 19.912 8.2984C19.0892 8.2984 18.4317 8.09896 17.9754 7.70007C17.5191 7.30117 17.2892 6.68503 17.2892 5.85519V2.05859H18.6437V5.85519C18.6437 6.01902 18.6581 6.18285 18.6868 6.34312C18.7156 6.50339 18.7767 6.64229 18.8665 6.76694C18.9563 6.88804 19.0856 6.98776 19.2509 7.06611C19.4162 7.14447 19.6354 7.18008 19.912 7.18008C20.3935 7.18008 20.7276 7.07324 20.9144 6.85954C21.1013 6.64585 21.1911 6.31107 21.1911 5.85519V2.05859H22.5456V5.85519C22.5456 6.68147 22.3121 7.29405 21.8486 7.6965H21.845Z" fill="white"/>
<path d="M26.7781 2.05859L29.3471 6.15436H29.365V2.05859H30.6333V8.16306H29.2788L26.7171 4.07798H26.6991V8.16306H25.4308V2.05859H26.7745H26.7781Z" fill="white"/>
<path d="M36.2024 2.05859C36.6012 2.05859 36.9677 2.1227 37.3126 2.24736C37.6539 2.37201 37.9521 2.56077 38.2 2.81008C38.4515 3.05939 38.6455 3.3728 38.7857 3.75032C38.9258 4.12785 38.9977 4.56948 38.9977 5.07521C38.9977 5.52041 38.9402 5.92998 38.8252 6.3075C38.7102 6.68147 38.5378 7.00913 38.3042 7.2798C38.0707 7.55404 37.7797 7.76773 37.4347 7.92444C37.0862 8.08115 36.6766 8.1595 36.206 8.1595H33.5508V2.05859H36.206H36.2024ZM36.1089 7.03406C36.303 7.03406 36.4934 7.002 36.6766 6.94146C36.8599 6.88091 37.0251 6.77407 37.1689 6.62804C37.3126 6.48202 37.4275 6.29326 37.5138 6.0582C37.6 5.82314 37.6431 5.53821 37.6431 5.20343C37.6431 4.89714 37.6144 4.61934 37.5533 4.37003C37.4922 4.12072 37.3916 3.91059 37.2551 3.73252C37.1186 3.55444 36.9353 3.4191 36.709 3.3265C36.4826 3.2339 36.2024 3.18404 35.8682 3.18404H34.9017V7.0305H36.1089V7.03406Z" fill="white"/>
<path d="M44.7319 2.05859L47.035 8.16306H45.6302L45.1631 6.80256H42.86L42.3786 8.16306H41.0168L43.3451 2.05859H44.7355H44.7319ZM44.8074 5.80533L44.0313 3.56512H44.0133L43.2121 5.80533H44.8074Z" fill="white"/>
<path d="M53.2435 3.6897C53.1645 3.56149 53.0639 3.44752 52.9417 3.35136C52.8196 3.2552 52.6831 3.1804 52.5322 3.12342C52.3812 3.07 52.2196 3.0415 52.0543 3.0415C51.7489 3.0415 51.4902 3.10205 51.2782 3.21602C51.0662 3.33355 50.8938 3.49026 50.7608 3.68614C50.6279 3.88203 50.5309 4.1064 50.4734 4.35571C50.4123 4.60502 50.3836 4.86501 50.3836 5.13212C50.3836 5.39924 50.4123 5.63786 50.4734 5.88005C50.5345 6.12223 50.6315 6.33949 50.7608 6.53537C50.8938 6.72769 51.0662 6.8844 51.2782 7.00193C51.4902 7.11946 51.7489 7.17645 52.0543 7.17645C52.4675 7.17645 52.7908 7.05179 53.0244 6.79892C53.2579 6.54962 53.398 6.21839 53.4519 5.80882H54.7634C54.731 6.1899 54.6412 6.53537 54.4975 6.84166C54.3538 7.14795 54.1633 7.41151 53.9262 7.62876C53.6891 7.84601 53.416 8.00984 53.0998 8.12381C52.7837 8.23778 52.4351 8.29477 52.0579 8.29477C51.5872 8.29477 51.1632 8.21285 50.786 8.04902C50.4087 7.88875 50.0926 7.66438 49.8339 7.37945C49.5752 7.09453 49.3776 6.75975 49.2374 6.3751C49.1009 5.99045 49.0291 5.57732 49.0291 5.13212C49.0291 4.68693 49.0973 4.25243 49.2374 3.86422C49.374 3.47245 49.5752 3.1341 49.8339 2.84206C50.0926 2.55001 50.4087 2.32207 50.786 2.15824C51.1632 1.99441 51.5872 1.90894 52.0579 1.90894C52.3992 1.90894 52.719 1.9588 53.0208 2.05496C53.3226 2.15112 53.5921 2.29358 53.8328 2.47878C54.0699 2.66398 54.2675 2.89192 54.422 3.16616C54.5765 3.4404 54.6771 3.75381 54.7131 4.1064H53.4016C53.3801 3.95326 53.3262 3.8108 53.2471 3.68258L53.2435 3.6897Z" fill="white"/>
<path d="M58.7622 2.05859V8.16306H57.4077V2.05859H58.7622Z" fill="white"/>
<path d="M61.615 3.86783C61.7515 3.47606 61.9491 3.13771 62.2078 2.84567C62.4665 2.55362 62.7827 2.32568 63.16 2.16185C63.5372 1.99802 63.9612 1.91254 64.4319 1.91254C64.9025 1.91254 65.3337 1.99446 65.7073 2.16185C66.081 2.32568 66.3972 2.55362 66.6559 2.84567C66.9146 3.13771 67.1122 3.47606 67.2523 3.86783C67.3888 4.2596 67.4571 4.68342 67.4571 5.13573C67.4571 5.58805 67.3888 5.99406 67.2523 6.37871C67.1158 6.76336 66.9146 7.09814 66.6559 7.38306C66.3972 7.66798 66.081 7.89236 65.7073 8.05263C65.3337 8.21646 64.9097 8.29838 64.4319 8.29838C63.954 8.29838 63.5372 8.21646 63.16 8.05263C62.7827 7.89236 62.4665 7.66798 62.2078 7.38306C61.9491 7.09814 61.7515 6.76336 61.615 6.37871C61.4749 5.99406 61.4066 5.58093 61.4066 5.13573C61.4066 4.69054 61.4749 4.25603 61.615 3.86783ZM62.851 5.88366C62.912 6.12584 63.0091 6.34309 63.1384 6.53898C63.2713 6.7313 63.4438 6.88801 63.6558 7.00554C63.8678 7.12307 64.1265 7.18005 64.4319 7.18005C64.7373 7.18005 64.9959 7.12307 65.2079 7.00554C65.4199 6.88801 65.5924 6.73486 65.7253 6.53898C65.8582 6.34666 65.9553 6.1294 66.0127 5.88366C66.0738 5.64147 66.1026 5.39216 66.1026 5.13573C66.1026 4.8793 66.0702 4.60863 66.0127 4.35932C65.9517 4.11001 65.8546 3.88563 65.7253 3.68975C65.5924 3.49387 65.4199 3.33716 65.2079 3.21963C64.9959 3.1021 64.7373 3.04511 64.4319 3.04511C64.1265 3.04511 63.8678 3.10566 63.6558 3.21963C63.4438 3.33716 63.2713 3.49387 63.1384 3.68975C63.0055 3.88563 62.9085 4.11001 62.851 4.35932C62.7899 4.60863 62.7611 4.86862 62.7611 5.13573C62.7611 5.40285 62.7899 5.64147 62.851 5.88366ZM64.651 0L63.7384 1.51365H64.5899L65.9948 0H64.6474H64.651Z" fill="white"/>
<path d="M71.4524 2.05859L74.0214 6.15436H74.0394V2.05859H75.3077V8.16306H73.9531L71.3914 4.07798H71.3734V8.16306H70.1051V2.05859H71.4489H71.4524Z" fill="white"/>
</g>
<defs>
<clipPath id="clip0_1040_318">
<rect width="160" height="36" fill="white"/>
</clipPath>
</defs>
</svg>
