<svg width="160" height="73" viewBox="0 0 160 73" fill="none" xmlns="http://www.w3.org/2000/svg">
<g clip-path="url(#clip0_1043_351)">
<path d="M5.37447 37.7944L4.38647 33.6864L46.2811 23.6104L67.5405 33.837L65.7086 37.6438L45.8055 28.0704L5.37447 37.7944Z" fill="white"/>
<path d="M48.1564 25.8408H43.9314V66.8396H48.1564V25.8408Z" fill="white"/>
<path d="M69.4428 69.431H2.06274V2.0498H69.4428V69.4299V69.431ZM6.28774 65.206H65.2178V6.2748H6.28774V65.2049V65.206Z" fill="white"/>
<path d="M85.4026 53.4073H78.8506V42.9802H85.1068C85.8229 42.9802 86.4242 43.0766 86.9128 43.2684C87.4003 43.4601 87.7686 43.7461 88.0178 44.1242C88.2669 44.5034 88.3915 44.9671 88.3915 45.5174C88.3915 46.1609 88.2052 46.6982 87.8314 47.1283C87.4577 47.5595 86.8358 47.8054 85.9638 47.8671V48.0069C86.929 48.0795 87.6473 48.3395 88.1196 48.7847C88.5919 49.2311 88.8281 49.8063 88.8281 50.5126C88.8281 51.1041 88.7035 51.6176 88.4543 52.0531C88.2052 52.4886 87.8293 52.8234 87.3255 53.0574C86.8218 53.2903 86.1815 53.4073 85.4037 53.4073H85.4026ZM81.1852 45.0808V47.1196H84.8425C85.278 47.1196 85.59 47.0395 85.7763 46.8781C85.9627 46.7177 86.0569 46.461 86.0569 46.1078C86.0569 45.7546 85.9583 45.4957 85.7612 45.33C85.564 45.1642 85.2477 45.0808 84.8122 45.0808H81.1863H81.1852ZM81.1852 49.0491V51.3056H85.1231C85.5997 51.3056 85.9421 51.2201 86.1501 51.0489C86.3581 50.8777 86.461 50.5841 86.461 50.1692C86.461 49.7543 86.357 49.464 86.1501 49.2971C85.9421 49.1314 85.5997 49.048 85.1231 49.048H81.1852V49.0491Z" fill="white"/>
<path d="M95.144 53.5634C94.0022 53.5634 93.0088 53.3435 92.1638 52.9015C91.3177 52.4606 90.6698 51.8377 90.2181 51.0338C89.7663 50.23 89.541 49.2832 89.541 48.1933C89.541 47.1035 89.7663 46.1567 90.2181 45.3528C90.6698 44.549 91.3177 43.9261 92.1638 43.4852C93.0088 43.0442 94.0022 42.8232 95.144 42.8232C96.2859 42.8232 97.3389 43.0442 98.1784 43.4852C99.0191 43.9261 99.6669 44.549 100.124 45.3528C100.58 46.1567 100.809 47.1035 100.809 48.1933C100.809 49.2832 100.58 50.23 100.124 51.0338C99.6669 51.8377 99.0191 52.4606 98.1784 52.9015C97.3378 53.3424 96.3259 53.5634 95.144 53.5634ZM95.144 51.322C95.9121 51.322 96.5264 51.2212 96.9879 51.0187C97.4494 50.8161 97.7863 50.4867 97.9997 50.0307C98.212 49.5746 98.3182 48.9625 98.3182 48.1944C98.3182 47.4263 98.212 46.8012 97.9997 46.3506C97.7874 45.8988 97.4494 45.5727 96.9879 45.3702C96.5264 45.1676 95.911 45.0668 95.144 45.0668C94.377 45.0668 93.779 45.1676 93.3229 45.3702C92.8658 45.5727 92.5343 45.8988 92.3274 46.3506C92.1194 46.8023 92.0164 47.4166 92.0164 48.1944C92.0164 48.9722 92.1204 49.5746 92.3274 50.0307C92.5343 50.4878 92.8668 50.8161 93.3229 51.0187C93.779 51.2212 94.3868 51.322 95.144 51.322Z" fill="white"/>
<path d="M104.516 53.4073H102.181V42.9802H104.516V53.4073ZM107.208 53.4073H102.819V51.3067H107.208C107.924 51.3067 108.497 51.2211 108.928 51.05C109.358 50.8788 109.676 50.5679 109.877 50.1161C110.08 49.6644 110.18 49.0241 110.18 48.1943C110.18 47.3645 110.08 46.7101 109.877 46.2649C109.675 45.8186 109.358 45.5098 108.928 45.3386C108.497 45.1675 107.924 45.0819 107.208 45.0819H102.819V42.9813H107.208C108.328 42.9813 109.295 43.1893 110.11 43.6042C110.925 44.0191 111.555 44.6161 112.002 45.3939C112.448 46.1717 112.671 47.1056 112.671 48.1954C112.671 49.2852 112.448 50.2191 112.002 50.9969C111.555 51.7747 110.925 52.3716 110.11 52.7866C109.295 53.2015 108.328 53.4095 107.208 53.4095V53.4073Z" fill="white"/>
<path d="M116.317 53.4073H113.982V42.9802H116.317V53.4073ZM122.807 45.0808H114.636V42.9802H122.807V45.0808ZM122.574 49.2051H114.636V47.1196H122.574V49.2051ZM122.807 53.4073H114.636V51.3067H122.807V53.4073Z" fill="white"/>
<path d="M129.022 53.5634C127.964 53.5634 127.048 53.3435 126.275 52.9015C125.501 52.4606 124.907 51.8377 124.493 51.0338C124.078 50.23 123.87 49.2832 123.87 48.1933C123.87 47.1035 124.103 46.1567 124.569 45.3528C125.036 44.549 125.703 43.9261 126.569 43.4852C127.436 43.0442 128.465 42.8232 129.659 42.8232C130.749 42.8232 131.692 42.9868 132.492 43.314C133.29 43.6412 133.908 44.1027 134.344 44.6996C134.78 45.2965 134.998 46.0147 134.998 46.8554V46.98H132.399V46.8554C132.399 46.2433 132.181 45.7916 131.745 45.5012C131.31 45.2109 130.594 45.0657 129.597 45.0657C128.809 45.0657 128.178 45.1665 127.706 45.3691C127.233 45.5717 126.889 45.8977 126.671 46.3495C126.453 46.8012 126.344 47.4155 126.344 48.1933C126.344 48.9712 126.448 49.5735 126.655 50.0296C126.862 50.4867 127.197 50.815 127.659 51.0176C128.121 51.2202 128.731 51.3209 129.488 51.3209C130.318 51.3209 130.967 51.2667 131.433 51.1573C131.9 51.0479 132.224 50.8594 132.406 50.5897C132.587 50.3199 132.678 49.9418 132.678 49.4532V48.9863L135.013 48.9712V49.2041L133.021 51.1649H132.725C132.6 51.6221 132.392 52.0316 132.102 52.3945C131.812 52.7574 131.414 53.0434 130.911 53.2503C130.408 53.4572 129.778 53.5612 129.021 53.5612L129.022 53.5634ZM135.014 49.6255H129.147V47.8976H135.014V49.6255ZM135.014 53.4074H132.85V50.5907L132.679 50.3102V48.0536H135.014V53.4074Z" fill="white"/>
<path d="M138.365 53.4073H135.75L140.309 42.9802H143.639L148.231 53.4073H145.554L142.69 46.7307L142.052 45.1122H141.881L141.243 46.7307L138.364 53.4073H138.365ZM145.586 51.1041H138.24V49.0036H145.586V51.1041Z" fill="white"/>
<path d="M153.251 53.5635C152.203 53.5635 151.311 53.4259 150.574 53.1507C149.837 52.8756 149.277 52.4661 148.893 51.9211C148.509 51.3762 148.316 50.6991 148.316 49.8899V49.7967H150.651V50.0773C150.651 50.3991 150.721 50.658 150.861 50.8551C151.001 51.0523 151.257 51.1975 151.631 51.2906C152.005 51.3838 152.544 51.4304 153.25 51.4304C153.873 51.4304 154.349 51.3968 154.682 51.3296C155.013 51.2625 155.242 51.1563 155.367 51.0111C155.491 50.866 155.553 50.6796 155.553 50.4511C155.553 50.1293 155.447 49.8964 155.233 49.7512C155.021 49.6061 154.649 49.4869 154.121 49.3937L151.195 48.9734C150.572 48.8694 150.04 48.6982 149.599 48.4599C149.158 48.2216 148.818 47.902 148.579 47.5033C148.341 47.1036 148.222 46.6193 148.222 46.0484C148.222 45.6541 148.308 45.2651 148.479 44.8816C148.65 44.4981 148.922 44.1526 149.296 43.8471C149.669 43.5416 150.159 43.2946 150.767 43.1082C151.374 42.9219 152.118 42.8276 153.001 42.8276C154.069 42.8276 154.948 42.9804 155.638 43.287C156.329 43.5936 156.844 44.0236 157.187 44.5783C157.529 45.133 157.7 45.7743 157.7 46.5001V46.5933H155.35V46.3756C155.35 46.0441 155.28 45.7743 155.14 45.5663C155 45.3594 154.744 45.2056 154.37 45.107C153.996 45.0084 153.462 44.9596 152.767 44.9596C152.206 44.9596 151.768 44.9965 151.451 45.0691C151.135 45.1416 150.909 45.2511 150.774 45.3962C150.639 45.5414 150.572 45.7288 150.572 45.9563C150.572 46.1535 150.613 46.3171 150.696 46.4471C150.78 46.5771 150.909 46.6778 151.085 46.7504C151.262 46.823 151.495 46.8858 151.785 46.9367L154.711 47.4036C155.489 47.5282 156.109 47.7308 156.571 48.0103C157.033 48.2909 157.367 48.63 157.575 49.0297C157.783 49.4295 157.886 49.8682 157.886 50.3449C157.886 50.905 157.73 51.4315 157.419 51.9244C157.109 52.4173 156.61 52.8138 155.926 53.115C155.241 53.4161 154.348 53.5667 153.249 53.5667L153.251 53.5635Z" fill="white"/>
<path d="M81.3563 69.4732H79.0217V59.0461H81.3563V69.4732ZM84.0484 69.4732H79.6598V67.3726H84.0484C84.7645 67.3726 85.3376 67.2871 85.7687 67.1159C86.1988 66.9447 86.5162 66.6338 86.7177 66.1821C86.9203 65.7303 87.0211 65.0901 87.0211 64.2602C87.0211 63.4304 86.9203 62.7761 86.7177 62.3308C86.5151 61.8845 86.1988 61.5757 85.7687 61.4046C85.3376 61.2334 84.7645 61.1478 84.0484 61.1478H79.6598V59.0472H84.0484C85.1686 59.0472 86.136 59.2552 86.9506 59.6701C87.7653 60.0851 88.3958 60.682 88.8421 61.4598C89.2885 62.2376 89.5116 63.1715 89.5116 64.2613C89.5116 65.3511 89.2885 66.285 88.8421 67.0628C88.3958 67.8406 87.7653 68.4376 86.9506 68.8525C86.136 69.2674 85.1686 69.4754 84.0484 69.4754V69.4732Z" fill="white"/>
<path d="M95.9953 69.6293C94.8535 69.6293 93.8601 69.4094 93.0151 68.9674C92.169 68.5265 91.5212 67.9036 91.0694 67.0997C90.6177 66.2959 90.3923 65.3491 90.3923 64.2592C90.3923 63.1694 90.6177 62.2226 91.0694 61.4187C91.5212 60.6149 92.169 59.992 93.0151 59.5511C93.8601 59.1102 94.8535 58.8892 95.9953 58.8892C97.1372 58.8892 98.1902 59.1102 99.0298 59.5511C99.8704 59.992 100.518 60.6149 100.975 61.4187C101.432 62.2226 101.66 63.1694 101.66 64.2592C101.66 65.3491 101.432 66.2959 100.975 67.0997C100.518 67.9036 99.8704 68.5265 99.0298 68.9674C98.1891 69.4083 97.1773 69.6293 95.9953 69.6293ZM95.9953 67.3879C96.7634 67.3879 97.3777 67.2872 97.8392 67.0846C98.3007 66.882 98.6376 66.5527 98.851 66.0966C99.0633 65.6405 99.1695 65.0284 99.1695 64.2603C99.1695 63.4922 99.0633 62.8672 98.851 62.4165C98.6387 61.9647 98.3007 61.6387 97.8392 61.4361C97.3777 61.2335 96.7623 61.1327 95.9953 61.1327C95.2283 61.1327 94.6303 61.2335 94.1742 61.4361C93.7171 61.6387 93.3856 61.9647 93.1787 62.4165C92.9707 62.8682 92.8678 63.4825 92.8678 64.2603C92.8678 65.0382 92.9718 65.6405 93.1787 66.0966C93.3856 66.5537 93.7182 66.882 94.1742 67.0846C94.6303 67.2872 95.2381 67.3879 95.9953 67.3879Z" fill="white"/>
<path d="M105.338 69.4732H103.003V59.0461H105.494L109.229 63.9796L110.662 66.1745H110.833L110.723 64.0739V59.0472H113.058V69.4743H110.567L106.724 64.4942L105.401 62.5334H105.245L105.338 64.4476V69.4743V69.4732Z" fill="white"/>
<path d="M131.934 61.1467H121.849V59.0461H131.934V61.1467ZM128.059 69.4732H125.724V59.0461H128.059V69.4732Z" fill="white"/>
<path d="M135.169 69.4732H132.834V59.0461H135.169V69.4732Z" fill="white"/>
<path d="M146.137 61.1467H136.053V59.0461H146.137V61.1467ZM142.262 69.4732H139.928V59.0461H142.262V69.4732Z" fill="white"/>
<path d="M152.236 69.6293C151.094 69.6293 150.1 69.4094 149.255 68.9674C148.409 68.5265 147.761 67.9036 147.31 67.0997C146.858 66.2959 146.633 65.3491 146.633 64.2592C146.633 63.1694 146.858 62.2226 147.31 61.4187C147.761 60.6149 148.409 59.992 149.255 59.5511C150.1 59.1102 151.094 58.8892 152.236 58.8892C153.377 58.8892 154.43 59.1102 155.27 59.5511C156.111 59.992 156.758 60.6149 157.216 61.4187C157.672 62.2226 157.9 63.1694 157.9 64.2592C157.9 65.3491 157.672 66.2959 157.216 67.0997C156.758 67.9036 156.111 68.5265 155.27 68.9674C154.429 69.4083 153.417 69.6293 152.236 69.6293ZM152.236 67.3879C153.004 67.3879 153.618 67.2872 154.079 67.0846C154.541 66.882 154.878 66.5527 155.091 66.0966C155.304 65.6405 155.41 65.0284 155.41 64.2603C155.41 63.4922 155.304 62.8672 155.091 62.4165C154.879 61.9647 154.541 61.6387 154.079 61.4361C153.618 61.2335 153.003 61.1327 152.236 61.1327C151.469 61.1327 150.871 61.2335 150.414 61.4361C149.957 61.6387 149.626 61.9647 149.419 62.4165C149.211 62.8682 149.108 63.4825 149.108 64.2603C149.108 65.0382 149.212 65.6405 149.419 66.0966C149.626 66.5537 149.958 66.882 150.414 67.0846C150.871 67.2872 151.478 67.3879 152.236 67.3879Z" fill="white"/>
<path d="M101.043 15.5535L96.9899 17.8827V17.9758L101.043 20.305V31.6713L95.6389 34.7924H78.9155V2.18408H95.6389L101.043 5.30517V15.5535ZM83.5739 6.37658V15.833H96.3843V6.37658H83.5739ZM83.5739 20.0255V30.5999H96.3843V20.0255H83.5739Z" fill="white"/>
<path d="M130.716 31.6713L125.313 34.7924H106.26V2.18408H125.313L130.716 5.30517V31.6713ZM110.918 6.37658V30.5999H126.058V6.37658H110.918Z" fill="white"/>
<path d="M148.603 6.37658V34.7924H143.945V6.37658H134.675V2.18408H157.873V6.37658H148.603Z" fill="white"/>
</g>
<defs>
<clipPath id="clip0_1043_351">
<rect width="156" height="67.7083" fill="white" transform="translate(2 2)"/>
</clipPath>
</defs>
</svg>
