<svg width="160" height="38" viewBox="0 0 160 38" fill="none" xmlns="http://www.w3.org/2000/svg">
<path d="M14.625 37.2545C12.1601 37.2545 9.85412 36.3713 7.54815 34.0316V34.9148L7.23303 36.9937C7.18096 37.4108 6.86718 37.7736 6.49998 37.7219L0.628901 36.4733C0.313783 36.4216 0 36.2137 0 35.9542C0 35.5914 0.471342 35.5384 0.733051 35.5384L2.41146 35.6947L3.93097 35.4338C4.03512 35.173 4.1406 34.7572 4.1406 33.6145V5.39055C4.1406 3.26002 3.45963 2.53174 1.8867 2.53174H0.996094C0.838535 2.53174 0.785125 2.42846 0.785125 2.16761C0.785125 1.95972 0.838535 1.75183 0.942685 1.75183H6.13145C6.96999 1.75183 7.2317 2.32386 7.2317 4.40275V15.4222C9.69657 14.7469 10.9544 14.5906 12.578 14.5906C19.759 14.5906 24.8957 19.0609 24.8957 26.0788C24.8957 33.0967 21.384 37.2545 14.6223 37.2545H14.625ZM13.2617 15.5268C9.59242 15.5268 7.28644 17.1383 7.28644 19.7892V31.901C9.12107 34.9161 11.4791 35.9039 14.1523 35.9039C18.608 35.9039 21.2291 31.382 21.2291 25.6114C21.2291 19.3734 18.608 15.5268 13.2617 15.5268Z" fill="white"/>
<path d="M36.8755 36.0787C31.2127 32.7074 29.6772 26.4588 33.0487 20.8882C36.3668 15.4063 42.9576 13.812 48.5296 17.1303C53.697 20.2063 55.1617 26.7766 51.8971 32.1698C48.579 37.6517 42.1778 39.2367 36.8755 36.08V36.0787ZM48.1156 17.9142C44.0712 15.5069 39.4419 17.2972 36.2573 22.5566C32.9659 27.9935 33.3705 33.0848 37.2788 35.4113C41.0094 37.6319 45.4051 35.8231 48.3733 30.9212C52.1507 24.6819 52.0706 20.2698 48.1156 17.9142Z" fill="white"/>
<path d="M57.6066 37.0612C57.2915 37.0612 57.1873 36.9579 57.1873 36.6984C57.1873 36.5421 57.1873 36.3342 57.449 36.2826L58.9685 36.1263C59.8071 36.0231 60.1208 35.3994 60.1208 34.4116V19.5455C60.1208 17.415 59.3344 16.6867 57.7628 16.6867H56.8722C56.7146 16.6867 56.5584 16.5305 56.5584 16.271C56.5584 16.0631 56.7146 15.9068 56.8214 15.9068H65.5753C65.8891 15.9068 65.9946 16.0101 65.9946 16.271C65.9946 16.3742 65.8904 16.6867 65.785 16.6867L64.212 16.9463C63.3735 17.1025 63.1639 17.5699 63.1639 18.5577V33.4238C63.1639 35.5543 63.8462 36.2826 65.4178 36.2826H66.3084C66.4646 36.2826 66.518 36.3859 66.518 36.6454C66.518 36.8533 66.4646 37.0612 66.0987 37.0612H57.6066ZM61.5375 5.09394C60.1222 5.09394 58.9699 3.94989 58.9699 2.54631C58.9699 1.14273 60.1222 0 61.5375 0C62.9529 0 64.1066 1.14273 64.1066 2.54631C64.1066 3.94989 62.9529 5.09394 61.5375 5.09394Z" fill="white"/>
<path d="M82.0656 37.2174L77.2441 37.0095L73.3652 37.2174C72.9459 37.2174 72.7363 37.0095 72.7363 36.6984C72.7363 36.4905 72.8417 36.3872 73.0514 36.2826L75.567 36.0734C76.511 35.9701 76.7206 35.7622 76.7206 33.4754V4.72981C76.7206 3.79364 76.0917 3.53411 74.6243 3.53411H73.9954C73.472 3.53411 73.2089 3.37787 73.2089 3.11834C73.2089 2.91045 73.6295 2.54631 74.4681 2.54631H78.6608C79.4993 2.54631 79.761 3.11834 79.761 5.24887V35.0339C79.761 35.9688 80.3899 36.1767 81.8573 36.1767H82.4862C83.011 36.1767 83.3248 36.3859 83.3248 36.5938C83.3248 36.8017 82.9055 37.2174 82.067 37.2174H82.0656Z" fill="white"/>
<path d="M106.885 23.6517H93.9907C92.9426 23.6517 92.8384 23.8079 92.8384 25.0036C92.8384 33.9442 95.4582 37.1671 99.6522 37.1671C102.01 37.1671 103.793 36.1793 105.314 33.8409L106.833 31.5025C107.043 31.1913 107.148 31.0337 107.306 31.0867L107.829 31.19C107.935 31.19 107.987 31.3979 107.935 31.6587L107.148 36.129C107.043 36.7527 106.623 36.8056 104.737 37.2717L102.325 37.8437C101.802 37.947 101.173 38 100.387 38C94.9882 38 89.1691 34.5678 89.1691 26.4602C89.1691 20.0143 93.5194 15.3361 100.019 15.3361C104.37 15.3361 108.406 19.0781 108.406 22.8731C108.406 23.4451 107.987 23.653 106.887 23.653L106.885 23.6517ZM99.3905 16.218C95.9308 16.218 93.8866 18.2969 93.1522 22.1435C93.9386 22.2997 94.4621 22.403 94.8293 22.403H103.216C104.368 22.403 104.735 22.0919 104.735 21.2073C104.735 18.661 102.166 16.2167 99.3891 16.2167L99.3905 16.218Z" fill="white"/>
<path d="M131.16 17.6732L130.741 18.9206C130.478 19.7521 130.165 20.0646 129.64 20.0646C129.379 20.0646 129.117 19.9084 128.435 19.1814C127.754 18.4545 126.391 17.9341 125.29 17.9341C122.407 17.9341 120.939 20.0659 120.939 25.3161V33.3735C120.939 35.5556 121.148 35.9714 121.935 36.076L123.508 36.2852C123.979 36.3369 123.979 36.4402 123.979 36.5964C123.979 36.9592 123.823 37.0638 122.983 37.0638H117.479L114.806 37.2717C114.335 37.2717 114.125 37.1168 114.125 36.8043C114.125 36.6481 114.335 36.4931 114.387 36.4931L116.483 36.129C117.427 35.9727 117.637 35.5053 117.637 33.5297V30.9834C117.637 21.9912 121.987 15.4937 129.012 15.4407C130.689 15.4407 131.318 15.8049 131.318 16.7927C131.318 17.0522 131.265 17.3647 131.161 17.6759L131.16 17.6732Z" fill="white"/>
<path d="M155.335 37.322C153.238 37.322 151.927 35.8152 151.613 33.2159C151.613 33.9429 148.573 37.5816 144.171 37.5816C137.565 37.5816 133.057 33.008 133.057 26.5105C133.057 20.013 137.88 15.3864 144.38 15.3864C150.408 15.3864 155.073 20.2725 155.073 26.5621V32.6426C155.073 33.6833 155.126 35.0869 156.908 35.0869C157.798 35.0869 158.479 34.3586 158.846 33.8912L159.423 33.1113C159.527 33.008 159.633 32.9564 159.737 32.9564C159.841 32.9564 160 33.1643 160 33.4238C160 34.5149 158.322 37.322 155.335 37.322ZM151.456 27.2904C151.456 20.013 149.044 16.3226 144.431 16.3226C139.818 16.3226 136.673 20.1692 136.673 26.3026C136.673 32.436 139.556 36.6467 144.116 36.6467C147.837 36.6467 151.454 32.9564 151.454 30.5133V27.2904H151.456Z" fill="white"/>
</svg>
