<svg width="160" height="36" viewBox="0 0 160 36" fill="none" xmlns="http://www.w3.org/2000/svg">
<path d="M159.54 32.4493C158.46 32.2389 155.376 31.7836 154.099 29.7051C152.516 27.124 152.417 25.4105 152.894 23.2718C153.372 21.1374 154.662 18.2644 155.475 17.2723C156.288 16.2803 156.288 16.203 155.978 15.8508C155.669 15.4944 154.305 13.9097 153.312 14.1974C152.654 14.3864 152.163 14.657 151.264 15.5717L150.365 16.4864C150.365 16.4864 149.114 15.7821 147.927 15.7478C146.258 15.7048 144.025 16.0613 142.455 17.4098C140.885 18.7583 139.952 20.1926 139.952 20.1926L135.617 20.2442C135.617 20.2442 135.083 15.1895 130.481 15.6962C125.879 16.203 126.752 20.1196 126.945 20.6264C127.143 21.1331 127.535 21.9878 128.851 22.4559C129.556 22.7092 129.999 22.5375 129.999 22.5375C129.999 22.5375 130.446 27.2615 128.554 28.2063C127.345 28.8075 125.694 28.2965 125.354 25.9001C125.061 23.8473 124.889 17.7404 126.868 14.3091C128.846 10.8778 132.816 7.42493 133.109 7.20591C133.376 7.00407 133.586 6.54455 132.829 5.96049C132.072 5.37643 130.193 4.02794 128.227 4.66354C126.261 5.29913 124.016 7.74703 122.029 11.0452C120.377 13.7809 119.534 16.1729 119.053 18.8141C118.807 20.1497 118.73 21.4037 118.756 22.7865C118.812 25.3289 119.59 26.0332 118.803 27.2099C118.635 27.459 118.304 27.9572 117.891 28.2879C117.534 28.5713 116.893 29.0351 116.145 28.8676C115.444 28.713 114.898 28.2879 114.734 27.2099C114.571 26.132 114.902 24.8007 115.22 23.4737C115.775 21.1804 116.958 18.8012 117.263 17.0233C117.457 15.8895 117.668 14.3091 117.276 13.2011C117.087 12.6729 116.27 10.8262 112.984 12.0588C109.478 13.3729 105.353 19.9736 105.353 19.9736C105.353 19.9736 106.209 16.6367 106.394 15.211C106.661 13.1324 105.882 12.3078 104.945 11.9256C104.007 11.5434 102.011 11.1569 99.865 13.5404C97.7187 15.9239 95.452 19.7074 95.452 19.7074C95.452 19.7074 96.2047 15.9196 96.3553 14.9361C96.5058 13.9484 96.1144 11.2943 93.0304 12.3336C90.811 13.0852 89.0174 15.7607 88.2217 17.092C87.9636 17.5257 87.74 17.9724 87.5421 18.4319C86.8195 20.1325 84.3937 25.3633 82.9657 26.059C81.4 26.8234 80.914 25.7025 80.7591 25.1571C80.428 23.9804 80.5484 21.3221 81.271 19.2951C81.9979 17.268 83.2969 14.9662 84.2345 13.9527C85.1722 12.9391 85.4733 12.4453 84.4453 11.5434C83.4173 10.6416 81.9678 10.2851 81 10.9679C80.0322 11.6508 78.7677 12.8704 78.372 13.1324C78.0666 13.3342 77.1246 11.8999 75.0773 11.9256C72.6815 11.96 69.1976 13.3385 66.191 17.4742C64.0447 20.4245 63.9845 22.9626 63.9845 23.7872C63.9845 24.6117 62.6382 26.5915 60.9608 26.8578C59.6489 27.0682 59.0812 26.2222 58.8145 24.8265C58.4704 23.0056 58.522 20.2528 58.9392 19.8963C59.3564 19.5399 62.7716 18.2472 63.7393 15.1294C64.3888 13.0379 62.8619 11.4318 61.2317 11.1569C59.6016 10.882 57.3779 11.5091 56.4273 13.2913C55.8983 14.2833 55.6703 15.0735 55.6703 15.0735L50.9261 14.9103C50.9261 14.9103 51.167 12.6042 49.3261 11.5992C48.6293 11.217 47.7819 11.1612 46.9991 11.3587C45.6614 11.698 44.2851 13.0937 44.0915 14.8803C43.756 18.011 46.6636 18.4705 46.6636 18.4705C46.6636 18.4705 47.1453 21.627 44.9044 24.4485C43.4291 26.3038 40.7065 27.3044 38.715 26.6259C36.5644 25.432 36.7064 22.9798 37.3946 20.2313C37.915 18.1613 39.4677 16.3791 41.343 14.5797C42.3839 13.579 43.0076 13.3471 42.7323 12.9348C42.4614 12.5226 40.7968 10.633 39.5279 10.852C38.2591 11.071 36.0526 13.2355 36.0526 13.2355C36.0526 13.2355 33.6095 12.1747 30.9557 12.4796C28.0051 12.8189 25.0329 14.7386 22.7791 17.9466C20.8909 20.635 20.7532 21.743 20.5167 22.9025C20.4178 23.3835 20.3188 23.8645 20.0005 24.2596C19.7941 24.513 19.5102 24.8136 19.1188 25.1485C18.4435 25.7283 12.981 29.937 10.2024 27.2829C7.30342 24.5172 8.06043 18.0754 9.50563 13.3944C10.2239 11.071 11.5444 7.98323 14.5251 5.80589C15.751 4.91262 18.1639 3.95494 19.3898 4.65495C20.6027 5.35067 21.0371 6.88382 20.207 8.92803C19.6091 10.4011 19.0887 11.3673 19.9661 11.8054C20.8436 12.2434 22.8823 12.6385 24.6028 11.844C25.2652 11.5391 27.5362 9.3446 27.2652 6.14086C26.9943 2.93713 25.605 1.91073 23.7426 1.01317C17.4241 -2.03167 7.52709 1.87208 2.90331 11.5692C-1.72047 21.2663 -0.0602137 28.4468 2.63233 31.6247C4.61948 33.9696 7.87118 34.5837 10.2024 34.3174C10.2024 34.3174 13.8885 34.2788 17.2994 31.5646C19.9489 29.456 21.1059 26.6345 21.2178 26.4283C21.3296 26.2222 21.2436 28.0302 22.5554 29.2627C23.4802 30.1345 24.8136 30.7272 26.8179 30.0229C29.4847 29.0867 31.3041 27.2529 32.0998 25.9559C32.0998 25.9559 31.9449 31.0364 35.4332 32.0757C39.3903 33.261 42.5904 32.1873 45.7303 30.2505C47.9798 28.8633 49.2959 26.6645 50.053 24.6203C50.7282 22.7994 50.939 20.3258 50.939 20.3258L53.3348 20.4374C53.3348 20.4374 52.8014 26.6989 53.0165 28.1977C53.3348 30.4008 54.2337 32.1358 57.3048 31.7664C60.7715 31.3499 63.1114 28.8247 63.1114 28.8247C63.1114 28.8247 64.1566 27.6952 64.3071 27.3645C64.3071 27.3645 65.0942 29.6922 66.6642 30.1603C68.2341 30.6241 70.3503 30.491 72.0148 29.121C73.6794 27.751 74.8278 25.7541 74.9482 25.4234C74.9482 25.4234 74.7375 28.7646 76.6429 30.1345C78.5483 31.5045 80.9957 31.1394 82.3076 30.8302C84.0453 30.418 85.3227 29.2842 86.6475 26.3811C87.2625 25.0369 89.8304 19.819 89.9422 19.6988C90.1745 19.4454 90.6863 19.4153 90.3637 20.4675C90.0583 21.4767 88.983 25.3762 88.5486 27.313C88.2647 28.5842 88.1572 29.2584 88.9701 29.6664C89.7874 30.0787 92.2949 30.1259 93.1638 30.0787C94.0498 30.0315 94.4799 29.4817 94.5402 28.9449C94.6219 28.1977 94.9574 26.2909 96.1058 23.2804C97.3402 20.0509 98.3854 19.8577 98.8241 19.7761C99.4779 19.6515 99.7747 20.1153 99.7747 20.7724C99.7747 21.4295 98.536 25.1528 98.4026 27.4461C98.2822 29.529 98.9919 29.9541 100.321 30.1002C101.697 30.2505 104.007 30.2891 104.424 29.6922C105.005 28.8633 105.143 27.3431 105.336 26.3768C105.586 25.1314 105.865 23.9289 106.665 22.4773C107.143 21.6141 108.145 19.5914 109.285 19.4196C109.831 19.338 110.493 19.7202 110.192 20.489C109.891 21.2577 108.747 23.989 108.996 27.5707C109.13 29.4903 110.145 30.929 112.02 31.6333C113.517 32.1959 115.293 32.3162 116.833 31.8695C117.625 31.6419 118.313 31.2167 118.906 30.6413C119.457 30.1088 119.956 29.2799 120.119 29.0265C120.145 28.9836 120.197 28.9664 120.227 29.0093C121.56 30.8174 123.913 32.5652 126.167 32.7971C128.92 33.0849 132.197 31.9082 133.659 29.456C134.73 27.6652 135.191 25.3805 135.535 23.3405L138.116 23.4178C138.116 23.4178 135.956 27.1026 137.303 30.0529C138.649 33.0033 142.163 32.4708 143.221 32.1873C144.752 31.7793 146.249 30.8904 147.122 28.8848C147.746 27.4461 147.449 28.1977 147.509 29.6578C147.548 30.6026 147.617 31.7493 148.804 33.1536C151.484 36.3144 155.084 36.0138 155.957 35.9751C157.26 35.9193 158.232 35.5027 159.269 34.5278C160.258 33.5916 160.142 32.5652 159.523 32.445L159.54 32.4493ZM30.3793 23.2332C29.1621 25.1142 27.6265 25.3676 26.9728 25.2344C26.0136 25.0412 25.2523 23.8258 25.8329 21.773C26.5039 19.411 27.6438 18.1055 28.4653 17.3325C29.3384 16.5165 29.9922 16.1729 30.6288 16.0527C31.2051 15.941 31.5277 16.5251 31.6611 17.2079C31.9234 18.5693 31.2955 21.8117 30.375 23.2332H30.3793ZM74.3289 23.2718C73.103 25.1614 71.5632 25.4191 70.9051 25.286C69.9417 25.0927 69.1717 23.8731 69.761 21.8031C70.4363 19.4282 71.5804 18.1141 72.4062 17.3368C73.2837 16.5165 73.9418 16.1729 74.5826 16.0484C75.1633 15.9367 75.4859 16.5208 75.6192 17.2079C75.8816 18.5736 75.2536 21.8374 74.3289 23.2675V23.2718ZM146.718 25.5179C146.619 25.7326 146.507 25.8915 146.395 26.059C145.26 27.8112 143.827 28.0517 143.217 27.9271C142.322 27.7468 141.608 26.613 142.154 24.6976C142.782 22.4945 143.84 21.2749 144.61 20.5534C145.423 19.7889 146.038 19.4712 146.632 19.3595C147.17 19.2564 147.385 19.5828 147.565 20.2055C147.608 20.3558 147.69 21.0644 147.656 21.4853C147.604 23.4608 147.303 24.4915 146.718 25.5179Z" fill="white"/>
</svg>
