<svg width="160" height="67" viewBox="0 0 160 67" fill="none" xmlns="http://www.w3.org/2000/svg">
<g clip-path="url(#clip0_1002_392)">
<path d="M27.1949 63.3877C24.0018 64.8208 16.6487 66.6423 11.6942 63.4335C8.47059 61.3306 6.83366 57.4695 6.83366 51.9265C6.83366 45.3866 8.26761 40.6377 10.9936 38.1792C13.2373 36.1701 15.6054 36.3883 15.6665 36.3883C21.446 36.3883 22.9716 42.8954 22.9891 42.9587L23.4889 42.9107V35.4219L22.9891 35.3281C22.522 36.6675 20.9003 36.3556 18.5017 35.7186C17.4584 35.4525 16.3824 35.158 15.4963 35.158C9.46802 35.158 4.10981 38.7704 1.506 44.5773C-1.22003 50.6504 -0.192043 57.4389 4.15346 62.3122C7.34656 65.8788 11.3974 66.9979 15.23 66.9979C21.5857 66.9979 27.3346 63.9003 27.4284 63.8523L27.1949 63.3855V63.3877ZM4.52886 61.9697C0.323044 57.2513 -0.659114 50.6656 1.97307 44.7802C4.48084 39.1587 9.66882 35.6728 15.4941 35.6728C16.3191 35.6728 17.3646 35.9542 18.3773 36.2181C20.1692 36.685 22.0069 37.167 22.9738 36.2814V41.3728C22.116 39.3179 20.0448 35.8931 15.6993 35.8931H15.684C15.5901 35.8778 13.0824 35.6291 10.6684 37.7931C7.78526 40.3781 6.32294 45.1423 6.32294 51.9309C6.32294 57.644 8.03625 61.6622 11.4171 63.8567C14.6102 65.9268 18.7221 65.9901 22.1662 65.3989C17.2445 66.8627 9.70374 67.7352 4.53104 61.9741" fill="white"/>
<path d="M10.6662 37.7908C7.78519 40.3758 6.32068 45.14 6.32068 51.9285C6.32068 57.6417 8.034 61.6598 11.4148 63.8543C14.6079 65.9245 18.7199 65.9878 22.164 65.3966C17.2423 66.8603 9.70149 67.7329 4.52879 61.9718C0.322973 57.2534 -0.659185 50.6677 1.973 44.7822C4.48077 39.1607 9.66875 35.6748 15.494 35.6748C16.319 35.6748 17.3645 35.954 18.3772 36.2202C20.1691 36.687 22.0068 37.1713 22.9715 36.2834V41.3748C22.1138 39.32 20.0425 35.8951 15.697 35.8951H15.6817C15.5879 35.8799 13.0801 35.6312 10.6662 37.7951" fill="white"/>
<path d="M35.6545 61.8758L29.3752 41.6519H25.715V41.6671L19.4358 61.8758H18.4711V62.3906H21.2604V61.8758H19.9683L22.9759 52.1925H28.9431L31.9659 61.8758H30.9074V62.3906H36.7807V61.8758H35.6588H35.6545ZM23.144 51.6776L25.9638 42.5855L28.7837 51.6776H23.144ZM32.4919 61.8758L26.3545 42.1492H29.0042L35.1263 61.8758H32.4941H32.4919Z" fill="white"/>
<path d="M35.1241 61.876H32.4919L26.3545 42.1494H29.002L35.1241 61.876Z" fill="white"/>
<path d="M67.7296 43.0372C66.7169 42.0403 65.3615 41.4797 63.9298 41.4797H54.5512V41.9771C55.4701 41.9924 56.2035 42.7406 56.2035 43.659V60.2094C56.2035 61.0819 55.5334 61.7974 54.6778 61.876C54.1628 61.5967 52.2945 60.5213 51.2359 58.5122C50.9871 58.0454 50.7208 57.4848 50.4415 56.9089C49.5532 55.0241 48.5557 52.9387 47.4513 52.0814C49.9133 51.5993 51.7816 49.4353 51.7816 46.8351C51.7816 45.4019 51.2206 44.0472 50.2079 43.0351C49.1952 42.0382 47.8551 41.4775 46.4233 41.4775H37.0296V41.9749C37.9484 41.9902 38.697 42.7384 38.697 43.6568V60.2072C38.697 61.1255 37.9331 61.8738 37.0143 61.8738V62.3886H43.9156V61.8738C42.9967 61.8738 42.2481 61.1255 42.2481 60.2072V52.2188C42.9793 52.3432 45.0527 52.9365 46.1112 55.7854C46.2204 56.0821 46.3295 56.3613 46.4233 56.6427C47.5757 59.8342 48.4793 62.358 54.5403 62.3886H61.4264V61.8738C60.5075 61.8738 59.7589 61.1255 59.7589 60.2072V52.1883H63.9341C66.8937 52.1883 69.3076 49.7756 69.3076 46.8329C69.3076 45.3997 68.7467 44.0451 67.734 43.0329M42.5078 61.876H38.4111C38.8935 61.4877 39.1903 60.879 39.1903 60.2094V43.659C39.1903 42.9893 38.8935 42.3828 38.4111 41.9771L41.7286 41.9924V60.2094C41.7286 60.879 42.0233 61.4855 42.5078 61.876ZM46.419 41.9945C47.7111 41.9945 48.9268 42.4919 49.8456 43.4125C50.7645 44.3156 51.2643 45.5306 51.2643 46.8373C51.2643 49.4986 49.0992 51.68 46.419 51.68H45.9672C46.013 51.6647 46.0458 51.6342 46.0916 51.6168C46.1222 51.5862 46.1702 51.5709 46.2007 51.5535C46.3251 51.475 46.4495 51.4139 46.5739 51.3201C46.5739 51.3201 46.5892 51.3201 46.5892 51.3048C46.6984 51.2285 46.8075 51.1499 46.9166 51.0714L47.0105 50.9776C47.1043 50.9143 47.1829 50.838 47.2746 50.7595C47.2898 50.7289 47.3204 50.7137 47.3378 50.6809C47.447 50.5871 47.5408 50.4781 47.6347 50.369C47.65 50.3384 47.6652 50.321 47.698 50.2905C47.7613 50.1967 47.8377 50.1029 47.901 50.0112C47.9162 49.9807 47.949 49.948 47.9642 49.9174C48.0581 49.7931 48.1192 49.6688 48.1978 49.5444V49.5291C48.2764 49.4048 48.3375 49.2805 48.3855 49.1561C48.4008 49.1103 48.416 49.0776 48.4335 49.0318C48.4793 48.9227 48.5273 48.8136 48.5579 48.7046C48.5732 48.674 48.5732 48.6413 48.5885 48.6108C48.6365 48.4712 48.667 48.3315 48.6976 48.1898C48.7129 48.1439 48.7129 48.1134 48.7129 48.0807C48.7434 47.9563 48.7587 47.8473 48.7762 47.7229C48.7762 47.6771 48.7762 47.6444 48.7914 47.5986C48.8067 47.4437 48.8067 47.2866 48.8067 47.1318V46.5253C48.8067 46.3705 48.8067 46.2134 48.7914 46.0585C48.7762 46.028 48.7762 45.98 48.7762 45.9342C48.7609 45.8251 48.7456 45.7008 48.7129 45.5764C48.7129 45.5459 48.7129 45.5153 48.6976 45.4826C48.667 45.343 48.6365 45.1859 48.5885 45.0463C48.5732 45.0158 48.5732 44.9831 48.5579 44.9525C48.5273 44.8435 48.4815 44.7344 48.4335 44.6253C48.4182 44.5948 48.4029 44.5468 48.3855 44.5163C48.3244 44.3766 48.2764 44.2523 48.1978 44.1258C48.1192 43.9862 48.0581 43.8618 47.9642 43.7528C47.949 43.7069 47.9184 43.6742 47.901 43.6437C47.8377 43.5499 47.7613 43.4561 47.698 43.3797C47.6674 43.3492 47.6521 43.3165 47.6347 43.2859C47.5408 43.1769 47.447 43.0831 47.3378 42.974C47.3226 42.9587 47.292 42.9282 47.2746 42.9107C47.1807 42.8322 47.1021 42.7558 47.0105 42.6773C46.9799 42.6468 46.9494 42.6141 46.9166 42.5988C46.8075 42.505 46.6984 42.4286 46.5892 42.3501L46.5739 42.3348C46.4495 42.2563 46.3251 42.18 46.2007 42.1167C46.1702 42.0862 46.1222 42.0709 46.0916 42.0534C46.0458 42.0229 46.013 42.0076 45.9672 41.9902H46.419V41.9945ZM42.2437 41.9945H43.7541C46.2618 41.9945 48.2873 44.0189 48.2873 46.5253V47.1318C48.2873 49.4833 46.4954 51.4139 44.2211 51.6473C44.064 51.6626 43.909 51.6778 43.7541 51.6778H42.2437V41.9924V41.9945ZM46.9013 56.4748C46.8075 56.1956 46.6984 55.8989 46.5892 55.6175C45.8559 53.6717 44.6882 52.69 43.706 52.1927H46.4168C47.6325 52.1927 48.9879 55.0416 49.9831 57.1292C50.2625 57.7204 50.5288 58.2657 50.7776 58.7478C51.572 60.2726 52.8183 61.3001 53.6586 61.8607C48.7522 61.612 47.9577 59.4306 46.897 56.4726M60.0339 61.876H55.9372C56.4043 61.4877 56.7164 60.879 56.7164 60.2094V43.659C56.7164 42.9893 56.4043 42.3828 55.9372 41.9771L59.2394 41.9924V60.2094C59.2394 60.879 59.5515 61.4855 60.0339 61.876ZM59.7545 51.6778V41.9924H61.2648C63.7726 41.9924 65.8133 44.0167 65.8133 46.5232V47.1296C65.8133 49.636 63.7726 51.6757 61.2648 51.6757H59.7545V51.6778ZM63.9276 51.6778H63.4758C65.1585 50.8533 66.3262 49.1409 66.3262 47.1318V46.5253C66.3262 44.5315 65.1585 42.8038 63.4758 41.9945H63.9276C65.2349 41.9945 66.4506 42.4919 67.3695 43.4125C68.2731 44.3156 68.7882 45.5306 68.7882 46.8373C68.7882 49.4986 66.6078 51.68 63.9276 51.68" fill="white"/>
<path d="M68.7881 46.8371C68.7881 49.4985 66.6077 51.6799 63.9275 51.6799H63.4757C65.1585 50.8553 66.3262 49.1407 66.3262 47.1338V46.5274C66.3262 44.5336 65.1585 42.8059 63.4757 41.9966H63.9275C65.2349 41.9966 66.4506 42.4961 67.3694 43.4145C68.273 44.3176 68.7881 45.5327 68.7881 46.8393" fill="white"/>
<path d="M56.7163 60.2115V43.6611C56.7163 42.9914 56.4042 42.385 55.9371 41.9792L59.2394 41.9945V60.2115C59.2394 60.8812 59.5515 61.4876 60.0338 61.8781H55.9371C56.4042 61.4898 56.7163 60.8812 56.7163 60.2115Z" fill="white"/>
<path d="M53.663 61.8606C48.7565 61.612 47.9621 59.4327 46.9014 56.4725C46.8075 56.1911 46.6984 55.8967 46.5893 55.6153C45.8559 53.6694 44.6882 52.6878 43.7083 52.1904H46.419C47.6347 52.1904 48.9901 55.0394 49.9853 57.127C50.2647 57.7181 50.531 58.2635 50.7798 58.7456C51.5742 60.2704 52.8205 61.3 53.6608 61.8585" fill="white"/>
<path d="M51.2643 46.8371C51.2643 49.4984 49.0992 51.6799 46.419 51.6799H45.9672C46.0152 51.6646 46.0457 51.6319 46.0916 51.6166C46.1221 51.5861 46.1701 51.5708 46.2007 51.5533C46.3251 51.4748 46.4495 51.4137 46.5739 51.3199C46.5739 51.3199 46.5892 51.3199 46.5892 51.3047C46.6983 51.2261 46.8075 51.1498 46.9166 51.0712L47.0104 50.9774C47.1043 50.9142 47.1829 50.8378 47.2745 50.7593C47.2898 50.7288 47.3204 50.7135 47.3378 50.6808C47.4469 50.587 47.5408 50.4779 47.6346 50.3688C47.6499 50.3383 47.6652 50.323 47.6979 50.2903C47.7591 50.1965 47.8376 50.1027 47.9009 50.0111C47.9162 49.9805 47.9468 49.9478 47.962 49.9173C48.0559 49.7929 48.1192 49.6686 48.1956 49.5442V49.529C48.2741 49.4046 48.3353 49.2803 48.3833 49.156C48.3985 49.1101 48.4138 49.0774 48.4291 49.0316C48.4749 48.9225 48.523 48.8135 48.5535 48.7044C48.5688 48.6739 48.5688 48.6411 48.5841 48.6106C48.6299 48.471 48.6626 48.3314 48.6932 48.1896C48.7085 48.1438 48.7085 48.1111 48.7085 48.0805C48.739 47.9562 48.7565 47.8471 48.7718 47.7228C48.7718 47.677 48.7718 47.6442 48.787 47.5984C48.8023 47.4435 48.8023 47.2865 48.8023 47.1316V46.5252C48.8023 46.3703 48.8023 46.2132 48.787 46.0583C48.7718 46.0278 48.7718 45.9798 48.7718 45.934C48.7565 45.8249 48.7412 45.7006 48.7085 45.5763C48.7085 45.5457 48.7085 45.5152 48.6932 45.4825C48.6626 45.3428 48.6299 45.1858 48.5841 45.0462C48.5688 45.0156 48.5688 44.9829 48.5535 44.9524C48.523 44.8433 48.4749 44.7342 48.4291 44.6252C48.4138 44.5946 48.3985 44.5466 48.3833 44.5161C48.32 44.3765 48.2741 44.2521 48.1956 44.1278C48.1192 43.9882 48.0559 43.8638 47.962 43.7548C47.9468 43.709 47.9162 43.6762 47.9009 43.6457C47.8376 43.5519 47.7612 43.4581 47.6979 43.3817C47.6674 43.3512 47.6499 43.3185 47.6346 43.2879C47.5408 43.1789 47.4469 43.0851 47.3378 42.976C47.3225 42.9607 47.292 42.9302 47.2745 42.9127C47.1807 42.8342 47.1021 42.7579 47.0104 42.6793C46.9799 42.6488 46.9493 42.6161 46.9166 42.6008C46.8075 42.507 46.6983 42.4307 46.5892 42.3521L46.5739 42.3369C46.4495 42.2583 46.3251 42.182 46.2007 42.1187C46.1701 42.0882 46.1221 42.0729 46.0916 42.0554C46.0436 42.0249 46.013 42.0096 45.9672 41.9922H46.419C47.711 41.9922 48.9267 42.4917 49.8456 43.4101C50.7645 44.3132 51.2643 45.5283 51.2643 46.8349" fill="white"/>
<path d="M39.1903 60.2115V43.6611C39.1903 42.9914 38.8935 42.385 38.4111 41.9792L41.7286 41.9945V60.2115C41.7286 60.8812 42.0255 61.4876 42.5078 61.8781H38.4111C38.8935 61.4898 39.1903 60.8812 39.1903 60.2115Z" fill="white"/>
<path d="M75.8138 41.979V41.4795H69.9406V41.979H70.9227V61.8779H69.9406V62.3927H75.8138V61.8779H74.8164V41.979H75.8138ZM74.3188 61.8757H71.4378V41.9769H74.3188V61.8757Z" fill="white"/>
<path d="M74.3187 41.9792H71.4377V61.8781H74.3187V41.9792Z" fill="white"/>
<path d="M144.281 61.9237L144.296 61.9084C143.908 61.7056 141.898 60.6323 140.791 58.5142C140.542 58.0473 140.278 57.4867 139.997 56.9108C139.093 55.0261 138.096 52.9406 136.989 52.0834C139.466 51.6013 141.335 49.4373 141.335 46.8371C141.335 45.4039 140.774 44.0492 139.761 43.037C138.748 42.0401 137.393 41.4795 135.959 41.4795H126.58V41.9769C127.499 41.9921 128.233 42.7382 128.233 43.6587V60.2091C128.233 61.1275 127.484 61.8757 126.565 61.8757V62.3905H133.451V61.8757C132.532 61.8757 131.784 61.1275 131.784 60.2091V52.2208C132.517 52.3451 134.588 52.9363 135.662 55.7874C135.771 56.0841 135.865 56.3633 135.974 56.6447C137.127 59.8514 138.03 62.3753 144.107 62.3905H144.185V62.1266L144.355 61.9543L144.279 61.9237H144.281ZM132.067 61.8757H127.971C128.438 61.4874 128.75 60.8788 128.75 60.2091V43.6587C128.75 42.989 128.438 42.3826 127.971 41.9769L131.273 41.9921V60.2091C131.273 60.8788 131.585 61.4853 132.067 61.8757ZM135.963 41.9943C137.273 41.9943 138.486 42.4939 139.405 43.4122C140.309 44.3153 140.822 45.5304 140.822 46.8371C140.822 49.4984 138.641 51.6798 135.961 51.6798H135.509C135.555 51.6645 135.603 51.634 135.649 51.6165C135.68 51.586 135.712 51.5707 135.758 51.5533C135.883 51.4747 136.007 51.4137 136.116 51.3199C136.126 51.3199 136.136 51.3148 136.147 51.3046L136.474 51.0712C136.505 51.0406 136.535 51.0079 136.568 50.9774C136.662 50.9141 136.74 50.8378 136.817 50.7592L136.893 50.6807C136.987 50.5869 137.081 50.4778 137.175 50.3688C137.205 50.3382 137.22 50.323 137.238 50.2902C137.314 50.1964 137.378 50.1026 137.456 50.011C137.471 49.9805 137.502 49.9477 137.52 49.9172C137.598 49.7929 137.674 49.6685 137.738 49.5442C137.753 49.5442 137.753 49.5289 137.753 49.5289C137.816 49.4046 137.877 49.2802 137.941 49.1559C137.956 49.1101 137.971 49.0774 137.989 49.0316C138.035 48.9225 138.065 48.8134 138.113 48.7043C138.113 48.6738 138.128 48.6411 138.144 48.6105C138.174 48.4709 138.222 48.3313 138.253 48.1895C138.253 48.1437 138.253 48.111 138.268 48.0805C138.283 47.9561 138.299 47.847 138.314 47.7227C138.329 47.6769 138.329 47.6442 138.329 47.5984C138.345 47.4435 138.36 47.2864 138.36 47.1315V46.5251C138.36 46.3702 138.345 46.2132 138.329 46.0583C138.329 46.0277 138.329 45.9798 138.314 45.9339C138.299 45.8249 138.283 45.7005 138.268 45.5762C138.253 45.5457 138.253 45.5151 138.253 45.4824C138.222 45.3428 138.174 45.1857 138.144 45.0461C138.128 45.0156 138.113 44.9828 138.113 44.9523C138.065 44.8432 138.035 44.7342 137.989 44.6251C137.973 44.5946 137.958 44.5466 137.941 44.516C137.88 44.3764 137.816 44.2521 137.753 44.1277C137.674 43.9881 137.598 43.8638 137.52 43.7547C137.504 43.7089 137.474 43.6762 137.456 43.6456C137.378 43.5518 137.317 43.458 137.238 43.3817C137.223 43.3511 137.207 43.3184 137.175 43.2879C137.081 43.1788 136.987 43.085 136.893 42.9759C136.863 42.9607 136.847 42.9301 136.817 42.9127C136.738 42.8342 136.662 42.7578 136.568 42.6793C136.537 42.6487 136.507 42.616 136.474 42.6007C136.365 42.5069 136.256 42.4306 136.147 42.3521C136.131 42.3521 136.131 42.3368 136.116 42.3368C136.007 42.2583 135.883 42.1819 135.758 42.1186C135.712 42.0881 135.68 42.0728 135.649 42.0554C135.603 42.0248 135.555 42.0096 135.509 41.9921H135.961L135.963 41.9943ZM131.788 41.9943H133.298C135.806 41.9943 137.847 44.0187 137.847 46.5251V47.1315C137.847 49.4831 136.055 51.4137 133.765 51.6471C133.611 51.6623 133.469 51.6776 133.298 51.6776H131.788V41.9921V41.9943ZM136.461 56.4745C136.352 56.1953 136.258 55.8987 136.134 55.6172C135.418 53.6714 134.248 52.6898 133.268 52.1924H135.963C137.179 52.1924 138.55 55.0414 139.53 57.129C139.809 57.7201 140.075 58.2655 140.339 58.7476C141.134 60.2724 142.365 61.302 143.205 61.8605C138.299 61.6118 137.52 59.4325 136.461 56.4724" fill="white"/>
<path d="M143.205 61.8606C138.299 61.612 137.519 59.4327 136.459 56.4725C136.35 56.1911 136.256 55.8967 136.131 55.6153C135.413 53.6694 134.246 52.6878 133.266 52.1904H135.961C137.177 52.1904 138.547 55.0394 139.527 57.127C139.809 57.7181 140.073 58.2635 140.337 58.7456C141.132 60.2704 142.363 61.3 143.203 61.8585" fill="white"/>
<path d="M140.822 46.8371C140.822 49.4984 138.641 51.6799 135.961 51.6799H135.509C135.555 51.6646 135.603 51.6319 135.649 51.6166C135.68 51.5861 135.712 51.5708 135.758 51.5533C135.883 51.4748 136.007 51.4137 136.116 51.3199C136.126 51.3199 136.137 51.3148 136.147 51.3047L136.474 51.0712C136.505 51.0407 136.535 51.008 136.568 50.9774C136.662 50.9142 136.74 50.8378 136.817 50.7593L136.893 50.6808C136.987 50.587 137.081 50.4779 137.175 50.3688C137.205 50.3383 137.221 50.323 137.238 50.2903C137.317 50.1965 137.378 50.1027 137.456 50.0111C137.472 49.9805 137.502 49.9478 137.52 49.9173C137.598 49.7929 137.675 49.6686 137.738 49.5442C137.753 49.5442 137.753 49.529 137.753 49.529C137.816 49.4046 137.877 49.2803 137.941 49.156C137.956 49.1101 137.971 49.0774 137.987 49.0316C138.032 48.9225 138.063 48.8135 138.111 48.7044C138.111 48.6739 138.126 48.6411 138.142 48.6106C138.172 48.471 138.22 48.3314 138.251 48.1896C138.251 48.1438 138.251 48.1111 138.266 48.0805C138.281 47.9562 138.297 47.8471 138.314 47.7228C138.329 47.677 138.329 47.6442 138.329 47.5984C138.345 47.4435 138.36 47.2865 138.36 47.1316V46.5252C138.36 46.3703 138.345 46.2132 138.329 46.0583C138.329 46.0278 138.329 45.9798 138.314 45.934C138.299 45.8249 138.283 45.7006 138.266 45.5763C138.251 45.5457 138.251 45.5152 138.251 45.4825C138.22 45.3428 138.172 45.1858 138.142 45.0462C138.126 45.0156 138.111 44.9829 138.111 44.9524C138.063 44.8433 138.032 44.7342 137.987 44.6252C137.971 44.5946 137.956 44.5466 137.941 44.5161C137.877 44.3765 137.816 44.2521 137.753 44.1278C137.675 43.9882 137.598 43.8638 137.52 43.7548C137.504 43.709 137.474 43.6762 137.456 43.6457C137.378 43.5519 137.317 43.4581 137.238 43.3817C137.223 43.3512 137.207 43.3185 137.175 43.2879C137.081 43.1789 136.987 43.0851 136.893 42.976C136.863 42.9607 136.847 42.9302 136.817 42.9127C136.738 42.8342 136.662 42.7579 136.568 42.6793C136.537 42.6488 136.505 42.6161 136.474 42.6008C136.365 42.507 136.256 42.4307 136.147 42.3521C136.131 42.3521 136.131 42.3369 136.116 42.3369C136.007 42.2583 135.883 42.182 135.758 42.1187C135.712 42.0882 135.682 42.0729 135.649 42.0554C135.603 42.0249 135.555 42.0096 135.509 41.9922H135.961C137.271 41.9922 138.484 42.4917 139.403 43.4101C140.307 44.3132 140.82 45.5283 140.82 46.8349" fill="white"/>
<path d="M128.75 60.2115V43.6611C128.75 42.9914 128.438 42.385 127.971 41.9792L131.273 41.9945V60.2115C131.273 60.8812 131.585 61.4876 132.067 61.8781H127.971C128.438 61.4898 128.75 60.8812 128.75 60.2115Z" fill="white"/>
<path d="M91.4389 60.9576V41.9771H92.576V41.4775H89.6951V41.9771H90.926V60.4428C90.8016 60.3032 90.6925 60.1635 90.6292 60.0697C90.4109 59.6814 86.2051 50.0898 82.6846 41.9771C82.5449 41.6651 82.2481 41.4775 81.9055 41.4775H77.309L77.1998 41.9596C77.5425 42.1145 78.2125 42.4592 78.7887 42.8627V61.8738H77.6516V62.3886H80.5326V61.8738H79.3016V43.2685C79.4893 43.4408 79.629 43.5957 79.7054 43.7658C80.1267 44.5904 86.6853 59.0096 87.9926 61.889C88.1171 62.201 88.4292 62.3864 88.7565 62.3864H92.5739L92.6044 61.8716C92.4495 61.8411 91.9191 61.4048 91.4367 60.9532M88.7609 61.876C88.6212 61.876 88.5121 61.7996 88.4488 61.6884C87.1393 58.8089 80.5828 44.3745 80.1769 43.5346C79.88 42.9587 79.0397 42.3828 78.3544 41.9771H81.9055C82.0451 41.9771 82.1543 42.0534 82.2176 42.18C84.0095 46.305 89.898 59.8211 90.1927 60.3184C90.3651 60.6304 91.081 61.3786 91.7052 61.876H88.7609Z" fill="white"/>
<path d="M91.7052 61.8759H88.7609C88.6212 61.8759 88.5121 61.7996 88.4488 61.6883C87.1392 58.8089 80.5828 44.3744 80.1768 43.5346C79.88 42.9587 79.0397 42.3828 78.3544 41.9771H81.9054C82.0451 41.9771 82.1542 42.0534 82.2175 42.1799C84.0094 46.305 89.898 59.821 90.1926 60.3184C90.3651 60.6303 91.081 61.3786 91.7052 61.8759Z" fill="white"/>
<path d="M93.8069 41.4795V43.2704H94.322V41.979H100.211V61.8779H99.104V62.3927H104.977V61.8779H103.762V41.979H109.759V43.2704H110.274V41.4795H93.8091H93.8069ZM103.249 61.8757H100.726V41.9769H103.249V61.8757Z" fill="white"/>
<path d="M103.247 41.9792H100.724V61.8781H103.247V41.9792Z" fill="white"/>
<path d="M125.212 43.2704V41.4795H111.473V41.979H112.564V61.8779H111.473V62.3927H125.212V60.6018H124.699V61.8779H116.13V50.9796H122.658V52.055H123.173V49.4089H122.658V50.4822H116.13V41.9812H124.699V43.2726H125.212V43.2704ZM115.617 61.8757H113.079V41.9769H115.617V61.8757Z" fill="white"/>
<path d="M115.615 41.9792H113.077V61.8781H115.615V41.9792Z" fill="white"/>
<path d="M151.244 40.7183C146.429 40.7183 142.505 45.6701 142.505 51.7562C142.505 57.8424 146.431 62.8116 151.244 62.8116C156.056 62.8116 159.998 57.8598 159.998 51.7562C159.998 45.6526 156.071 40.7183 151.244 40.7183ZM143.004 51.7562C143.004 46.9309 145.56 42.8495 149.033 41.6214C147.04 43.3185 145.652 47.2254 145.652 51.7562C145.652 56.287 147.038 60.2114 149.033 61.9085C145.558 60.6629 143.004 56.599 143.004 51.7562ZM146.149 51.7562C146.149 45.9493 148.439 41.2309 151.244 41.2309C154.048 41.2309 156.353 45.9471 156.353 51.7562C156.353 57.5653 154.063 62.2968 151.244 62.2968C148.424 62.2968 146.149 57.5632 146.149 51.7562ZM153.472 61.9085C155.467 60.2114 156.853 56.3045 156.853 51.7562C156.853 47.208 155.467 43.3163 153.472 41.6214C156.931 42.8517 159.485 46.9309 159.485 51.7562C159.485 56.5815 156.931 60.6629 153.472 61.9085Z" fill="white"/>
<path d="M159.485 51.7562C159.485 56.5989 156.931 60.6629 153.472 61.9085C155.467 60.2114 156.853 56.3044 156.853 51.7562C156.853 47.2079 155.467 43.3163 153.472 41.6213C156.929 42.8517 159.485 46.9309 159.485 51.7562Z" fill="white"/>
<path d="M145.652 51.7562C145.652 56.3023 147.038 60.2114 149.033 61.9085C145.558 60.6629 143.004 56.5989 143.004 51.7562C143.004 46.9135 145.56 42.8495 149.033 41.6213C147.038 43.3185 145.652 47.2254 145.652 51.7562Z" fill="white"/>
<path d="M70.6782 20.7322C70.3618 20.7016 70.0693 20.6624 69.7878 20.6187C70.9533 24.65 74.6614 27.6015 79.0681 27.608L79.103 27.4749C79.4173 26.297 78.924 25.5509 78.7952 25.383L70.6761 20.7322H70.6782Z" fill="white"/>
<path d="M80.3056 13.5073C83.2302 12.9685 85.081 12.0523 86.1549 11.3412C84.387 9.44771 81.877 8.25884 79.0833 8.25884C74.046 8.25884 69.91 12.1047 69.4495 17.0194C70.6106 16.6246 71.9245 16.0181 73.09 15.0867C76.0059 12.7547 79.7577 13.4004 80.3056 13.5095" fill="white"/>
<path d="M83.6144 16.0814C83.2062 16.4304 82.8286 16.7533 82.5165 17.0456C82.128 17.4099 81.9447 17.7851 81.9731 18.1581C82.0167 18.7296 82.5427 19.1943 82.7217 19.3361C84.9108 19.5106 86.7529 20.0712 88.3069 20.8696C88.6015 19.9425 88.763 18.9565 88.763 17.9334C88.763 15.9265 88.1497 14.0614 87.1021 12.5148C86.2203 13.8476 84.817 15.0518 83.6122 16.0836" fill="white"/>
<path d="M80.0022 0C70.5538 0 62.8668 7.68295 62.8668 17.1263C62.8668 26.5696 70.5538 34.2526 80.0022 34.2526C89.4505 34.2526 97.1376 26.5696 97.1376 17.1263C97.1376 7.68295 89.4505 0 80.0022 0ZM64.8355 17.1263C64.8355 8.76711 71.6386 1.96764 80.0022 1.96764C88.3658 1.96764 95.1689 8.76711 95.1689 17.1263C95.1689 20.1977 94.2478 23.0554 92.672 25.4462C91.5611 23.9258 90.077 22.4839 88.0974 21.4542C86.5717 20.6536 84.7558 20.0996 82.5864 19.936L82.5034 19.9294L82.4358 19.888C82.3943 19.8596 81.4427 19.1965 81.3685 18.2039C81.327 17.6433 81.5736 17.1023 82.1018 16.6028C82.4249 16.3083 82.8068 15.9811 83.2171 15.6233C84.387 14.6242 85.8711 13.3372 86.7092 11.9847C86.7092 11.9847 86.9035 11.664 86.9777 11.5157C85.8471 12.2814 83.4921 13.5488 80.3558 14.1181L80.3012 14.1247L80.2401 14.1116C80.1986 14.105 76.3311 13.2761 73.4763 15.5622C72.1558 16.6158 70.6826 17.2659 69.4167 17.676C68.5895 17.9421 67.8496 18.1145 67.3084 18.2017C67.5681 18.2977 69.5608 18.5508 69.5608 18.5508L67.1447 19.2401C67.6314 19.467 68.4389 19.768 69.6306 19.973C69.9864 20.0341 70.3771 20.0887 70.807 20.1301L70.9292 20.1716L79.2274 24.9401C79.2689 24.9816 80.1113 25.9676 79.7075 27.5753C79.701 27.5949 79.701 27.6102 79.701 27.6298L79.6181 27.9178C79.2819 29.1481 78.9524 30.422 79.8952 32.2806C71.5818 32.2217 64.8377 25.4462 64.8377 17.1241" fill="white"/>
</g>
<defs>
<clipPath id="clip0_1002_392">
<rect width="160" height="67" fill="white"/>
</clipPath>
</defs>
</svg>
