<svg width="160" height="32" viewBox="0 0 160 32" fill="none" xmlns="http://www.w3.org/2000/svg">
<path d="M147.867 31.1114C146.492 31.1114 145.267 30.8729 144.192 30.396C143.116 29.9097 142.265 29.1944 141.639 28.2499C141.022 27.2961 140.713 26.1085 140.713 24.6871C140.713 23.4901 140.933 22.4849 141.372 21.6713C141.812 20.8578 142.41 20.2032 143.168 19.7076C143.925 19.212 144.786 18.8379 145.749 18.5854C146.721 18.333 147.741 18.1553 148.807 18.0524C150.06 17.9215 151.07 17.7999 151.836 17.6877C152.603 17.5662 153.16 17.3885 153.506 17.1547C153.852 16.9209 154.025 16.5749 154.025 16.1167V16.0326C154.025 15.1442 153.744 14.4569 153.183 13.9706C152.631 13.4844 151.846 13.2412 150.826 13.2412C149.751 13.2412 148.895 13.4797 148.26 13.9566C147.624 14.4242 147.203 15.0133 146.997 15.724L141.471 15.2751C141.751 13.966 142.303 12.8345 143.126 11.8806C143.949 10.9175 145.01 10.1787 146.31 9.6644C147.619 9.14074 149.134 8.87891 150.854 8.87891C152.051 8.87891 153.197 9.01917 154.291 9.29971C155.395 9.58024 156.372 10.0151 157.223 10.6042C158.083 11.1933 158.761 11.9508 159.257 12.8765C159.752 13.793 160 14.8917 160 16.1728V30.7046H154.333V27.7169H154.165C153.819 28.3902 153.356 28.984 152.776 29.4983C152.196 30.0032 151.5 30.4007 150.686 30.6905C149.873 30.9711 148.933 31.1114 147.867 31.1114ZM149.578 26.9875C150.457 26.9875 151.233 26.8145 151.907 26.4685C152.58 26.1131 153.108 25.6362 153.492 25.0378C153.875 24.4393 154.067 23.7613 154.067 23.0039V20.7175C153.88 20.8391 153.622 20.9513 153.295 21.0542C152.977 21.1477 152.617 21.2365 152.215 21.3207C151.813 21.3955 151.411 21.4656 151.009 21.5311C150.607 21.5872 150.242 21.6386 149.915 21.6854C149.213 21.7882 148.601 21.9519 148.077 22.1763C147.554 22.4007 147.147 22.7046 146.857 23.088C146.567 23.4621 146.422 23.9296 146.422 24.4907C146.422 25.3043 146.717 25.9261 147.306 26.3563C147.904 26.7771 148.662 26.9875 149.578 26.9875Z" fill="white"/>
<path d="M128.275 31.1254C126.068 31.1254 124.17 30.6578 122.58 29.7227C121 28.7782 119.784 27.4691 118.933 25.7952C118.091 24.1213 117.671 22.195 117.671 20.0162C117.671 17.8093 118.096 15.8736 118.947 14.2091C119.807 12.5352 121.028 11.2307 122.608 10.2956C124.188 9.35114 126.068 8.87891 128.247 8.87891C130.126 8.87891 131.772 9.22022 133.184 9.90286C134.596 10.5855 135.714 11.544 136.537 12.7784C137.36 14.0127 137.813 15.4621 137.897 17.1267H132.259C132.1 16.0513 131.679 15.1863 130.996 14.5317C130.323 13.8678 129.439 13.5358 128.345 13.5358C127.419 13.5358 126.61 13.7883 125.918 14.2932C125.236 14.7889 124.703 15.5136 124.319 16.4674C123.936 17.4212 123.744 18.5761 123.744 19.932C123.744 21.3066 123.931 22.4755 124.305 23.4387C124.689 24.4019 125.226 25.1359 125.918 25.6409C126.61 26.1459 127.419 26.3984 128.345 26.3984C129.028 26.3984 129.64 26.2581 130.183 25.9776C130.734 25.697 131.188 25.2902 131.543 24.7572C131.908 24.2149 132.146 23.5649 132.259 22.8075H137.897C137.804 24.4533 137.355 25.9027 136.551 27.1558C135.756 28.3995 134.657 29.372 133.254 30.0734C131.852 30.7747 130.192 31.1254 128.275 31.1254Z" fill="white"/>
<path d="M107.778 30.7047V9.15952H113.754V30.7047H107.778ZM110.78 6.38221C109.892 6.38221 109.129 6.08765 108.494 5.49852C107.867 4.90005 107.554 4.18468 107.554 3.35243C107.554 2.52952 107.867 1.82351 108.494 1.23438C109.129 0.635908 109.892 0.33667 110.78 0.33667C111.668 0.33667 112.426 0.635908 113.052 1.23438C113.688 1.82351 114.006 2.52952 114.006 3.35243C114.006 4.18468 113.688 4.90005 113.052 5.49852C112.426 6.08765 111.668 6.38221 110.78 6.38221Z" fill="white"/>
<path d="M103.886 9.15941V13.648H90.9111V9.15941H103.886ZM93.8568 3.99756H99.8322V24.0839C99.8322 24.6356 99.9163 25.0658 100.085 25.3744C100.253 25.6736 100.487 25.884 100.786 26.0056C101.095 26.1271 101.45 26.1879 101.852 26.1879C102.133 26.1879 102.413 26.1646 102.694 26.1178C102.974 26.0617 103.189 26.0196 103.339 25.9916L104.279 30.438C103.979 30.5316 103.559 30.6391 103.016 30.7607C102.474 30.8916 101.815 30.9711 101.038 30.9991C99.5984 31.0552 98.336 30.8635 97.2512 30.424C96.1759 29.9845 95.3389 29.3019 94.7404 28.3761C94.142 27.4503 93.8474 26.2814 93.8568 24.8694V3.99756Z" fill="white"/>
<path d="M78.6376 31.1254C76.4214 31.1254 74.5138 30.6766 72.9147 29.7789C71.325 28.8718 70.1 27.5907 69.2397 25.9355C68.3794 24.271 67.9492 22.3026 67.9492 20.0302C67.9492 17.814 68.3794 15.869 69.2397 14.1951C70.1 12.5212 71.311 11.2167 72.8726 10.2816C74.4436 9.34651 76.2858 8.87895 78.3992 8.87895C79.8206 8.87895 81.1437 9.10806 82.3687 9.56626C83.6031 10.0151 84.6785 10.6931 85.5949 11.6001C86.5207 12.5072 87.2407 13.6481 87.755 15.0227C88.2694 16.388 88.5265 17.987 88.5265 19.8198V21.461H70.3338V17.7579H82.9018C82.9018 16.8976 82.7147 16.1355 82.3407 15.4715C81.9667 14.8076 81.4477 14.2886 80.7837 13.9146C80.1291 13.5312 79.367 13.3395 78.4974 13.3395C77.5903 13.3395 76.7861 13.5499 76.0848 13.9707C75.3928 14.3821 74.8504 14.9385 74.4576 15.6399C74.0649 16.3318 73.8638 17.1033 73.8545 17.9543V21.475C73.8545 22.541 74.0509 23.4621 74.4436 24.2383C74.8457 25.0144 75.4115 25.6129 76.1409 26.0337C76.8703 26.4545 77.7352 26.6649 78.7358 26.6649C79.3998 26.6649 80.0076 26.5714 80.5593 26.3844C81.111 26.1974 81.5833 25.9168 81.976 25.5428C82.3688 25.1687 82.668 24.7105 82.8737 24.1681L88.4003 24.5328C88.1197 25.8607 87.5446 27.0203 86.675 28.0115C85.8147 28.9934 84.7019 29.7602 83.3366 30.3119C81.9807 30.8542 80.4144 31.1254 78.6376 31.1254ZM76.1128 6.38219L79.0865 0H84.613L80.3349 6.38219H76.1128Z" fill="white"/>
<path d="M55.3706 31.1254C53.1637 31.1254 51.2654 30.6578 49.6757 29.7227C48.0954 28.7782 46.8797 27.4691 46.0288 25.7952C45.1872 24.1213 44.7664 22.195 44.7664 20.0162C44.7664 17.8093 45.1918 15.8736 46.0428 14.2091C46.9031 12.5352 48.1234 11.2307 49.7038 10.2956C51.2841 9.35114 53.1637 8.87891 55.3426 8.87891C57.2221 8.87891 58.8679 9.22022 60.28 9.90286C61.692 10.5855 62.8095 11.544 63.6324 12.7784C64.4553 14.0127 64.9088 15.4621 64.993 17.1267H59.3542C59.1952 16.0513 58.7744 15.1863 58.0918 14.5317C57.4185 13.8678 56.5348 13.5358 55.4407 13.5358C54.515 13.5358 53.7061 13.7883 53.0141 14.2932C52.3315 14.7889 51.7984 15.5136 51.415 16.4674C51.0317 17.4212 50.84 18.5761 50.84 19.932C50.84 21.3066 51.027 22.4755 51.401 23.4387C51.7844 24.4019 52.3221 25.1359 53.0141 25.6409C53.7061 26.1459 54.515 26.3984 55.4407 26.3984C56.1234 26.3984 56.7359 26.2581 57.2782 25.9776C57.83 25.697 58.2835 25.2902 58.6388 24.7572C59.0035 24.2149 59.242 23.5649 59.3542 22.8075H64.993C64.8995 24.4533 64.4506 25.9027 63.6464 27.1558C62.8516 28.3995 61.7528 29.372 60.3501 30.0734C58.9474 30.7747 57.2876 31.1254 55.3706 31.1254Z" fill="white"/>
<path d="M28.867 31.1114C27.4924 31.1114 26.2674 30.8729 25.192 30.396C24.1166 29.9097 23.2657 29.1944 22.6391 28.2499C22.022 27.2961 21.7134 26.1085 21.7134 24.6871C21.7134 23.4901 21.9331 22.4849 22.3726 21.6713C22.8121 20.8578 23.4106 20.2032 24.1681 19.7076C24.9255 19.212 25.7858 18.8379 26.749 18.5854C27.7215 18.333 28.7408 18.1553 29.8068 18.0524C31.0599 17.9215 32.0698 17.7999 32.8366 17.6877C33.6034 17.5662 34.1598 17.3885 34.5058 17.1547C34.8518 16.9209 35.0248 16.5749 35.0248 16.1167V16.0326C35.0248 15.1442 34.7443 14.4569 34.1832 13.9706C33.6315 13.4844 32.846 13.2412 31.8267 13.2412C30.7513 13.2412 29.8957 13.4797 29.2598 13.9566C28.6239 14.4242 28.2031 15.0133 27.9974 15.724L22.4708 15.2751C22.7514 13.966 23.3031 12.8345 24.126 11.8806C24.9489 10.9175 26.0103 10.1787 27.3101 9.6644C28.6192 9.14074 30.1341 8.87891 31.8547 8.87891C33.0517 8.87891 34.1972 9.01917 35.2913 9.29971C36.3947 9.58024 37.3719 10.0151 38.2229 10.6042C39.0832 11.1933 39.7612 11.9508 40.2568 12.8765C40.7524 13.793 41.0002 14.8917 41.0002 16.1728V30.7046H35.3334V27.7169H35.1651C34.8191 28.3902 34.3562 28.984 33.7764 29.4983C33.1966 30.0032 32.5 30.4007 31.6864 30.6905C30.8729 30.9711 29.9331 31.1114 28.867 31.1114ZM30.5783 26.9875C31.4573 26.9875 32.2335 26.8145 32.9067 26.4685C33.58 26.1131 34.1084 25.6362 34.4918 25.0378C34.8752 24.4393 35.0669 23.7613 35.0669 23.0039V20.7175C34.8799 20.8391 34.6227 20.9513 34.2954 21.0542C33.9775 21.1477 33.6174 21.2365 33.2153 21.3207C32.8132 21.3955 32.4111 21.4656 32.009 21.5311C31.6069 21.5872 31.2422 21.6386 30.9149 21.6854C30.2136 21.7882 29.6011 21.9519 29.0774 22.1763C28.5538 22.4007 28.147 22.7046 27.8571 23.088C27.5672 23.4621 27.4223 23.9296 27.4223 24.4907C27.4223 25.3043 27.7168 25.9261 28.306 26.3563C28.9044 26.7771 29.6619 26.9875 30.5783 26.9875Z" fill="white"/>
<path d="M0 30.7046V1.97778H19.0203V6.98534H6.0736V13.8304H17.7579V18.838H6.0736V30.7046H0Z" fill="white"/>
</svg>
