<svg width="160" height="71" viewBox="0 0 160 71" fill="none" xmlns="http://www.w3.org/2000/svg">
<path d="M98.7401 48.475C98.4126 48.4318 98.5629 48.9073 98.5522 49.1343C98.3536 54.2358 98.724 59.3859 98.3697 64.4765C98.2945 65.5195 98.1871 67.6109 97.5268 68.3567C96.5873 69.4159 95.3633 69.243 94.2413 68.6161C91.9651 67.3407 92.0457 65.9465 91.7826 63.52C91.337 59.4453 91.3478 55.3004 91.2243 51.2095C91.0579 45.5244 90.5103 38.2666 91.2404 32.6896C91.8148 28.2907 94.193 31.0792 96.3887 32.3816C101 28.4798 108.119 32.9814 106.739 38.8233C106.224 40.9903 104.651 42.752 103.067 44.2166C102.67 44.584 101.381 45.2541 101.376 45.7243L110.685 65.8816C111.34 68.0541 108.693 69.3565 107.421 67.465L98.7401 48.475ZM98.3697 42.7953C100.007 42.4548 102.756 39.8663 103.169 38.2612C103.958 35.2133 100.12 33.1597 98.214 35.7375L98.3697 42.8007V42.7953Z" fill="white"/>
<path d="M81.2497 53.7764L75.0706 54.9275C74.7217 58.6239 74.1848 62.2987 73.7392 65.9843C73.605 67.0813 73.9164 68.3405 73.0628 69.2754C72.5045 69.8861 71.2644 70.1941 70.4591 70.2482C69.8847 70.286 67.7803 70.1617 67.2918 70.0158C66.6583 69.832 66.5724 68.6107 66.5885 68.0595C66.8032 59.9966 68.3386 50.2422 69.4499 42.1576C69.9276 38.6666 70.3249 34.1974 71.2053 30.8684C71.3664 30.2578 71.5435 29.2688 72.2361 29.0527C74.5069 29.3175 77.5884 30.6955 78.5386 32.9598L88.7762 67.8974C89.1252 69.7834 86.9134 70.6156 85.8075 69.1781L81.2604 53.7818L81.2497 53.7764ZM75.6182 51.5013C76.2839 51.2798 80.2243 50.842 80.3102 50.4475L77.1214 39.5799L75.6182 51.5013Z" fill="white"/>
<path d="M128.621 53.6035L122.64 54.5492C122.291 58.2456 121.755 61.9204 121.309 65.606C121.175 66.703 121.486 67.9622 120.633 68.8971C120.074 69.5078 118.834 69.8158 118.029 69.8698C117.454 69.9076 115.35 69.7834 114.861 69.6375C114.228 69.4537 114.142 68.2324 114.158 67.6812C114.373 59.6182 115.908 49.8638 117.02 41.7793C117.497 38.2882 117.895 33.819 118.775 30.4901C118.936 29.8795 119.113 28.8905 119.806 28.6743C122.066 28.9337 125.169 30.3226 126.108 32.5815L135.6 66.5733C135.444 68.2486 133.608 68.9944 132.556 67.5461L128.632 53.6089L128.621 53.6035ZM127.51 50.361L124.509 39.3907L123.193 51.123L127.515 50.361H127.51Z" fill="white"/>
<path d="M0.256258 70.1995C-0.355743 69.5996 0.304574 65.2007 0.428048 64.1199C1.29237 56.4947 2.67742 48.4371 4.03564 40.8714C4.54027 38.0451 5.10932 33.1381 6.09174 30.6414C6.32796 30.0362 6.64469 29.5822 7.38016 29.6471C9.15712 29.8092 12.2171 31.7763 13.0063 33.4191L21.3757 66.0707C21.8696 67.692 20.9247 69.0322 19.1907 68.4594C18.525 68.2378 18.321 67.2867 18.1278 66.6922C16.8877 62.9256 16.3616 58.5861 15.0785 54.8086L8.94775 55.6678L6.93996 68.789C6.93996 71.1668 1.00784 70.9452 0.256258 70.2103V70.1995ZM14.3162 51.5013L11.3099 40.3364L9.61344 52.0741L14.3162 51.5067V51.5013Z" fill="white"/>
<path d="M35.1779 33.3381C33.1433 33.657 32.1609 36.5374 31.9944 38.3477C31.6347 42.2279 31.93 47.2537 32.1823 51.2149C32.3702 54.2358 32.6279 59.6885 33.4385 62.4446C34.0452 64.4928 36.359 65.3737 37.7172 63.6065C39.1828 61.6989 39.1559 56.3326 39.5263 53.8791C39.7518 52.3822 42.2428 52.1228 42.5112 53.8791C42.9246 56.5488 41.7703 62.5635 40.7289 65.1251C38.56 70.4589 34.9202 73.0961 29.7504 68.9944C23.8827 64.3415 24.6934 57.4566 24.8544 50.6583C25.0101 44.1409 24.4142 32.7437 31.8602 30.0794C34.0183 29.3067 36.8045 30.3983 37.7709 32.5329C38.4365 34.0082 39.5532 39.4448 38.9949 40.8552C38.5439 41.9955 36.9495 41.9739 36.461 40.8552L35.1833 33.3381H35.1779Z" fill="white"/>
<path d="M53.613 66.8381C54.8316 66.7895 56.0717 66.8976 57.2904 66.8435C58.8043 66.7733 62.0253 65.7195 62.2615 68.0865C62.3367 68.8377 61.8428 69.324 61.3167 69.7672C58.4553 70.2049 55.4705 70.3724 52.5715 70.2535C51.632 70.2157 50.3275 70.1346 49.4095 70.032C46.6501 69.7293 46.5106 68.7188 46.1187 66.1518C45.0772 59.2508 45.5496 51.0149 45.9039 44.0274C46.0757 40.585 46.0542 37.0723 46.7199 33.6785C46.9078 32.7274 46.9025 31.6358 48.0835 31.4521C49.8068 31.1819 53.4573 31.4196 53.7955 33.6299C53.9942 34.9377 53.8599 37.5047 53.817 38.9259C53.5969 45.9783 53.2104 52.22 53.4412 59.3535C53.5217 61.8447 53.57 64.3468 53.6184 66.8381H53.613Z" fill="white"/>
<path d="M142.557 37.683C142.6 34.3486 142.01 30.9711 140.711 27.9015C137.409 20.1034 128.674 14.8398 120.37 17.9958L119.435 14.4075C134.123 9.52759 147.04 23.2973 146.133 37.683H142.557Z" fill="white"/>
<path d="M158.695 27.1288C160.606 27.0477 160.241 28.9229 158.743 29.2742C157.75 29.5066 153.423 29.8416 153.106 28.6581L153.273 28.1177C153.498 27.907 158.072 27.1504 158.695 27.1234V27.1288Z" fill="white"/>
<path d="M147.947 5.34486L148.489 5.50158C148.801 5.94472 147.077 9.18718 146.729 9.79784C146.229 10.6625 145.859 11.7974 144.624 11.2786C142.874 10.2356 147.024 6.00416 147.947 5.34486Z" fill="white"/>
<path d="M150.642 19.7035C150.073 19.1469 153.359 16.9745 153.783 16.7151C154.416 16.3314 155.42 15.5478 156.145 15.7585C156.741 15.9315 156.805 16.9366 156.564 17.4338C156.193 18.2012 151.109 20.1575 150.642 19.7035Z" fill="white"/>
<path d="M138.794 0.205534C139.057 0.821602 138.864 1.32418 138.74 1.94565C138.563 2.83733 137.624 6.42026 136.91 6.7391C136.292 7.02012 135.659 6.38243 135.6 5.76636C135.514 4.84226 136.979 1.94025 137.586 1.16206C137.747 0.956705 138.536 0.01099 138.789 0.200134L138.794 0.205534Z" fill="white"/>
<path d="M123.966 0.0433973C126.012 -0.388931 125.877 2.51847 125.818 3.89652C125.802 4.33425 125.534 6.82555 125.163 6.82555C124.229 6.18786 123.349 0.427083 123.966 0.0379872V0.0433973Z" fill="white"/>
</svg>
