<svg width="160" height="21" viewBox="0 0 160 21" fill="none" xmlns="http://www.w3.org/2000/svg">
<path d="M7.51552 18.8206C8.27981 18.8206 8.91672 17.1647 8.91672 16.1456H9.29886V20.7314H0V18.8206H1.14644V2.3884H0V0.0955334H4.2036V2.3884H3.05716V18.8206H7.51552Z" fill="white"/>
<path d="M16.1775 2.3884V18.8206H14.9037V20.7314H24.2025V16.1456H23.8204C23.8204 17.1647 23.1835 18.8206 22.4192 18.8206H18.0882V10.4135C19.8206 10.3115 20.8481 12.2393 21.1454 13.2159H21.4001V7.10153L21.1454 7.10153C20.8481 8.07812 19.8206 10.0058 18.0882 9.90393V2.3884H21.6549C22.6103 2.57948 22.9287 4.36282 22.9287 5.31818H23.4382V0.0955334H14.9037V2.3884H16.1775Z" fill="white"/>
<path d="M40.4437 0.127379C38.9788 0.318448 37.5725 1.60478 37.5776 3.37561V17.4513C37.5725 19.2221 38.9788 20.5085 40.4437 20.6995H42.4181C43.8193 20.5085 45.1367 18.9298 45.2218 17.4513V14.7188L44.3925 15.6043C44.1971 15.8107 43.4372 16.5596 43.4372 16.5596L43.4372 17.4513C43.3878 18.2083 43.1824 18.5977 42.0997 18.9799H40.7622C39.6157 18.5977 39.3602 17.9421 39.361 17.4513V3.37561C39.3602 2.88482 39.6157 2.22917 40.7622 1.84703H42.0997C43.1824 2.22917 43.3878 2.61866 43.4372 3.37561L43.4372 4.26728C43.4372 4.26728 44.1971 5.01622 44.3925 5.22265L45.2218 6.10806V3.37561C45.1367 1.8971 43.8193 0.318451 42.4181 0.127379H40.4437Z" fill="white"/>
<path d="M55.2946 20.8269H53.8298C52.4342 20.3305 50.8402 19.5355 50.8385 17.8158L50.8266 3.36766C50.8249 1.1908 52.9381 -2.90699e-06 53.5113 0C54.0845 2.907e-06 55.5494 0 55.5494 0C57.7149 0.700599 58.2565 2.46384 58.2565 3.285V17.8977C57.7786 19.6168 56.7004 20.4277 55.2946 20.8269ZM56.6587 17.3637L56.6519 3.40349C56.6519 2.60167 56.0943 2.00286 55.3498 1.88344C54.8501 1.80496 54.3044 1.79472 53.786 1.87832C53.1112 1.9858 52.489 2.64431 52.489 3.40861V17.4132C52.4907 17.9199 52.7576 18.5016 53.0466 18.7217C53.7792 19.2813 55.4212 19.2557 56.096 18.7302C56.3833 18.505 56.657 17.9506 56.657 17.3637H56.6587Z" fill="white"/>
<path d="M65.8994 20.7314H69.3387V18.8206H68.5744V2.3884H69.7209C70.8673 2.83424 70.9947 5.31818 70.9947 5.31818H71.3768V0.0955334H63.8613L63.8613 2.06995C63.8613 2.06995 63.8647 3.86467 63.8613 5.31818H64.3708C64.3708 4.10806 64.6256 3.02531 65.5173 2.3884H66.6637V18.8206H65.8994V20.7314Z" fill="white"/>
<path d="M81.4497 20.8269H79.9848C78.5892 20.3305 76.9952 19.5355 76.9935 17.8158L76.9816 3.36766C76.9799 1.1908 79.0931 -2.90699e-06 79.6663 0C80.2395 2.907e-06 81.7044 0 81.7044 0C83.8699 0.700599 84.4115 2.46384 84.4115 3.285V17.8977C83.9336 19.6168 82.8554 20.4277 81.4497 20.8269ZM82.8137 17.3637L82.8069 3.40349C82.8069 2.60167 82.2493 2.00286 81.5048 1.88344C81.0051 1.80496 80.4594 1.79472 79.941 1.87832C79.2662 1.9858 78.644 2.64431 78.644 3.40861V17.4132C78.6457 17.9199 78.9126 18.5016 79.2016 18.7217C79.9342 19.2813 81.5762 19.2557 82.251 18.7302C82.5383 18.505 82.812 17.9506 82.812 17.3637H82.8137Z" fill="white"/>
<path d="M99.8884 20.7314H97.8503L92.8036 5.97557V18.8206H93.7104V20.7314H90.2711V18.8206H90.908V2.37931H90.0163V0.0955334H93.583V2.00626L97.2771 11.8147V2.3884H96.0033V0.0955334H99.5699V2.29742H98.6783V18.8206H99.8247L99.8884 20.7314Z" fill="white"/>
<path d="M115.365 20.7314H113.327L108.28 5.97557V18.8206H109.187V20.7314H105.748V18.8206H106.385V2.37931H105.493V0.0955334H109.06V2.00626L112.754 11.8147V2.3884H111.48V0.0955334H115.047V2.29742H114.155V18.8206H115.302L115.365 20.7314Z" fill="white"/>
<path d="M124.664 20.7314H120.97V18.8206H121.862V2.41513H120.97V0.0955334H124.664V2.41513H123.772V18.8206H124.664V20.7314Z" fill="white"/>
<path d="M131.543 2.3884V18.8206H130.269V20.7314H139.568V16.1456H139.186C139.186 17.1647 138.549 18.8206 137.784 18.8206H133.453V10.4135C135.186 10.3115 136.213 12.2393 136.511 13.2159H136.765V7.10153L136.511 7.10153C136.213 8.07812 135.186 10.0058 133.453 9.90393V2.3884H137.02C137.976 2.57948 138.294 4.36282 138.294 5.31818H138.804V0.0955334H130.269V2.3884H131.543Z" fill="white"/>
<path d="M155.236 20.6695L152.815 20.6695L148.166 12.9629V18.7588H149.382V20.6695H145.173V18.7588H146.192V2.35836H145.299L145.305 0.172968L147.588 0.157614C150.838 0.135436 153.911 1.949 154.112 5.57418C154.277 8.54604 152.164 10.4534 149.628 11.407L153.452 18.7588H155.236V20.6695ZM151.573 8.60916C152.927 7.09594 152.883 4.60858 151.554 3.13801C150.709 2.20311 149.429 1.9165 148.222 1.83803L148.227 10.1036C149.458 9.9842 150.677 9.61059 151.571 8.60916H151.573Z" fill="white"/>
<path d="M157.959 19.9981V18.6033H158.666C158.722 18.6033 158.784 18.6196 158.851 18.6524C158.918 18.6839 158.974 18.733 159.021 18.7998C159.069 18.8653 159.093 18.9485 159.093 19.0493C159.093 19.1514 159.068 19.2383 159.019 19.3101C158.97 19.3807 158.91 19.4343 158.84 19.4708C158.77 19.5073 158.705 19.5256 158.643 19.5256H158.133V19.2988H158.548C158.59 19.2988 158.635 19.278 158.683 19.2364C158.732 19.1948 158.756 19.1325 158.756 19.0493C158.756 18.9636 158.732 18.9057 158.683 18.8754C158.635 18.8452 158.593 18.8301 158.556 18.8301H158.265V19.9981H157.959ZM158.802 19.3404L159.15 19.9981H158.813L158.473 19.3404H158.802ZM158.488 20.8297C158.279 20.8297 158.083 20.7907 157.9 20.7126C157.717 20.6344 157.557 20.5261 157.418 20.3875C157.28 20.2489 157.171 20.0882 157.093 19.9055C157.015 19.7228 156.976 19.5269 156.976 19.3177C156.976 19.1085 157.015 18.9126 157.093 18.7299C157.171 18.5472 157.28 18.3865 157.418 18.2479C157.557 18.1093 157.717 18.001 157.9 17.9228C158.083 17.8447 158.279 17.8057 158.488 17.8057C158.697 17.8057 158.893 17.8447 159.076 17.9228C159.258 18.001 159.419 18.1093 159.558 18.2479C159.696 18.3865 159.805 18.5472 159.883 18.7299C159.961 18.9126 160 19.1085 160 19.3177C160 19.5269 159.961 19.7228 159.883 19.9055C159.805 20.0882 159.696 20.2489 159.558 20.3875C159.419 20.5261 159.258 20.6344 159.076 20.7126C158.893 20.7907 158.697 20.8297 158.488 20.8297ZM158.488 20.4668C158.7 20.4668 158.892 20.4152 159.066 20.3119C159.24 20.2085 159.379 20.0699 159.482 19.8961C159.585 19.7222 159.637 19.5294 159.637 19.3177C159.637 19.106 159.585 18.9132 159.482 18.7393C159.379 18.5655 159.24 18.4269 159.066 18.3235C158.892 18.2202 158.7 18.1686 158.488 18.1686C158.276 18.1686 158.084 18.2202 157.91 18.3235C157.736 18.4269 157.597 18.5655 157.494 18.7393C157.391 18.9132 157.339 19.106 157.339 19.3177C157.339 19.5294 157.391 19.7222 157.494 19.8961C157.597 20.0699 157.736 20.2085 157.91 20.3119C158.084 20.4152 158.276 20.4668 158.488 20.4668Z" fill="white"/>
</svg>
