<svg width="124" height="59" viewBox="0 0 124 59" fill="none" xmlns="http://www.w3.org/2000/svg">
<circle cx="109.5" cy="26.5" r="10.5" fill="#E5FF3C"/>
<path d="M108.917 40.3845C106.45 40.3845 104.226 39.8077 102.246 38.6541C100.3 37.5004 98.7536 35.8923 97.6069 33.8298C96.495 31.7323 95.939 29.3201 95.939 26.5934C95.939 23.7967 96.5123 21.3671 97.659 19.3045C98.8057 17.207 100.369 15.5815 102.35 14.4278C104.331 13.2742 106.555 12.6974 109.022 12.6974C111.523 12.6974 113.747 13.2742 115.693 14.4278C117.639 15.5815 119.168 17.1896 120.28 19.2521C121.427 21.3147 122 23.7443 122 26.5409C122 29.3376 121.427 31.7672 120.28 33.8298C119.168 35.8923 117.622 37.5004 115.641 38.6541C113.66 39.8077 111.419 40.3845 108.917 40.3845ZM108.917 35.8749C110.342 35.8749 111.628 35.5253 112.774 34.8261C113.956 34.1269 114.894 33.0957 115.589 31.7323C116.319 30.3339 116.684 28.6035 116.684 26.5409C116.684 24.4784 116.336 22.7654 115.641 21.402C114.946 20.0037 114.008 18.955 112.827 18.2558C111.68 17.5566 110.412 17.207 109.022 17.207C107.632 17.207 106.346 17.5566 105.165 18.2558C103.983 18.955 103.028 20.0037 102.298 21.402C101.603 22.7654 101.255 24.4784 101.255 26.5409C101.255 28.6035 101.603 30.3339 102.298 31.7323C103.028 33.0957 103.966 34.1269 105.112 34.8261C106.294 35.5253 107.562 35.8749 108.917 35.8749Z" fill="#0B2234"/>
<path d="M75.4684 40.3844C72.9666 40.3844 70.7601 39.7901 68.8489 38.6015C66.9378 37.378 65.4436 35.7349 64.3664 33.6724C63.324 31.5749 62.8028 29.1977 62.8028 26.5409C62.8028 23.849 63.324 21.4719 64.3664 19.4093C65.4436 17.3468 66.9378 15.7212 68.8489 14.5326C70.7948 13.3091 73.0187 12.6973 75.5205 12.6973C77.5707 12.6973 79.3776 13.1168 80.9412 13.9558C82.5049 14.7598 83.7211 15.9135 84.5898 17.4167V2H89.802V39.7552H85.111L84.5898 35.665C84.0685 36.4691 83.391 37.2381 82.557 37.9723C81.7231 38.6714 80.7154 39.2483 79.5339 39.7027C78.3525 40.1572 76.9973 40.3844 75.4684 40.3844ZM76.3024 35.8223C77.9355 35.8223 79.3776 35.4378 80.6285 34.6687C81.8794 33.8996 82.835 32.8159 83.4952 31.4176C84.1902 30.0192 84.5376 28.3937 84.5376 26.5409C84.5376 24.6881 84.1902 23.08 83.4952 21.7166C82.835 20.3182 81.8794 19.2345 80.6285 18.4654C79.3776 17.6614 77.9355 17.2594 76.3024 17.2594C74.7387 17.2594 73.3314 17.6614 72.0805 18.4654C70.8296 19.2345 69.8566 20.3182 69.1616 21.7166C68.4667 23.08 68.1192 24.6881 68.1192 26.5409C68.1192 28.3937 68.4667 30.0192 69.1616 31.4176C69.8566 32.8159 70.8296 33.8996 72.0805 34.6687C73.3314 35.4378 74.7387 35.8223 76.3024 35.8223Z" fill="#0B2234"/>
<path d="M44.5792 40.3845C42.1121 40.3845 39.8882 39.8077 37.9076 38.6541C35.9617 37.5004 34.4154 35.8923 33.2687 33.8298C32.1568 31.7323 31.6008 29.3201 31.6008 26.5934C31.6008 23.7967 32.1742 21.3671 33.3209 19.3045C34.4675 17.207 36.0312 15.5815 38.0118 14.4278C39.9925 13.2742 42.2163 12.6974 44.6835 12.6974C47.1853 12.6974 49.4092 13.2742 51.3551 14.4278C53.301 15.5815 54.8299 17.1896 55.9418 19.2521C57.0885 21.3147 57.6618 23.7443 57.6618 26.5409C57.6618 29.3376 57.0885 31.7672 55.9418 33.8298C54.8299 35.8923 53.2836 37.5004 51.303 38.6541C49.3223 39.8077 47.0811 40.3845 44.5792 40.3845ZM44.5792 35.8749C46.0039 35.8749 47.2896 35.5253 48.4362 34.8261C49.6177 34.1269 50.5559 33.0957 51.2508 31.7323C51.9805 30.3339 52.3454 28.6035 52.3454 26.5409C52.3454 24.4784 51.9979 22.7654 51.303 21.402C50.608 20.0037 49.6698 18.955 48.4884 18.2558C47.3417 17.5566 46.0734 17.207 44.6835 17.207C43.2935 17.207 42.0079 17.5566 40.8264 18.2558C39.645 18.955 38.6894 20.0037 37.9597 21.402C37.2648 22.7654 36.9173 24.4784 36.9173 26.5409C36.9173 28.6035 37.2648 30.3339 37.9597 31.7323C38.6894 33.0957 39.6276 34.1269 40.7743 34.8261C41.9557 35.5253 43.224 35.8749 44.5792 35.8749Z" fill="#0B2234"/>
<path d="M2 39.7553V13.3266H6.69098L7.00371 17.8363C7.83766 16.2632 9.0191 15.0221 10.548 14.1132C12.0769 13.1693 13.8317 12.6974 15.8123 12.6974C17.8972 12.6974 19.6867 13.1169 21.1809 13.9559C22.6751 14.7949 23.8391 16.0709 24.6731 17.7838C25.507 19.4619 25.924 21.5768 25.924 24.1288V39.7553H20.7118V24.6532C20.7118 22.2061 20.1732 20.3533 19.096 19.0948C18.0188 17.8363 16.4552 17.207 14.405 17.207C13.0499 17.207 11.8337 17.5391 10.7565 18.2033C9.67931 18.8326 8.81061 19.7765 8.1504 21.035C7.52493 22.2935 7.2122 23.8317 7.2122 25.6495V39.7553H2Z" fill="#0B2234"/>
<path d="M119.54 54.0736C119.059 54.0736 118.633 53.9616 118.263 53.7375C117.893 53.5134 117.604 53.1983 117.395 52.7921C117.185 52.3789 117.081 51.8957 117.081 51.3425C117.081 50.7823 117.185 50.2991 117.395 49.893C117.604 49.4868 117.893 49.1717 118.263 48.9476C118.633 48.7235 119.059 48.6115 119.54 48.6115C120.022 48.6115 120.447 48.7235 120.817 48.9476C121.187 49.1717 121.477 49.4868 121.686 49.893C121.895 50.2991 122 50.7823 122 51.3425C122 51.8957 121.895 52.3789 121.686 52.7921C121.477 53.1983 121.187 53.5134 120.817 53.7375C120.447 53.9616 120.022 54.0736 119.54 54.0736ZM119.54 53.3803C119.861 53.3803 120.147 53.3068 120.399 53.1597C120.657 53.0127 120.863 52.7886 121.016 52.4875C121.17 52.1864 121.246 51.8047 121.246 51.3425C121.246 50.8733 121.17 50.4917 121.016 50.1976C120.863 49.8965 120.657 49.6724 120.399 49.5253C120.147 49.3783 119.861 49.3047 119.54 49.3047C119.226 49.3047 118.94 49.3783 118.682 49.5253C118.424 49.6724 118.218 49.8965 118.064 50.1976C117.911 50.4917 117.834 50.8733 117.834 51.3425C117.834 51.8047 117.911 52.1864 118.064 52.4875C118.218 52.7886 118.424 53.0127 118.682 53.1597C118.94 53.3068 119.226 53.3803 119.54 53.3803Z" fill="#0B2234"/>
<path d="M111.432 53.9475V53.3173H113.107V49.5778C113.107 49.4377 113.037 49.3677 112.898 49.3677H111.642V48.7375H113.107C113.596 48.7375 113.84 48.9825 113.84 49.4727V53.3173H115.515V53.9475H111.432ZM112.919 48.2963V47.54L115.075 46.3845V47.1933L112.919 48.2963Z" fill="#0B2234"/>
<path d="M105.188 53.9476V53.3173H106.569V49.5778C106.569 49.5218 106.548 49.4728 106.507 49.4308C106.465 49.3888 106.416 49.3677 106.36 49.3677H105.345V48.7375H106.622C106.824 48.7375 106.981 48.79 107.093 48.8951C107.204 49.0001 107.26 49.1542 107.26 49.3572V49.6514H107.302C107.379 49.3222 107.529 49.0666 107.752 48.8846C107.982 48.7025 108.279 48.6115 108.642 48.6115H109.689V49.3888H108.642C108.216 49.3888 107.885 49.5288 107.647 49.8089C107.417 50.089 107.302 50.4637 107.302 50.9329V53.3173H108.945V53.9476H105.188Z" fill="#0B2234"/>
<path d="M92.9704 53.9475V53.3173H94.7498V47.2249C94.7498 47.0848 94.68 47.0148 94.5405 47.0148H93.1797V46.3845H94.7498C95.2383 46.3845 95.4825 46.6296 95.4825 47.1198V53.3173H97.2619V53.9475H92.9704Z" fill="#0B2234"/>
<path d="M89.2587 54.0736C88.7772 54.0736 88.3516 53.9616 87.9818 53.7375C87.6119 53.5064 87.3188 53.1878 87.1025 52.7816C86.8932 52.3684 86.7885 51.8852 86.7885 51.332C86.7885 50.7788 86.8932 50.2991 87.1025 49.893C87.3119 49.4868 87.6014 49.1717 87.9713 48.9476C88.3481 48.7235 88.7842 48.6115 89.2797 48.6115C89.7821 48.6115 90.2077 48.727 90.5566 48.9581C90.9055 49.1822 91.1707 49.4763 91.3521 49.8404C91.5336 50.2046 91.6243 50.5967 91.6243 51.0169C91.6243 51.0869 91.6243 51.1605 91.6243 51.2375C91.6243 51.3145 91.6208 51.4021 91.6138 51.5001H87.5003C87.5212 51.9273 87.6154 52.2809 87.7829 52.561C87.9573 52.8341 88.1736 53.0407 88.4318 53.1808C88.697 53.3138 88.9726 53.3803 89.2587 53.3803C89.6844 53.3803 90.0124 53.2928 90.2426 53.1177C90.4799 52.9357 90.6543 52.6906 90.766 52.3824H91.4777C91.3661 52.8516 91.1254 53.2508 90.7555 53.5799C90.3927 53.909 89.8937 54.0736 89.2587 54.0736ZM89.2483 49.2837C88.8086 49.2837 88.4214 49.4203 88.0864 49.6934C87.7585 49.9665 87.5666 50.3446 87.5107 50.8278H90.9125C90.8846 50.3376 90.7171 49.9595 90.4101 49.6934C90.11 49.4203 89.7228 49.2837 89.2483 49.2837Z" fill="#0B2234"/>
<path d="M83.0243 54.0736C82.5777 54.0736 82.18 53.9685 81.8311 53.7584C81.4892 53.5414 81.2205 53.2297 81.0251 52.8236C80.8298 52.4104 80.7321 51.9132 80.7321 51.332C80.7321 50.7507 80.8298 50.2571 81.0251 49.8509C81.2205 49.4447 81.4892 49.1366 81.8311 48.9265C82.18 48.7164 82.5777 48.6114 83.0243 48.6114C83.45 48.6114 83.7989 48.6954 84.071 48.8635C84.3432 49.0316 84.5455 49.2557 84.6781 49.5358V46.3845H85.4108V53.9475H84.8456L84.7409 53.1177H84.6781C84.5455 53.4118 84.3362 53.6464 84.0501 53.8215C83.771 53.9895 83.4291 54.0736 83.0243 54.0736ZM83.0767 53.3803C83.5442 53.3803 83.928 53.2122 84.228 52.8761C84.5281 52.54 84.6781 52.0288 84.6781 51.3425C84.6781 50.6562 84.5281 50.145 84.228 49.8089C83.928 49.4727 83.5442 49.3047 83.0767 49.3047C82.6091 49.3047 82.2254 49.4727 81.9253 49.8089C81.6252 50.145 81.4752 50.6562 81.4752 51.3425C81.4752 52.0288 81.6252 52.54 81.9253 52.8761C82.2254 53.2122 82.6091 53.3803 83.0767 53.3803Z" fill="#0B2234"/>
<path d="M68.9858 53.9475V53.2542L72.1573 49.4307H69.0382V48.7374H72.9738V49.4307L69.8023 53.2542H73.0261V53.9475H68.9858Z" fill="#0B2234"/>
<path d="M64.5205 54.0736C64.1088 54.0736 63.7669 54.0001 63.4947 53.853C63.2296 53.706 63.0307 53.5099 62.8981 53.2648C62.7725 53.0197 62.7097 52.7536 62.7097 52.4665C62.7097 51.9203 62.9086 51.5141 63.3063 51.248C63.7111 50.9749 64.2205 50.8383 64.8345 50.8383H66.3208V50.7438C66.3208 50.2536 66.2022 49.886 65.965 49.6409C65.7347 49.3888 65.4032 49.2627 64.9706 49.2627C64.6077 49.2627 64.3077 49.3432 64.0704 49.5043C63.8402 49.6584 63.6936 49.9035 63.6308 50.2396H62.8563C62.8911 49.8895 63.0063 49.5953 63.2017 49.3572C63.404 49.1121 63.6587 48.9266 63.9658 48.8005C64.2728 48.6745 64.6077 48.6115 64.9706 48.6115C65.6963 48.6115 66.2232 48.811 66.5511 49.2102C66.8861 49.6023 67.0535 50.1135 67.0535 50.7438V53.9476H66.4255L66.3522 53.1072H66.2894C66.1359 53.3663 65.9231 53.5939 65.651 53.79C65.3788 53.9791 65.002 54.0736 64.5205 54.0736ZM64.6357 53.4013C64.9846 53.4013 65.2846 53.3138 65.5358 53.1387C65.787 52.9637 65.9789 52.7361 66.1115 52.456C66.2511 52.1759 66.3208 51.8817 66.3208 51.5736V51.4686H64.8869C64.3705 51.4686 64.0041 51.5596 63.7878 51.7417C63.5785 51.9238 63.4738 52.1584 63.4738 52.4455C63.4738 52.7396 63.5715 52.9742 63.7669 53.1492C63.9623 53.3173 64.2519 53.4013 64.6357 53.4013Z" fill="#0B2234"/>
<path d="M56.8314 53.9475V53.3173H58.5061V49.5778C58.5061 49.4377 58.4363 49.3677 58.2967 49.3677H57.0407V48.7375H58.5061C58.9945 48.7375 59.2388 48.9825 59.2388 49.4727V53.3173H60.9135V53.9475H56.8314ZM58.3177 48.2963V47.54L60.4739 46.3845V47.1933L58.3177 48.2963Z" fill="#0B2234"/>
<path d="M52.6905 54.0736C52.2439 54.0736 51.8461 53.9685 51.4972 53.7584C51.1553 53.5414 50.8867 53.2297 50.6913 52.8236C50.4959 52.4104 50.3982 51.9132 50.3982 51.332C50.3982 50.7507 50.4959 50.2571 50.6913 49.8509C50.8867 49.4447 51.1553 49.1366 51.4972 48.9265C51.8461 48.7164 52.2439 48.6114 52.6905 48.6114C53.1161 48.6114 53.465 48.6954 53.7372 48.8635C54.0093 49.0316 54.2117 49.2557 54.3443 49.5358V46.3845H55.077V53.9475H54.5117L54.4071 53.1177H54.3443C54.2117 53.4118 54.0023 53.6464 53.7162 53.8215C53.4371 53.9895 53.0952 54.0736 52.6905 54.0736ZM52.7428 53.3803C53.2103 53.3803 53.5941 53.2122 53.8942 52.8761C54.1942 52.54 54.3443 52.0288 54.3443 51.3425C54.3443 50.6562 54.1942 50.145 53.8942 49.8089C53.5941 49.4727 53.2103 49.3047 52.7428 49.3047C52.2753 49.3047 51.8915 49.4727 51.5914 49.8089C51.2914 50.145 51.1414 50.6562 51.1414 51.3425C51.1414 52.0288 51.2914 52.54 51.5914 52.8761C51.8915 53.2122 52.2753 53.3803 52.7428 53.3803Z" fill="#0B2234"/>
<path d="M40.7244 54.0736C40.2429 54.0736 39.8172 53.9616 39.4474 53.7375C39.0776 53.5064 38.7845 53.1878 38.5682 52.7816C38.3588 52.3684 38.2542 51.8852 38.2542 51.332C38.2542 50.7788 38.3588 50.2991 38.5682 49.893C38.7775 49.4868 39.0671 49.1717 39.4369 48.9476C39.8137 48.7235 40.2499 48.6115 40.7453 48.6115C41.2477 48.6115 41.6734 48.727 42.0223 48.9581C42.3712 49.1822 42.6363 49.4763 42.8178 49.8404C42.9992 50.2046 43.0899 50.5967 43.0899 51.0169C43.0899 51.0869 43.0899 51.1605 43.0899 51.2375C43.0899 51.3145 43.0864 51.4021 43.0795 51.5001H38.9659C38.9868 51.9273 39.081 52.2809 39.2485 52.561C39.423 52.8341 39.6393 53.0407 39.8975 53.1808C40.1626 53.3138 40.4383 53.3803 40.7244 53.3803C41.15 53.3803 41.478 53.2928 41.7083 53.1177C41.9455 52.9357 42.12 52.6906 42.2316 52.3824H42.9434C42.8317 52.8516 42.591 53.2508 42.2212 53.5799C41.8583 53.909 41.3594 54.0736 40.7244 54.0736ZM40.7139 49.2837C40.2743 49.2837 39.887 49.4203 39.5521 49.6934C39.2241 49.9665 39.0322 50.3446 38.9764 50.8278H42.3782C42.3502 50.3376 42.1828 49.9595 41.8757 49.6934C41.5757 49.4203 41.1884 49.2837 40.7139 49.2837Z" fill="#0B2234"/>
<path d="M34.5215 52.3929C34.3191 52.3929 34.1307 52.3719 33.9563 52.3299C33.7888 52.2879 33.6353 52.2319 33.4957 52.1619L33.0875 52.6766C33.0108 52.7816 32.9898 52.8866 33.0247 52.9917C33.0666 53.0967 33.1712 53.1492 33.3387 53.1492H34.7099C35.3379 53.1492 35.8473 53.2648 36.2381 53.4959C36.6289 53.72 36.8242 54.1016 36.8242 54.6408C36.8242 54.942 36.744 55.2256 36.5835 55.4917C36.43 55.7578 36.1857 55.9714 35.8508 56.1324C35.5159 56.3005 35.0797 56.3845 34.5424 56.3845C33.8167 56.3845 33.2375 56.248 32.8049 55.9749C32.3723 55.7018 32.1559 55.2851 32.1559 54.7249C32.1559 54.5078 32.2083 54.3117 32.313 54.1366C32.4176 53.9686 32.5502 53.818 32.7107 53.685C32.5014 53.5659 32.3688 53.3838 32.313 53.1387C32.2641 52.8866 32.3374 52.638 32.5328 52.3929L33.0142 51.7942C32.6793 51.4441 32.5118 51.0134 32.5118 50.5022C32.5118 50.1661 32.5886 49.8544 32.7421 49.5673C32.9026 49.2802 33.1329 49.0491 33.4329 48.8741C33.733 48.699 34.0958 48.6115 34.5215 48.6115C34.8006 48.6115 35.0588 48.6535 35.2961 48.7375H37.2325V49.3467L36.2067 49.3783V49.4413C36.416 49.7494 36.5207 50.103 36.5207 50.5022C36.5207 50.8313 36.4404 51.143 36.28 51.4371C36.1264 51.7242 35.8997 51.9553 35.5996 52.1303C35.3065 52.3054 34.9472 52.3929 34.5215 52.3929ZM34.5215 51.7207C34.8913 51.7207 35.1914 51.6156 35.4217 51.4056C35.6589 51.1885 35.7775 50.8874 35.7775 50.5022C35.7775 50.11 35.6589 49.8089 35.4217 49.5988C35.1914 49.3888 34.8913 49.2837 34.5215 49.2837C34.1586 49.2837 33.8551 49.3888 33.6109 49.5988C33.3736 49.8089 33.255 50.11 33.255 50.5022C33.255 50.8874 33.3736 51.1885 33.6109 51.4056C33.8551 51.6156 34.1586 51.7207 34.5215 51.7207ZM32.9096 54.7249C32.9096 55.047 33.0596 55.2921 33.3597 55.4602C33.6597 55.6282 34.054 55.7123 34.5424 55.7123C34.982 55.7123 35.3449 55.6142 35.631 55.4181C35.9241 55.2291 36.0706 54.9805 36.0706 54.6723C36.0706 54.5113 36.0253 54.3642 35.9345 54.2312C35.8508 54.1051 35.7008 54.0036 35.4845 53.9266C35.2751 53.8425 34.9786 53.8005 34.5948 53.8005H33.4225C33.0805 54.0316 32.9096 54.3397 32.9096 54.7249Z" fill="#0B2234"/>
<path d="M26.3823 53.9476V48.7375H26.9789L27.0731 49.5253H27.115C27.2545 49.2802 27.4743 49.0666 27.7744 48.8846C28.0814 48.7025 28.4373 48.6115 28.842 48.6115C29.477 48.6115 29.9515 48.8005 30.2655 49.1787C30.5795 49.5498 30.7365 50.0785 30.7365 50.7648V53.9476H30.0039V50.8488C30.0039 50.3656 29.8957 49.9875 29.6794 49.7144C29.4631 49.4413 29.1316 49.3047 28.685 49.3047C28.2524 49.3047 27.8825 49.4553 27.5755 49.7564C27.2685 50.0505 27.115 50.4777 27.115 51.0379V53.9476H26.3823Z" fill="#0B2234"/>
<path d="M22.053 54.0736C21.6413 54.0736 21.2994 54.0001 21.0272 53.853C20.762 53.706 20.5632 53.5099 20.4306 53.2648C20.305 53.0197 20.2422 52.7536 20.2422 52.4665C20.2422 51.9203 20.4411 51.5141 20.8388 51.248C21.2435 50.9749 21.7529 50.8383 22.367 50.8383H23.8533V50.7438C23.8533 50.2536 23.7347 49.886 23.4974 49.6409C23.2672 49.3888 22.9357 49.2627 22.5031 49.2627C22.1402 49.2627 21.8402 49.3432 21.6029 49.5043C21.3726 49.6584 21.2261 49.9035 21.1633 50.2396H20.3887C20.4236 49.8895 20.5388 49.5953 20.7341 49.3572C20.9365 49.1121 21.1912 48.9266 21.4982 48.8005C21.8053 48.6745 22.1402 48.6115 22.5031 48.6115C23.2288 48.6115 23.7556 48.811 24.0836 49.2102C24.4185 49.6023 24.586 50.1135 24.586 50.7438V53.9476H23.958L23.8847 53.1072H23.8219C23.6684 53.3663 23.4556 53.5939 23.1834 53.79C22.9113 53.9791 22.5345 54.0736 22.053 54.0736ZM22.1681 53.4013C22.517 53.4013 22.8171 53.3138 23.0683 53.1387C23.3195 52.9637 23.5114 52.7361 23.644 52.456C23.7835 52.1759 23.8533 51.8817 23.8533 51.5736V51.4686H22.4193C21.903 51.4686 21.5366 51.5596 21.3203 51.7417C21.111 51.9238 21.0063 52.1584 21.0063 52.4455C21.0063 52.7396 21.104 52.9742 21.2994 53.1492C21.4947 53.3173 21.7843 53.4013 22.1681 53.4013Z" fill="#0B2234"/>
<path d="M8.78901 56.2584L10.0974 53.3908H9.80431L7.72137 48.7374H8.51687L10.3172 52.9181L12.2327 48.7374H12.9863L9.5531 56.2584H8.78901Z" fill="#0B2234"/>
<path d="M4.38648 54.0736C3.98176 54.0736 3.63635 53.9895 3.35025 53.8215C3.07113 53.6464 2.86527 53.4153 2.73269 53.1282H2.66989L2.56522 53.9475H2V46.3845H2.73269V49.5358C2.87225 49.2907 3.08508 49.0771 3.37118 48.895C3.65728 48.7059 3.99571 48.6114 4.38648 48.6114C4.84005 48.6114 5.2378 48.7164 5.57972 48.9265C5.92165 49.1366 6.1903 49.4447 6.38568 49.8509C6.58107 50.2571 6.67876 50.7507 6.67876 51.332C6.67876 51.9132 6.58107 52.4104 6.38568 52.8236C6.1903 53.2297 5.91816 53.5414 5.56926 53.7584C5.22733 53.9685 4.83308 54.0736 4.38648 54.0736ZM4.33415 53.3803C4.80167 53.3803 5.18547 53.2122 5.48552 52.8761C5.78558 52.54 5.9356 52.0288 5.9356 51.3425C5.9356 50.6562 5.78558 50.145 5.48552 49.8089C5.18547 49.4727 4.80167 49.3047 4.33415 49.3047C3.86662 49.3047 3.48283 49.4727 3.18277 49.8089C2.88272 50.145 2.73269 50.6562 2.73269 51.3425C2.73269 52.0288 2.88272 52.54 3.18277 52.8761C3.48283 53.2122 3.86662 53.3803 4.33415 53.3803Z" fill="#0B2234"/>
</svg>
