<svg width="120" height="51" viewBox="0 0 120 51" fill="none" xmlns="http://www.w3.org/2000/svg">
<path d="M116.426 28.4735C117.367 28.4736 118.091 28.7778 118.646 29.3671V29.368L118.655 29.3768C119.216 29.9406 119.5 30.6414 119.5 31.5145C119.5 32.341 119.222 33.0451 118.655 33.6512C118.102 34.2076 117.375 34.4998 116.426 34.4999C115.481 34.4999 114.733 34.2102 114.141 33.6503C113.574 33.0442 113.296 32.3408 113.296 31.5145C113.296 30.6414 113.58 29.9406 114.141 29.3768C114.736 28.7783 115.485 28.4735 116.426 28.4735Z" fill="#E5FF3C" stroke="#0B2234"/>
<path d="M96.486 34.9302C94.2596 34.9302 92.2527 34.4053 90.4653 33.3555C88.7092 32.3057 87.3138 30.8423 86.279 28.9654C85.2756 27.0566 84.7738 24.8616 84.7738 22.3802C84.7738 19.8352 85.2912 17.6242 86.326 15.7473C87.3609 13.8385 88.772 12.3593 90.5594 11.3095C92.3467 10.2596 94.3537 9.73474 96.5801 9.73474C98.8378 9.73474 100.845 10.2596 102.601 11.3095C104.357 12.3593 105.737 13.8226 106.74 15.6996C107.775 17.5765 108.292 19.7875 108.292 22.3325C108.292 24.8775 107.775 27.0884 106.74 28.9654C105.737 30.8423 104.341 32.3057 102.554 33.3555C100.766 34.4053 98.7437 34.9302 96.486 34.9302ZM96.486 30.8264C97.7717 30.8264 98.9319 30.5083 99.9667 29.872C101.033 29.2358 101.88 28.2973 102.507 27.0566C103.165 25.7841 103.494 24.2094 103.494 22.3325C103.494 20.4555 103.181 18.8967 102.554 17.656C101.927 16.3835 101.08 15.4292 100.014 14.7929C98.9789 14.1567 97.8344 13.8385 96.5801 13.8385C95.3257 13.8385 94.1655 14.1567 93.0993 14.7929C92.0332 15.4292 91.1708 16.3835 90.5123 17.656C89.8852 18.8967 89.5716 20.4555 89.5716 22.3325C89.5716 24.2094 89.8852 25.7841 90.5123 27.0566C91.1708 28.2973 92.0175 29.2358 93.0523 29.872C94.1185 30.5083 95.263 30.8264 96.486 30.8264Z" fill="#0B2234"/>
<path d="M66.3005 34.9301C64.0427 34.9301 62.0515 34.3893 60.3268 33.3076C58.6021 32.1942 57.2537 30.699 56.2816 28.8221C55.3409 26.9133 54.8705 24.7501 54.8705 22.3323C54.8705 19.8828 55.3409 17.7195 56.2816 15.8426C57.2537 13.9657 58.6021 12.4864 60.3268 11.4048C62.0828 10.2913 64.0897 9.73461 66.3475 9.73461C68.1976 9.73461 69.8282 10.1164 71.2393 10.8799C72.6504 11.6115 73.748 12.6614 74.5319 14.0293V0H79.2356V34.3574H75.0023L74.5319 30.6354C74.0615 31.3671 73.4501 32.0669 72.6975 32.735C71.9449 33.3713 71.0355 33.8962 69.9693 34.3097C68.9032 34.7233 67.6802 34.9301 66.3005 34.9301ZM67.0531 30.7785C68.5269 30.7785 69.8282 30.4286 70.9571 29.7287C72.086 29.0289 72.9483 28.0427 73.5441 26.7702C74.1713 25.4977 74.4849 24.0184 74.4849 22.3323C74.4849 20.6463 74.1713 19.1829 73.5441 17.9422C72.9483 16.6697 72.086 15.6835 70.9571 14.9837C69.8282 14.252 68.5269 13.8861 67.0531 13.8861C65.642 13.8861 64.372 14.252 63.2431 14.9837C62.1142 15.6835 61.2362 16.6697 60.609 17.9422C59.9819 19.1829 59.6683 20.6463 59.6683 22.3323C59.6683 24.0184 59.9819 25.4977 60.609 26.7702C61.2362 28.0427 62.1142 29.0289 63.2431 29.7287C64.372 30.4286 65.642 30.7785 67.0531 30.7785Z" fill="#0B2234"/>
<path d="M38.425 34.9302C36.1986 34.9302 34.1917 34.4053 32.4043 33.3555C30.6483 32.3057 29.2528 30.8423 28.218 28.9654C27.2146 27.0566 26.7128 24.8616 26.7128 22.3802C26.7128 19.8352 27.2303 17.6242 28.2651 15.7473C29.2999 13.8385 30.711 12.3593 32.4984 11.3095C34.2858 10.2596 36.2927 9.73474 38.5191 9.73474C40.7768 9.73474 42.7837 10.2596 44.5398 11.3095C46.2958 12.3593 47.6756 13.8226 48.679 15.6996C49.7138 17.5765 50.2312 19.7875 50.2312 22.3325C50.2312 24.8775 49.7138 27.0884 48.679 28.9654C47.6756 30.8423 46.2801 32.3057 44.4927 33.3555C42.7053 34.4053 40.6828 34.9302 38.425 34.9302ZM38.425 30.8264C39.7107 30.8264 40.8709 30.5083 41.9057 29.872C42.9719 29.2358 43.8185 28.2973 44.4457 27.0566C45.1042 25.7841 45.4335 24.2094 45.4335 22.3325C45.4335 20.4555 45.1199 18.8967 44.4927 17.656C43.8656 16.3835 43.0189 15.4292 41.9527 14.7929C40.9179 14.1567 39.7734 13.8385 38.5191 13.8385C37.2648 13.8385 36.1045 14.1567 35.0383 14.7929C33.9722 15.4292 33.1098 16.3835 32.4513 17.656C31.8242 18.8967 31.5106 20.4555 31.5106 22.3325C31.5106 24.2094 31.8242 25.7841 32.4513 27.0566C33.1098 28.2973 33.9565 29.2358 34.9913 29.872C36.0575 30.5083 37.202 30.8264 38.425 30.8264Z" fill="#0B2234"/>
<path d="M0 34.3576V10.3074H4.23331L4.51553 14.4112C5.26811 12.9796 6.33428 11.8503 7.71402 11.0231C9.09377 10.1642 10.6773 9.73474 12.4647 9.73474C14.3462 9.73474 15.9611 10.1165 17.3095 10.88C18.6579 11.6435 19.7084 12.8046 20.461 14.3635C21.2136 15.8904 21.5899 17.8151 21.5899 20.1374V34.3576H16.8862V20.6146C16.8862 18.3877 16.4001 16.7017 15.428 15.5564C14.456 14.4112 13.0449 13.8385 11.1947 13.8385C9.97179 13.8385 8.87426 14.1408 7.90217 14.7452C6.93008 15.3178 6.14613 16.1768 5.55033 17.322C4.98589 18.4673 4.70367 19.867 4.70367 21.5212V34.3576H0Z" fill="#0B2234"/>
<path d="M117.54 48.6891C117.059 48.6891 116.633 48.577 116.263 48.353C115.893 48.1289 115.604 47.8137 115.395 47.4076C115.185 46.9944 115.081 46.5112 115.081 45.958C115.081 45.3978 115.185 44.9146 115.395 44.5084C115.604 44.1023 115.893 43.7872 116.263 43.5631C116.633 43.339 117.059 43.2269 117.54 43.2269C118.022 43.2269 118.447 43.339 118.817 43.5631C119.187 43.7872 119.477 44.1023 119.686 44.5084C119.895 44.9146 120 45.3978 120 45.958C120 46.5112 119.895 46.9944 119.686 47.4076C119.477 47.8137 119.187 48.1289 118.817 48.353C118.447 48.577 118.022 48.6891 117.54 48.6891ZM117.54 47.9958C117.861 47.9958 118.147 47.9223 118.399 47.7752C118.657 47.6282 118.863 47.4041 119.016 47.103C119.17 46.8018 119.246 46.4202 119.246 45.958C119.246 45.4888 119.17 45.1072 119.016 44.8131C118.863 44.5119 118.657 44.2878 118.399 44.1408C118.147 43.9937 117.861 43.9202 117.54 43.9202C117.226 43.9202 116.94 43.9937 116.682 44.1408C116.424 44.2878 116.218 44.5119 116.064 44.8131C115.911 45.1072 115.834 45.4888 115.834 45.958C115.834 46.4202 115.911 46.8018 116.064 47.103C116.218 47.4041 116.424 47.6282 116.682 47.7752C116.94 47.9223 117.226 47.9958 117.54 47.9958Z" fill="#0B2234"/>
<path d="M109.432 48.563V47.9327H111.107V44.1933C111.107 44.0532 111.037 43.9832 110.898 43.9832H109.642V43.3529H111.107C111.596 43.3529 111.84 43.598 111.84 44.0882V47.9327H113.515V48.563H109.432ZM110.919 42.9118V42.1555L113.075 41V41.8088L110.919 42.9118Z" fill="#0B2234"/>
<path d="M103.188 48.563V47.9328H104.569V44.1933C104.569 44.1373 104.548 44.0883 104.507 44.0463C104.465 44.0042 104.416 43.9832 104.36 43.9832H103.345V43.353H104.622C104.824 43.353 104.981 43.4055 105.093 43.5105C105.204 43.6156 105.26 43.7696 105.26 43.9727V44.2668H105.302C105.379 43.9377 105.529 43.6821 105.752 43.5C105.982 43.318 106.279 43.2269 106.642 43.2269H107.689V44.0042H106.642C106.216 44.0042 105.885 44.1443 105.647 44.4244C105.417 44.7045 105.302 45.0792 105.302 45.5483V47.9328H106.945V48.563H103.188Z" fill="#0B2234"/>
<path d="M90.9704 48.563V47.9327H92.7498V41.8403C92.7498 41.7003 92.68 41.6302 92.5405 41.6302H91.1797V41H92.7498C93.2383 41 93.4825 41.2451 93.4825 41.7353V47.9327H95.2619V48.563H90.9704Z" fill="#0B2234"/>
<path d="M87.2587 48.6891C86.7772 48.6891 86.3516 48.577 85.9818 48.353C85.6119 48.1219 85.3188 47.8032 85.1025 47.3971C84.8932 46.9839 84.7885 46.5007 84.7885 45.9475C84.7885 45.3943 84.8932 44.9146 85.1025 44.5084C85.3119 44.1023 85.6014 43.7872 85.9713 43.5631C86.3481 43.339 86.7842 43.2269 87.2797 43.2269C87.7821 43.2269 88.2077 43.3425 88.5566 43.5736C88.9055 43.7977 89.1707 44.0918 89.3521 44.4559C89.5336 44.8201 89.6243 45.2122 89.6243 45.6324C89.6243 45.7024 89.6243 45.7759 89.6243 45.853C89.6243 45.93 89.6208 46.0175 89.6138 46.1156H85.5003C85.5212 46.5427 85.6154 46.8964 85.7829 47.1765C85.9573 47.4496 86.1736 47.6562 86.4318 47.7962C86.697 47.9293 86.9726 47.9958 87.2587 47.9958C87.6844 47.9958 88.0124 47.9083 88.2426 47.7332C88.4799 47.5511 88.6543 47.306 88.766 46.9979H89.4777C89.3661 47.4671 89.1254 47.8663 88.7555 48.1954C88.3927 48.5245 87.8937 48.6891 87.2587 48.6891ZM87.2483 43.8992C86.8086 43.8992 86.4214 44.0357 86.0864 44.3089C85.7585 44.582 85.5666 44.9601 85.5107 45.4433H88.9125C88.8846 44.9531 88.7171 44.575 88.4101 44.3089C88.11 44.0357 87.7228 43.8992 87.2483 43.8992Z" fill="#0B2234"/>
<path d="M81.0243 48.689C80.5777 48.689 80.18 48.584 79.8311 48.3739C79.4892 48.1568 79.2205 47.8452 79.0251 47.439C78.8298 47.0259 78.7321 46.5287 78.7321 45.9475C78.7321 45.3662 78.8298 44.8725 79.0251 44.4664C79.2205 44.0602 79.4892 43.7521 79.8311 43.542C80.18 43.3319 80.5777 43.2269 81.0243 43.2269C81.45 43.2269 81.7989 43.3109 82.071 43.479C82.3432 43.647 82.5455 43.8711 82.6781 44.1512V41H83.4108V48.563H82.8456L82.7409 47.7332H82.6781C82.5455 48.0273 82.3362 48.2619 82.0501 48.4369C81.771 48.605 81.4291 48.689 81.0243 48.689ZM81.0767 47.9958C81.5442 47.9958 81.928 47.8277 82.228 47.4916C82.5281 47.1554 82.6781 46.6442 82.6781 45.958C82.6781 45.2717 82.5281 44.7605 82.228 44.4244C81.928 44.0882 81.5442 43.9202 81.0767 43.9202C80.6091 43.9202 80.2254 44.0882 79.9253 44.4244C79.6252 44.7605 79.4752 45.2717 79.4752 45.958C79.4752 46.6442 79.6252 47.1554 79.9253 47.4916C80.2254 47.8277 80.6091 47.9958 81.0767 47.9958Z" fill="#0B2234"/>
<path d="M66.9858 48.563V47.8697L70.1573 44.0462H67.0382V43.3529H70.9738V44.0462L67.8023 47.8697H71.0261V48.563H66.9858Z" fill="#0B2234"/>
<path d="M62.5205 48.6891C62.1088 48.6891 61.7669 48.6156 61.4947 48.4685C61.2296 48.3214 61.0307 48.1254 60.8981 47.8803C60.7725 47.6352 60.7097 47.3691 60.7097 47.082C60.7097 46.5357 60.9086 46.1296 61.3063 45.8635C61.7111 45.5904 62.2205 45.4538 62.8345 45.4538H64.3208V45.3593C64.3208 44.8691 64.2022 44.5014 63.965 44.2563C63.7347 44.0042 63.4032 43.8782 62.9706 43.8782C62.6077 43.8782 62.3077 43.9587 62.0704 44.1198C61.8402 44.2738 61.6936 44.5189 61.6308 44.8551H60.8563C60.8911 44.5049 61.0063 44.2108 61.2017 43.9727C61.404 43.7276 61.6587 43.5421 61.9658 43.416C62.2728 43.29 62.6077 43.2269 62.9706 43.2269C63.6963 43.2269 64.2231 43.4265 64.5511 43.8257C64.8861 44.2178 65.0535 44.729 65.0535 45.3593V48.563H64.4255L64.3522 47.7227H64.2894C64.1359 47.9818 63.9231 48.2094 63.651 48.4055C63.3788 48.5946 63.002 48.6891 62.5205 48.6891ZM62.6356 48.0168C62.9845 48.0168 63.2846 47.9293 63.5358 47.7542C63.787 47.5791 63.9789 47.3516 64.1115 47.0714C64.2511 46.7913 64.3208 46.4972 64.3208 46.1891V46.0841H62.8869C62.3705 46.0841 62.0041 46.1751 61.7878 46.3572C61.5785 46.5392 61.4738 46.7738 61.4738 47.0609C61.4738 47.3551 61.5715 47.5897 61.7669 47.7647C61.9623 47.9328 62.2519 48.0168 62.6356 48.0168Z" fill="#0B2234"/>
<path d="M54.8314 48.563V47.9327H56.5061V44.1933C56.5061 44.0532 56.4363 43.9832 56.2967 43.9832H55.0407V43.3529H56.5061C56.9945 43.3529 57.2388 43.598 57.2388 44.0882V47.9327H58.9135V48.563H54.8314ZM56.3177 42.9118V42.1555L58.4739 41V41.8088L56.3177 42.9118Z" fill="#0B2234"/>
<path d="M50.6905 48.689C50.2439 48.689 49.8461 48.584 49.4972 48.3739C49.1553 48.1568 48.8867 47.8452 48.6913 47.439C48.4959 47.0259 48.3982 46.5287 48.3982 45.9475C48.3982 45.3662 48.4959 44.8725 48.6913 44.4664C48.8867 44.0602 49.1553 43.7521 49.4972 43.542C49.8461 43.3319 50.2439 43.2269 50.6905 43.2269C51.1161 43.2269 51.465 43.3109 51.7372 43.479C52.0093 43.647 52.2117 43.8711 52.3443 44.1512V41H53.077V48.563H52.5117L52.4071 47.7332H52.3443C52.2117 48.0273 52.0023 48.2619 51.7162 48.4369C51.4371 48.605 51.0952 48.689 50.6905 48.689ZM50.7428 47.9958C51.2103 47.9958 51.5941 47.8277 51.8942 47.4916C52.1942 47.1554 52.3443 46.6442 52.3443 45.958C52.3443 45.2717 52.1942 44.7605 51.8942 44.4244C51.5941 44.0882 51.2103 43.9202 50.7428 43.9202C50.2753 43.9202 49.8915 44.0882 49.5914 44.4244C49.2914 44.7605 49.1414 45.2717 49.1414 45.958C49.1414 46.6442 49.2914 47.1554 49.5914 47.4916C49.8915 47.8277 50.2753 47.9958 50.7428 47.9958Z" fill="#0B2234"/>
<path d="M38.7244 48.6891C38.2429 48.6891 37.8172 48.577 37.4474 48.353C37.0776 48.1219 36.7845 47.8032 36.5682 47.3971C36.3588 46.9839 36.2542 46.5007 36.2542 45.9475C36.2542 45.3943 36.3588 44.9146 36.5682 44.5084C36.7775 44.1023 37.0671 43.7872 37.4369 43.5631C37.8137 43.339 38.2499 43.2269 38.7453 43.2269C39.2477 43.2269 39.6734 43.3425 40.0223 43.5736C40.3712 43.7977 40.6363 44.0918 40.8178 44.4559C40.9992 44.8201 41.0899 45.2122 41.0899 45.6324C41.0899 45.7024 41.0899 45.7759 41.0899 45.853C41.0899 45.93 41.0864 46.0175 41.0795 46.1156H36.9659C36.9868 46.5427 37.081 46.8964 37.2485 47.1765C37.423 47.4496 37.6393 47.6562 37.8975 47.7962C38.1626 47.9293 38.4383 47.9958 38.7244 47.9958C39.15 47.9958 39.478 47.9083 39.7083 47.7332C39.9455 47.5511 40.12 47.306 40.2316 46.9979H40.9434C40.8317 47.4671 40.591 47.8663 40.2212 48.1954C39.8583 48.5245 39.3594 48.6891 38.7244 48.6891ZM38.7139 43.8992C38.2743 43.8992 37.887 44.0357 37.5521 44.3089C37.2241 44.582 37.0322 44.9601 36.9764 45.4433H40.3782C40.3502 44.9531 40.1828 44.575 39.8757 44.3089C39.5757 44.0357 39.1884 43.8992 38.7139 43.8992Z" fill="#0B2234"/>
<path d="M32.5215 47.0084C32.3191 47.0084 32.1307 46.9874 31.9563 46.9454C31.7888 46.9034 31.6353 46.8474 31.4957 46.7773L31.0875 47.292C31.0108 47.3971 30.9898 47.5021 31.0247 47.6072C31.0666 47.7122 31.1712 47.7647 31.3387 47.7647H32.7099C33.3379 47.7647 33.8473 47.8803 34.2381 48.1114C34.6289 48.3354 34.8242 48.7171 34.8242 49.2563C34.8242 49.5574 34.744 49.841 34.5835 50.1071C34.43 50.3733 34.1857 50.5868 33.8508 50.7479C33.5159 50.916 33.0797 51 32.5424 51C31.8167 51 31.2375 50.8634 30.8049 50.5903C30.3723 50.3172 30.1559 49.9006 30.1559 49.3403C30.1559 49.1233 30.2083 48.9272 30.313 48.7521C30.4176 48.584 30.5502 48.4335 30.7107 48.3004C30.5014 48.1814 30.3688 47.9993 30.313 47.7542C30.2641 47.5021 30.3374 47.2535 30.5328 47.0084L31.0142 46.4097C30.6793 46.0595 30.5118 45.6289 30.5118 45.1177C30.5118 44.7815 30.5886 44.4699 30.7421 44.1828C30.9026 43.8957 31.1329 43.6646 31.4329 43.4895C31.733 43.3145 32.0958 43.2269 32.5215 43.2269C32.8006 43.2269 33.0588 43.2689 33.2961 43.353H35.2325V43.9622L34.2067 43.9937V44.0568C34.416 44.3649 34.5207 44.7185 34.5207 45.1177C34.5207 45.4468 34.4404 45.7584 34.28 46.0525C34.1264 46.3397 33.8997 46.5708 33.5996 46.7458C33.3065 46.9209 32.9472 47.0084 32.5215 47.0084ZM32.5215 46.3362C32.8913 46.3362 33.1914 46.2311 33.4217 46.021C33.6589 45.8039 33.7775 45.5028 33.7775 45.1177C33.7775 44.7255 33.6589 44.4244 33.4217 44.2143C33.1914 44.0042 32.8913 43.8992 32.5215 43.8992C32.1586 43.8992 31.8551 44.0042 31.6109 44.2143C31.3736 44.4244 31.255 44.7255 31.255 45.1177C31.255 45.5028 31.3736 45.8039 31.6109 46.021C31.8551 46.2311 32.1586 46.3362 32.5215 46.3362ZM30.9096 49.3403C30.9096 49.6625 31.0596 49.9076 31.3597 50.0756C31.6597 50.2437 32.054 50.3277 32.5424 50.3277C32.982 50.3277 33.3449 50.2297 33.631 50.0336C33.9241 49.8445 34.0706 49.5959 34.0706 49.2878C34.0706 49.1268 34.0253 48.9797 33.9345 48.8467C33.8508 48.7206 33.7008 48.6191 33.4845 48.542C33.2751 48.458 32.9786 48.416 32.5948 48.416H31.4225C31.0805 48.6471 30.9096 48.9552 30.9096 49.3403Z" fill="#0B2234"/>
<path d="M24.3823 48.563V43.353H24.9789L25.0731 44.1408H25.115C25.2545 43.8957 25.4743 43.6821 25.7744 43.5C26.0814 43.318 26.4373 43.2269 26.842 43.2269C27.477 43.2269 27.9515 43.416 28.2655 43.7942C28.5795 44.1653 28.7365 44.694 28.7365 45.3803V48.563H28.0039V45.4643C28.0039 44.9811 27.8957 44.603 27.6794 44.3299C27.4631 44.0568 27.1316 43.9202 26.685 43.9202C26.2524 43.9202 25.8825 44.0708 25.5755 44.3719C25.2685 44.666 25.115 45.0932 25.115 45.6534V48.563H24.3823Z" fill="#0B2234"/>
<path d="M20.053 48.6891C19.6413 48.6891 19.2994 48.6156 19.0272 48.4685C18.762 48.3214 18.5632 48.1254 18.4306 47.8803C18.305 47.6352 18.2422 47.3691 18.2422 47.082C18.2422 46.5357 18.4411 46.1296 18.8388 45.8635C19.2435 45.5904 19.7529 45.4538 20.367 45.4538H21.8533V45.3593C21.8533 44.8691 21.7347 44.5014 21.4974 44.2563C21.2672 44.0042 20.9357 43.8782 20.5031 43.8782C20.1402 43.8782 19.8402 43.9587 19.6029 44.1198C19.3726 44.2738 19.2261 44.5189 19.1633 44.8551H18.3887C18.4236 44.5049 18.5388 44.2108 18.7341 43.9727C18.9365 43.7276 19.1912 43.5421 19.4982 43.416C19.8053 43.29 20.1402 43.2269 20.5031 43.2269C21.2288 43.2269 21.7556 43.4265 22.0836 43.8257C22.4185 44.2178 22.586 44.729 22.586 45.3593V48.563H21.958L21.8847 47.7227H21.8219C21.6684 47.9818 21.4556 48.2094 21.1834 48.4055C20.9113 48.5946 20.5345 48.6891 20.053 48.6891ZM20.1681 48.0168C20.517 48.0168 20.8171 47.9293 21.0683 47.7542C21.3195 47.5791 21.5114 47.3516 21.644 47.0714C21.7835 46.7913 21.8533 46.4972 21.8533 46.1891V46.0841H20.4193C19.903 46.0841 19.5366 46.1751 19.3203 46.3572C19.111 46.5392 19.0063 46.7738 19.0063 47.0609C19.0063 47.3551 19.104 47.5897 19.2994 47.7647C19.4947 47.9328 19.7843 48.0168 20.1681 48.0168Z" fill="#0B2234"/>
<path d="M6.78901 50.8739L8.09739 48.0062H7.80431L5.72137 43.3529H6.51687L8.3172 47.5336L10.2327 43.3529H10.9863L7.5531 50.8739H6.78901Z" fill="#0B2234"/>
<path d="M2.38648 48.689C1.98176 48.689 1.63635 48.605 1.35025 48.4369C1.07113 48.2619 0.865274 48.0308 0.732692 47.7437H0.66989L0.56522 48.563H0V41H0.732692V44.1512C0.872252 43.9061 1.08508 43.6926 1.37118 43.5105C1.65728 43.3214 1.99571 43.2269 2.38648 43.2269C2.84005 43.2269 3.2378 43.3319 3.57972 43.542C3.92165 43.7521 4.1903 44.0602 4.38568 44.4664C4.58107 44.8725 4.67876 45.3662 4.67876 45.9475C4.67876 46.5287 4.58107 47.0259 4.38568 47.439C4.1903 47.8452 3.91816 48.1568 3.56926 48.3739C3.22733 48.584 2.83308 48.689 2.38648 48.689ZM2.33415 47.9958C2.80167 47.9958 3.18547 47.8277 3.48552 47.4916C3.78558 47.1554 3.9356 46.6442 3.9356 45.958C3.9356 45.2717 3.78558 44.7605 3.48552 44.4244C3.18547 44.0882 2.80167 43.9202 2.33415 43.9202C1.86662 43.9202 1.48283 44.0882 1.18277 44.4244C0.882719 44.7605 0.732692 45.2717 0.732692 45.958C0.732692 46.6442 0.882719 47.1554 1.18277 47.4916C1.48283 47.8277 1.86662 47.9958 2.33415 47.9958Z" fill="#0B2234"/>
</svg>
