<svg width="140" height="71" viewBox="0 0 140 71" fill="none" xmlns="http://www.w3.org/2000/svg">
<path d="M126.911 44.6653C125.992 44.6653 125.232 44.3784 124.63 43.8046C124.059 43.199 123.774 42.4818 123.774 41.653C123.774 40.7923 124.059 40.0751 124.63 39.5014C125.232 38.8957 125.992 38.5929 126.911 38.5929C127.83 38.5929 128.574 38.8957 129.145 39.5014C129.715 40.0751 130 40.7923 130 41.653C130 42.4818 129.715 43.199 129.145 43.8046C128.574 44.3784 127.83 44.6653 126.911 44.6653Z" fill="#E5FF3C"/>
<path d="M107.49 45C105.24 45 103.213 44.474 101.407 43.4221C99.6324 42.3702 98.2224 40.9039 97.1768 39.0232C96.163 37.1107 95.656 34.9112 95.656 32.4249C95.656 29.8748 96.1788 27.6594 97.2244 25.7787C98.2699 23.8662 99.6957 22.3839 101.502 21.332C103.308 20.2801 105.336 19.7542 107.585 19.7542C109.866 19.7542 111.894 20.2801 113.668 21.332C115.443 22.3839 116.837 23.8502 117.851 25.7309C118.896 27.6116 119.419 29.827 119.419 32.3771C119.419 34.9272 118.896 37.1425 117.851 39.0232C116.837 40.9039 115.427 42.3702 113.621 43.4221C111.815 44.474 109.771 45 107.49 45ZM107.49 40.888C108.789 40.888 109.961 40.5692 111.007 39.9317C112.084 39.2942 112.94 38.3538 113.573 37.1107C114.239 35.8356 114.571 34.2578 114.571 32.3771C114.571 30.4964 114.255 28.9345 113.621 27.6913C112.987 26.4162 112.132 25.46 111.055 24.8224C110.009 24.1849 108.852 23.8662 107.585 23.8662C106.318 23.8662 105.145 24.1849 104.068 24.8224C102.991 25.46 102.12 26.4162 101.454 27.6913C100.821 28.9345 100.504 30.4964 100.504 32.3771C100.504 34.2578 100.821 35.8356 101.454 37.1107C102.12 38.3538 102.975 39.2942 104.021 39.9317C105.098 40.5692 106.254 40.888 107.49 40.888Z" fill="#0B2234"/>
<path d="M76.9905 44.9999C74.7093 44.9999 72.6973 44.458 70.9547 43.3742C69.2121 42.2586 67.8496 40.7604 66.8674 38.8797C65.9169 36.9671 65.4417 34.7996 65.4417 32.377C65.4417 29.9225 65.9169 27.755 66.8674 25.8743C67.8496 23.9936 69.2121 22.5114 70.9547 21.4276C72.729 20.3119 74.7568 19.7541 77.038 19.7541C78.9074 19.7541 80.555 20.1366 81.9808 20.9016C83.4066 21.6348 84.5155 22.6867 85.3076 24.0573V10H90.0602V44.4261H85.7829L85.3076 40.6966C84.8323 41.4298 84.2145 42.1311 83.4541 42.8005C82.6937 43.438 81.7748 43.9639 80.6976 44.3783C79.6203 44.7927 78.3846 44.9999 76.9905 44.9999ZM77.7509 40.8401C79.2401 40.8401 80.555 40.4895 81.6956 39.7882C82.8362 39.0869 83.7076 38.0987 84.3096 36.8237C84.9432 35.5487 85.2601 34.0664 85.2601 32.377C85.2601 30.6876 84.9432 29.2213 84.3096 27.9781C83.7076 26.7031 82.8362 25.7149 81.6956 25.0136C80.555 24.2805 79.2401 23.9139 77.7509 23.9139C76.3252 23.9139 75.0419 24.2805 73.9013 25.0136C72.7607 25.7149 71.8735 26.7031 71.2398 27.9781C70.6062 29.2213 70.2893 30.6876 70.2893 32.377C70.2893 34.0664 70.6062 35.5487 71.2398 36.8237C71.8735 38.0987 72.7607 39.0869 73.9013 39.7882C75.0419 40.4895 76.3252 40.8401 77.7509 40.8401Z" fill="#0B2234"/>
<path d="M48.8248 45C46.5752 45 44.5474 44.474 42.7414 43.4221C40.9671 42.3702 39.5571 40.9039 38.5116 39.0232C37.4977 37.1107 36.9907 34.9112 36.9907 32.4249C36.9907 29.8748 37.5135 27.6594 38.5591 25.7787C39.6047 23.8662 41.0305 22.3839 42.8364 21.332C44.6424 20.2801 46.6702 19.7542 48.9198 19.7542C51.2011 19.7542 53.2288 20.2801 55.0032 21.332C56.7775 22.3839 58.1716 23.8502 59.1855 25.7309C60.231 27.6116 60.7538 29.827 60.7538 32.3771C60.7538 34.9272 60.231 37.1425 59.1855 39.0232C58.1716 40.9039 56.7616 42.3702 54.9556 43.4221C53.1496 44.474 51.106 45 48.8248 45ZM48.8248 40.888C50.1238 40.888 51.2961 40.5692 52.3417 39.9317C53.419 39.2942 54.2744 38.3538 54.9081 37.1107C55.5735 35.8356 55.9062 34.2578 55.9062 32.3771C55.9062 30.4964 55.5893 28.9345 54.9556 27.6913C54.322 26.4162 53.4665 25.46 52.3892 24.8224C51.3436 24.1849 50.1872 23.8662 48.9198 23.8662C47.6524 23.8662 46.4801 24.1849 45.4029 24.8224C44.3256 25.46 43.4543 26.4162 42.7889 27.6913C42.1552 28.9345 41.8384 30.4964 41.8384 32.3771C41.8384 34.2578 42.1552 35.8356 42.7889 37.1107C43.4543 38.3538 44.3098 39.2942 45.3553 39.9317C46.4326 40.5692 47.5891 40.888 48.8248 40.888Z" fill="#0B2234"/>
<path d="M10 44.4262V20.3279H14.2774L14.5625 24.4399C15.3229 23.0055 16.4002 21.8739 17.7943 21.0451C19.1884 20.1845 20.7885 19.7542 22.5944 19.7542C24.4955 19.7542 26.1272 20.1367 27.4896 20.9017C28.8521 21.6667 29.9135 22.8302 30.6739 24.3921C31.4343 25.9222 31.8145 27.8507 31.8145 30.1776V44.4262H27.0619V30.6558C27.0619 28.4244 26.5708 26.735 25.5886 25.5875C24.6064 24.4399 23.1806 23.8662 21.3112 23.8662C20.0756 23.8662 18.9666 24.169 17.9844 24.7746C17.0022 25.3484 16.2101 26.2091 15.6081 27.3566C15.0378 28.5041 14.7526 29.9067 14.7526 31.5642V44.4262H10Z" fill="#0B2234"/>
<path d="M127.54 58.6891C127.059 58.6891 126.633 58.577 126.263 58.353C125.894 58.1289 125.604 57.8137 125.395 57.4076C125.185 56.9944 125.081 56.5112 125.081 55.958C125.081 55.3978 125.185 54.9146 125.395 54.5084C125.604 54.1023 125.894 53.7872 126.263 53.5631C126.633 53.339 127.059 53.2269 127.54 53.2269C128.022 53.2269 128.447 53.339 128.817 53.5631C129.187 53.7872 129.477 54.1023 129.686 54.5084C129.895 54.9146 130 55.3978 130 55.958C130 56.5112 129.895 56.9944 129.686 57.4076C129.477 57.8137 129.187 58.1289 128.817 58.353C128.447 58.577 128.022 58.6891 127.54 58.6891ZM127.54 57.9958C127.861 57.9958 128.147 57.9223 128.399 57.7752C128.657 57.6282 128.863 57.4041 129.016 57.103C129.17 56.8018 129.246 56.4202 129.246 55.958C129.246 55.4888 129.17 55.1072 129.016 54.8131C128.863 54.5119 128.657 54.2878 128.399 54.1408C128.147 53.9937 127.861 53.9202 127.54 53.9202C127.226 53.9202 126.94 53.9937 126.682 54.1408C126.424 54.2878 126.218 54.5119 126.064 54.8131C125.911 55.1072 125.834 55.4888 125.834 55.958C125.834 56.4202 125.911 56.8018 126.064 57.103C126.218 57.4041 126.424 57.6282 126.682 57.7752C126.94 57.9223 127.226 57.9958 127.54 57.9958Z" fill="#0B2234"/>
<path d="M119.432 58.563V57.9327H121.107V54.1933C121.107 54.0532 121.037 53.9832 120.898 53.9832H119.642V53.3529H121.107C121.596 53.3529 121.84 53.598 121.84 54.0882V57.9327H123.515V58.563H119.432ZM120.919 52.9118V52.1555L123.075 51V51.8088L120.919 52.9118Z" fill="#0B2234"/>
<path d="M113.188 58.563V57.9328H114.569V54.1933C114.569 54.1373 114.548 54.0883 114.507 54.0463C114.465 54.0042 114.416 53.9832 114.36 53.9832H113.345V53.353H114.622C114.824 53.353 114.981 53.4055 115.093 53.5105C115.204 53.6156 115.26 53.7696 115.26 53.9727V54.2668H115.302C115.379 53.9377 115.529 53.6821 115.752 53.5C115.982 53.318 116.279 53.2269 116.642 53.2269H117.689V54.0042H116.642C116.216 54.0042 115.885 54.1443 115.647 54.4244C115.417 54.7045 115.302 55.0792 115.302 55.5483V57.9328H116.945V58.563H113.188Z" fill="#0B2234"/>
<path d="M100.97 58.563V57.9327H102.75V51.8403C102.75 51.7003 102.68 51.6302 102.541 51.6302H101.18V51H102.75C103.238 51 103.483 51.2451 103.483 51.7353V57.9327H105.262V58.563H100.97Z" fill="#0B2234"/>
<path d="M97.2588 58.6891C96.7773 58.6891 96.3516 58.577 95.9818 58.353C95.612 58.1219 95.3189 57.8032 95.1026 57.3971C94.8932 56.9839 94.7886 56.5007 94.7886 55.9475C94.7886 55.3943 94.8932 54.9146 95.1026 54.5084C95.3119 54.1023 95.6015 53.7872 95.9713 53.5631C96.3482 53.339 96.7843 53.2269 97.2797 53.2269C97.7821 53.2269 98.2078 53.3425 98.5567 53.5736C98.9056 53.7977 99.1708 54.0918 99.3522 54.4559C99.5336 54.8201 99.6243 55.2122 99.6243 55.6324C99.6243 55.7024 99.6243 55.7759 99.6243 55.853C99.6243 55.93 99.6209 56.0175 99.6139 56.1156H95.5003C95.5213 56.5427 95.6155 56.8964 95.7829 57.1765C95.9574 57.4496 96.1737 57.6562 96.4319 57.7962C96.6971 57.9293 96.9727 57.9958 97.2588 57.9958C97.6845 57.9958 98.0124 57.9083 98.2427 57.7332C98.4799 57.5511 98.6544 57.306 98.766 56.9979H99.4778C99.3661 57.4671 99.1254 57.8663 98.7556 58.1954C98.3927 58.5245 97.8938 58.6891 97.2588 58.6891ZM97.2483 53.8992C96.8087 53.8992 96.4214 54.0357 96.0865 54.3089C95.7585 54.582 95.5666 54.9601 95.5108 55.4433H98.9126C98.8847 54.9531 98.7172 54.575 98.4102 54.3089C98.1101 54.0357 97.7228 53.8992 97.2483 53.8992Z" fill="#0B2234"/>
<path d="M91.0242 58.689C90.5776 58.689 90.1799 58.584 89.831 58.3739C89.4891 58.1568 89.2204 57.8452 89.025 57.439C88.8296 57.0259 88.7319 56.5287 88.7319 55.9475C88.7319 55.3662 88.8296 54.8725 89.025 54.4664C89.2204 54.0602 89.4891 53.7521 89.831 53.542C90.1799 53.3319 90.5776 53.2269 91.0242 53.2269C91.4499 53.2269 91.7988 53.3109 92.0709 53.479C92.3431 53.647 92.5454 53.8711 92.678 54.1512V51H93.4107V58.563H92.8455L92.7408 57.7332H92.678C92.5454 58.0273 92.3361 58.2619 92.05 58.4369C91.7709 58.605 91.4289 58.689 91.0242 58.689ZM91.0766 57.9958C91.5441 57.9958 91.9279 57.8277 92.2279 57.4916C92.528 57.1554 92.678 56.6442 92.678 55.958C92.678 55.2717 92.528 54.7605 92.2279 54.4244C91.9279 54.0882 91.5441 53.9202 91.0766 53.9202C90.609 53.9202 90.2252 54.0882 89.9252 54.4244C89.6251 54.7605 89.4751 55.2717 89.4751 55.958C89.4751 56.6442 89.6251 57.1554 89.9252 57.4916C90.2252 57.8277 90.609 57.9958 91.0766 57.9958Z" fill="#0B2234"/>
<path d="M76.9858 58.563V57.8697L80.1573 54.0462H77.0382V53.3529H80.9738V54.0462L77.8023 57.8697H81.0261V58.563H76.9858Z" fill="#0B2234"/>
<path d="M72.5205 58.6891C72.1088 58.6891 71.7669 58.6156 71.4947 58.4685C71.2296 58.3214 71.0307 58.1254 70.8981 57.8803C70.7725 57.6352 70.7097 57.3691 70.7097 57.082C70.7097 56.5357 70.9086 56.1296 71.3063 55.8635C71.7111 55.5904 72.2205 55.4538 72.8345 55.4538H74.3208V55.3593C74.3208 54.8691 74.2022 54.5014 73.965 54.2563C73.7347 54.0042 73.4032 53.8782 72.9706 53.8782C72.6077 53.8782 72.3077 53.9587 72.0704 54.1198C71.8402 54.2738 71.6936 54.5189 71.6308 54.8551H70.8563C70.8911 54.5049 71.0063 54.2108 71.2017 53.9727C71.404 53.7276 71.6587 53.5421 71.9658 53.416C72.2728 53.29 72.6077 53.2269 72.9706 53.2269C73.6963 53.2269 74.2232 53.4265 74.5511 53.8257C74.8861 54.2178 75.0535 54.729 75.0535 55.3593V58.563H74.4255L74.3522 57.7227H74.2894C74.1359 57.9818 73.9231 58.2094 73.651 58.4055C73.3788 58.5946 73.002 58.6891 72.5205 58.6891ZM72.6357 58.0168C72.9846 58.0168 73.2846 57.9293 73.5358 57.7542C73.787 57.5791 73.9789 57.3516 74.1115 57.0714C74.2511 56.7913 74.3208 56.4972 74.3208 56.1891V56.0841H72.8869C72.3705 56.0841 72.0041 56.1751 71.7878 56.3572C71.5785 56.5392 71.4738 56.7738 71.4738 57.0609C71.4738 57.3551 71.5715 57.5897 71.7669 57.7647C71.9623 57.9328 72.2519 58.0168 72.6357 58.0168Z" fill="#0B2234"/>
<path d="M64.8313 58.563V57.9327H66.506V54.1933C66.506 54.0532 66.4362 53.9832 66.2967 53.9832H65.0406V53.3529H66.506C66.9945 53.3529 67.2387 53.598 67.2387 54.0882V57.9327H68.9134V58.563H64.8313ZM66.3176 52.9118V52.1555L68.4738 51V51.8088L66.3176 52.9118Z" fill="#0B2234"/>
<path d="M60.6905 58.689C60.2439 58.689 59.8461 58.584 59.4972 58.3739C59.1553 58.1568 58.8867 57.8452 58.6913 57.439C58.4959 57.0259 58.3982 56.5287 58.3982 55.9475C58.3982 55.3662 58.4959 54.8725 58.6913 54.4664C58.8867 54.0602 59.1553 53.7521 59.4972 53.542C59.8461 53.3319 60.2439 53.2269 60.6905 53.2269C61.1161 53.2269 61.465 53.3109 61.7372 53.479C62.0093 53.647 62.2117 53.8711 62.3443 54.1512V51H63.077V58.563H62.5117L62.4071 57.7332H62.3443C62.2117 58.0273 62.0023 58.2619 61.7162 58.4369C61.4371 58.605 61.0952 58.689 60.6905 58.689ZM60.7428 57.9958C61.2103 57.9958 61.5941 57.8277 61.8942 57.4916C62.1942 57.1554 62.3443 56.6442 62.3443 55.958C62.3443 55.2717 62.1942 54.7605 61.8942 54.4244C61.5941 54.0882 61.2103 53.9202 60.7428 53.9202C60.2753 53.9202 59.8915 54.0882 59.5914 54.4244C59.2914 54.7605 59.1414 55.2717 59.1414 55.958C59.1414 56.6442 59.2914 57.1554 59.5914 57.4916C59.8915 57.8277 60.2753 57.9958 60.7428 57.9958Z" fill="#0B2234"/>
<path d="M48.7244 58.6891C48.2429 58.6891 47.8172 58.577 47.4474 58.353C47.0776 58.1219 46.7845 57.8032 46.5682 57.3971C46.3588 56.9839 46.2542 56.5007 46.2542 55.9475C46.2542 55.3943 46.3588 54.9146 46.5682 54.5084C46.7775 54.1023 47.0671 53.7872 47.4369 53.5631C47.8137 53.339 48.2499 53.2269 48.7453 53.2269C49.2477 53.2269 49.6734 53.3425 50.0223 53.5736C50.3712 53.7977 50.6363 54.0918 50.8178 54.4559C50.9992 54.8201 51.0899 55.2122 51.0899 55.6324C51.0899 55.7024 51.0899 55.7759 51.0899 55.853C51.0899 55.93 51.0864 56.0175 51.0795 56.1156H46.9659C46.9868 56.5427 47.081 56.8964 47.2485 57.1765C47.423 57.4496 47.6393 57.6562 47.8975 57.7962C48.1626 57.9293 48.4383 57.9958 48.7244 57.9958C49.15 57.9958 49.478 57.9083 49.7083 57.7332C49.9455 57.5511 50.12 57.306 50.2316 56.9979H50.9434C50.8317 57.4671 50.591 57.8663 50.2212 58.1954C49.8583 58.5245 49.3594 58.6891 48.7244 58.6891ZM48.7139 53.8992C48.2743 53.8992 47.887 54.0357 47.5521 54.3089C47.2241 54.582 47.0322 54.9601 46.9764 55.4433H50.3782C50.3502 54.9531 50.1828 54.575 49.8757 54.3089C49.5757 54.0357 49.1884 53.8992 48.7139 53.8992Z" fill="#0B2234"/>
<path d="M42.5216 57.0084C42.3192 57.0084 42.1308 56.9874 41.9563 56.9454C41.7889 56.9034 41.6353 56.8474 41.4958 56.7773L41.0876 57.292C41.0108 57.3971 40.9899 57.5021 41.0248 57.6072C41.0666 57.7122 41.1713 57.7647 41.3388 57.7647H42.71C43.338 57.7647 43.8474 57.8803 44.2381 58.1114C44.6289 58.3354 44.8243 58.7171 44.8243 59.2563C44.8243 59.5574 44.7441 59.841 44.5836 60.1071C44.43 60.3733 44.1858 60.5868 43.8509 60.7479C43.5159 60.916 43.0798 61 42.5425 61C41.8168 61 41.2376 60.8634 40.805 60.5903C40.3723 60.3172 40.156 59.9006 40.156 59.3403C40.156 59.1233 40.2083 58.9272 40.313 58.7521C40.4177 58.584 40.5503 58.4335 40.7108 58.3004C40.5014 58.1814 40.3688 57.9993 40.313 57.7542C40.2642 57.5021 40.3374 57.2535 40.5328 57.0084L41.0143 56.4097C40.6794 56.0595 40.5119 55.6289 40.5119 55.1177C40.5119 54.7815 40.5886 54.4699 40.7422 54.1828C40.9027 53.8957 41.1329 53.6646 41.433 53.4895C41.733 53.3145 42.0959 53.2269 42.5216 53.2269C42.8007 53.2269 43.0589 53.2689 43.2961 53.353H45.2325V53.9622L44.2067 53.9937V54.0568C44.4161 54.3649 44.5208 54.7185 44.5208 55.1177C44.5208 55.4468 44.4405 55.7584 44.28 56.0525C44.1265 56.3397 43.8997 56.5708 43.5997 56.7458C43.3066 56.9209 42.9472 57.0084 42.5216 57.0084ZM42.5216 56.3362C42.8914 56.3362 43.1914 56.2311 43.4217 56.021C43.659 55.8039 43.7776 55.5028 43.7776 55.1177C43.7776 54.7255 43.659 54.4244 43.4217 54.2143C43.1914 54.0042 42.8914 53.8992 42.5216 53.8992C42.1587 53.8992 41.8552 54.0042 41.6109 54.2143C41.3737 54.4244 41.255 54.7255 41.255 55.1177C41.255 55.5028 41.3737 55.8039 41.6109 56.021C41.8552 56.2311 42.1587 56.3362 42.5216 56.3362ZM40.9096 59.3403C40.9096 59.6625 41.0597 59.9076 41.3597 60.0756C41.6598 60.2437 42.054 60.3277 42.5425 60.3277C42.9821 60.3277 43.345 60.2297 43.6311 60.0336C43.9241 59.8445 44.0707 59.5959 44.0707 59.2878C44.0707 59.1268 44.0253 58.9797 43.9346 58.8467C43.8509 58.7206 43.7008 58.6191 43.4845 58.542C43.2752 58.458 42.9786 58.416 42.5948 58.416H41.4225C41.0806 58.6471 40.9096 58.9552 40.9096 59.3403Z" fill="#0B2234"/>
<path d="M34.3823 58.563V53.353H34.9789L35.0731 54.1408H35.115C35.2546 53.8957 35.4744 53.6821 35.7744 53.5C36.0815 53.318 36.4373 53.2269 36.8421 53.2269C37.4771 53.2269 37.9516 53.416 38.2656 53.7942C38.5796 54.1653 38.7366 54.694 38.7366 55.3803V58.563H38.0039V55.4643C38.0039 54.9811 37.8958 54.603 37.6794 54.3299C37.4631 54.0568 37.1317 53.9202 36.6851 53.9202C36.2524 53.9202 35.8826 54.0708 35.5756 54.3719C35.2685 54.666 35.115 55.0932 35.115 55.6534V58.563H34.3823Z" fill="#0B2234"/>
<path d="M30.053 58.6891C29.6413 58.6891 29.2994 58.6156 29.0272 58.4685C28.762 58.3214 28.5632 58.1254 28.4306 57.8803C28.305 57.6352 28.2422 57.3691 28.2422 57.082C28.2422 56.5357 28.4411 56.1296 28.8388 55.8635C29.2435 55.5904 29.7529 55.4538 30.367 55.4538H31.8533V55.3593C31.8533 54.8691 31.7347 54.5014 31.4974 54.2563C31.2672 54.0042 30.9357 53.8782 30.5031 53.8782C30.1402 53.8782 29.8402 53.9587 29.6029 54.1198C29.3726 54.2738 29.2261 54.5189 29.1633 54.8551H28.3887C28.4236 54.5049 28.5388 54.2108 28.7341 53.9727C28.9365 53.7276 29.1912 53.5421 29.4982 53.416C29.8053 53.29 30.1402 53.2269 30.5031 53.2269C31.2288 53.2269 31.7556 53.4265 32.0836 53.8257C32.4185 54.2178 32.586 54.729 32.586 55.3593V58.563H31.958L31.8847 57.7227H31.8219C31.6684 57.9818 31.4556 58.2094 31.1834 58.4055C30.9113 58.5946 30.5345 58.6891 30.053 58.6891ZM30.1681 58.0168C30.517 58.0168 30.8171 57.9293 31.0683 57.7542C31.3195 57.5791 31.5114 57.3516 31.644 57.0714C31.7835 56.7913 31.8533 56.4972 31.8533 56.1891V56.0841H30.4193C29.903 56.0841 29.5366 56.1751 29.3203 56.3572C29.111 56.5392 29.0063 56.7738 29.0063 57.0609C29.0063 57.3551 29.104 57.5897 29.2994 57.7647C29.4947 57.9328 29.7843 58.0168 30.1681 58.0168Z" fill="#0B2234"/>
<path d="M16.7891 60.8739L18.0975 58.0062H17.8044L15.7214 53.3529H16.5169L18.3173 57.5336L20.2327 53.3529H20.9864L17.5532 60.8739H16.7891Z" fill="#0B2234"/>
<path d="M12.3865 58.689C11.9818 58.689 11.6363 58.605 11.3502 58.4369C11.0711 58.2619 10.8653 58.0308 10.7327 57.7437H10.6699L10.5652 58.563H10V51H10.7327V54.1512C10.8723 53.9061 11.0851 53.6926 11.3712 53.5105C11.6573 53.3214 11.9957 53.2269 12.3865 53.2269C12.8401 53.2269 13.2378 53.3319 13.5797 53.542C13.9216 53.7521 14.1903 54.0602 14.3857 54.4664C14.5811 54.8725 14.6788 55.3662 14.6788 55.9475C14.6788 56.5287 14.5811 57.0259 14.3857 57.439C14.1903 57.8452 13.9182 58.1568 13.5693 58.3739C13.2273 58.584 12.8331 58.689 12.3865 58.689ZM12.3341 57.9958C12.8017 57.9958 13.1855 57.8277 13.4855 57.4916C13.7856 57.1554 13.9356 56.6442 13.9356 55.958C13.9356 55.2717 13.7856 54.7605 13.4855 54.4244C13.1855 54.0882 12.8017 53.9202 12.3341 53.9202C11.8666 53.9202 11.4828 54.0882 11.1828 54.4244C10.8827 54.7605 10.7327 55.2717 10.7327 55.958C10.7327 56.6442 10.8827 57.1554 11.1828 57.4916C11.4828 57.8277 11.8666 57.9958 12.3341 57.9958Z" fill="#0B2234"/>
</svg>
