<svg width="160" height="28" viewBox="0 0 160 28" fill="none" xmlns="http://www.w3.org/2000/svg">
<path d="M27.0379 14.0001C27.0379 21.3178 21.0811 27.2463 13.7406 27.2463C6.40003 27.2463 0.437866 21.3124 0.437866 14.0001C0.437866 6.68779 6.38922 0.748551 13.7352 0.748551C21.0811 0.748551 27.0325 6.68241 27.0325 13.9947" fill="white"/>
<path d="M61.8325 27.2463H47.6811C47.7514 24.8878 48.6703 22.9924 50.5352 21.587C52.8703 19.8263 56.0325 19.6863 58.4919 21.1832C60.6595 22.5078 62.1784 25.2378 61.8325 27.2463Z" fill="white"/>
<path d="M27.1514 0.737793H42.0703C41.9946 3.22549 41.0271 5.22318 39.0595 6.70933C36.5946 8.56702 33.2649 8.71779 30.6703 7.13472C28.3838 5.7401 26.7838 2.85933 27.146 0.743178" fill="white"/>
<path d="M60.3676 0.737793H43.6973V26.4547C43.6973 27.1763 44.6433 27.4455 45.0271 26.837L60.3676 0.737793Z" fill="white"/>
<path d="M42.0757 7.87779V27.2355H26.6541L40.773 7.46318C41.1784 6.89241 42.0811 7.17779 42.0811 7.87779H42.0757Z" fill="white"/>
<path d="M79.081 9.28318C78.2054 11.087 76.654 12.5732 73.7892 12.5732C70.6 12.5732 67.8324 9.99395 67.8324 6.80087C67.8324 3.6078 70.7297 1.02856 73.9351 1.02856C75.681 1.02856 76.7351 1.48087 78.1081 2.3801L77.6216 4.21626H77.5081C76.3243 2.3478 74.4 0.958564 72.281 1.41087C69.5135 2.00856 68.5081 5.26626 69.3838 8.1201C70.2594 10.9578 72.5892 12.4386 75.4378 12.0078C76.8919 11.7978 78.1405 10.8447 78.9675 9.23472L79.081 9.28318Z" fill="white"/>
<path d="M89.1297 12.3578V12.4709H86.6378V12.3578C87.0594 11.9378 86.7189 11.3563 86.0865 10.247L84.3567 7.23164C84.1135 7.24779 83.8702 7.26395 83.627 7.26395H82.1243V11.4047C82.1243 11.9701 82.2378 12.2124 82.481 12.3578V12.4709H80.4919V12.3578C80.7351 12.2124 80.8486 11.9701 80.8486 11.4047V2.26703C80.8486 1.68549 80.7351 1.45934 80.4919 1.31395V1.18472H83.6324C86.1405 1.18472 88.4054 2.12165 88.4054 4.23242C88.4054 5.74549 87.1892 6.66626 85.5729 7.03779L87.027 9.58472C87.9838 11.2432 88.4973 11.7924 89.1297 12.3578ZM87.1243 4.23242C87.1243 2.97242 86.7027 1.31395 83.627 1.31395H82.1243V7.13472H83.627C86.6865 7.13472 87.1243 5.47626 87.1243 4.23242Z" fill="white"/>
<path d="M99.4594 12.4709H96.9675V12.3578C97.3892 11.9378 97.2594 11.3724 96.8054 10.1986L96.0108 8.15241H91.9946L91.5567 9.3801C91.0378 10.8447 90.9567 11.6363 91.6378 12.3632V12.4763H89.7297V12.3632C90.427 11.6363 90.8973 10.8986 91.427 9.3801L93.854 2.57933L93.3189 1.1901H94.6L97.7567 9.3801C98.4216 10.9901 98.8432 11.6363 99.454 12.3632V12.4763L99.4594 12.4709ZM95.9621 8.02318L93.9243 2.75164L92.0486 8.02318H95.9675H95.9621Z" fill="white"/>
<path d="M110.659 1.18472V1.31395C110.124 1.58857 109.638 2.42857 109.638 3.1178V12.4709H109.395L101.692 2.65472V10.5378C101.692 11.2324 102.178 12.0832 102.73 12.3578V12.4709H100.546V12.3578C101.097 12.0832 101.584 11.227 101.584 10.5378V2.50934L100.546 1.18472H102.178L109.508 10.4409V3.12319C109.508 2.42857 109.022 1.59395 108.486 1.31934V1.19011H110.654L110.659 1.18472Z" fill="white"/>
<path d="M121.454 9.43933C121.454 11.7116 118.768 12.4709 116.681 12.4709H112.232V12.3578C112.476 12.2124 112.589 11.9701 112.589 11.4047V2.26703C112.589 1.70165 112.476 1.45934 112.232 1.31395V1.18472H115.989C118.076 1.18472 120.762 1.60472 120.762 3.87703C120.762 5.6001 119.178 6.24626 117.492 6.45626C119.4 6.63395 121.459 7.47395 121.459 9.43933H121.454ZM113.865 6.41318H115.984C118.638 6.41318 119.481 5.29857 119.481 3.88242C119.481 2.46626 118.638 1.31934 115.984 1.31934H113.865V6.41318ZM120.195 9.43933C120.195 8.02318 119.335 6.53703 116.681 6.53703H113.865V12.3578H116.681C119.335 12.3578 120.195 10.877 120.195 9.43933Z" fill="white"/>
<path d="M129.789 10.5216L129.432 12.4709H122.859V12.3578C123.103 12.2124 123.216 11.9701 123.216 11.4047V2.26703C123.216 1.70165 123.103 1.45934 122.859 1.31395V1.18472H128.913L129.254 2.97242L129.173 3.03703C128.427 2.19703 127.427 1.31395 125.627 1.31395H124.492V6.06856L128.573 5.71318V6.53703L124.492 6.1978V12.3578H125.805C127.584 12.3578 128.93 11.437 129.692 10.457L129.789 10.5216Z" fill="white"/>
<path d="M139.843 12.3578V12.4709H137.351V12.3578C137.773 11.9378 137.432 11.3563 136.8 10.247L135.07 7.23164C134.827 7.24779 134.584 7.26395 134.341 7.26395H132.838V11.4047C132.838 11.9701 132.951 12.2124 133.195 12.3578V12.4709H131.205V12.3578C131.449 12.2124 131.562 11.9701 131.562 11.4047V2.26703C131.562 1.68549 131.449 1.45934 131.205 1.31395V1.18472H134.346C136.854 1.18472 139.119 2.12165 139.119 4.23242C139.119 5.74549 137.903 6.66626 136.286 7.03779L137.741 9.58472C138.697 11.2432 139.211 11.7924 139.843 12.3578ZM137.838 4.23242C137.838 2.97242 137.416 1.31395 134.341 1.31395H132.838V7.13472H134.341C137.4 7.13472 137.838 5.47626 137.838 4.23242Z" fill="white"/>
<path d="M149.573 12.3578V12.4709H147.081V12.3578C147.503 11.9378 147.162 11.3563 146.53 10.247L144.8 7.23164C144.557 7.24779 144.313 7.26395 144.07 7.26395H142.568V11.4047C142.568 11.9701 142.681 12.2124 142.924 12.3578V12.4709H140.935V12.3578C141.178 12.2124 141.292 11.9701 141.292 11.4047V2.26703C141.292 1.68549 141.178 1.45934 140.935 1.31395V1.18472H144.076C146.584 1.18472 148.849 2.12165 148.849 4.23242C148.849 5.74549 147.632 6.66626 146.016 7.03779L147.47 9.58472C148.427 11.2432 148.941 11.7924 149.573 12.3578ZM147.562 4.23242C147.562 2.97242 147.141 1.31395 144.065 1.31395H142.562V7.13472H144.065C147.124 7.13472 147.562 5.47626 147.562 4.23242Z" fill="white"/>
<path d="M159.913 1.18472V1.31395C159.168 1.94395 158.811 2.28319 157.989 4.02242L155.919 8.45395V11.4047C155.919 11.9701 156.032 12.2124 156.292 12.3578V12.4709H154.286V12.3578C154.53 12.2124 154.643 11.9701 154.643 11.4047V8.63164C154.643 8.63164 151.924 3.55395 151.584 2.89165C151.227 2.24549 150.676 1.72857 150.178 1.31395V1.18472H153.011V1.31395C152.589 1.73395 152.589 2.41242 153.205 3.55395L155.795 8.40549L157.995 3.7478C158.676 2.23472 158.595 1.79857 158.011 1.31395V1.18472H159.919H159.913Z" fill="white"/>
<path d="M75.0973 25.297L74.7405 27.2463H67.9892V27.1332C68.2486 26.9878 68.3621 26.7455 68.3621 26.1801V17.037C68.3621 16.4555 68.2486 16.2293 67.9892 16.0839V15.9547H69.9946V16.0839C69.7513 16.2293 69.6378 16.4555 69.6378 17.037V27.1278H71.1081C72.9027 27.1278 74.2324 26.207 74.9946 25.227L75.0919 25.2916L75.0973 25.297Z" fill="white"/>
<path d="M85.5892 27.2463H83.0973V27.1332C83.5189 26.7132 83.3892 26.1478 82.9351 24.974L82.1405 22.9278H78.1243L77.6865 24.1555C77.1675 25.6201 77.0865 26.4116 77.7675 27.1386V27.2516H75.8594V27.1386C76.5567 26.4116 77.027 25.6739 77.5567 24.1555L79.9838 17.3547L79.4486 15.9709H80.7297L83.8865 24.1609C84.5513 25.7709 84.9729 26.417 85.5838 27.1439V27.257L85.5892 27.2463ZM82.0919 22.7986L80.054 17.527L78.1783 22.7986H82.0973H82.0919Z" fill="white"/>
<path d="M95.8973 24.2147C95.8973 26.487 93.2108 27.2463 91.1243 27.2463H86.6757V27.1332C86.9189 26.9878 87.0324 26.7455 87.0324 26.1801V17.037C87.0324 16.4716 86.9189 16.2293 86.6757 16.0839V15.9547H90.4324C92.5189 15.9547 95.2054 16.3747 95.2054 18.647C95.2054 20.3701 93.6216 21.0163 91.9351 21.2263C93.8432 21.4039 95.9027 22.2439 95.9027 24.2093L95.8973 24.2147ZM88.3081 21.1832H90.427C93.0811 21.1832 93.9243 20.0686 93.9243 18.6524C93.9243 17.2363 93.0811 16.0893 90.427 16.0893H88.3081V21.1832ZM94.6324 24.2147C94.6324 22.7932 93.7729 21.3124 91.1189 21.3124H88.3027V27.1332H91.1189C93.7729 27.1332 94.6324 25.6524 94.6324 24.2147Z" fill="white"/>
</svg>
