<svg width="160" height="14" viewBox="0 0 160 14" fill="none" xmlns="http://www.w3.org/2000/svg">
<g clip-path="url(#clip0_1043_388)">
<path d="M10.3273 0.492617C10.5421 0.703918 10.6587 1.00191 10.6469 1.30802C10.66 1.61279 10.5434 1.90807 10.3273 2.1153C10.0993 2.32119 9.80191 2.42955 9.49929 2.416H6.54637V12.6072C6.55293 12.9296 6.42192 13.2384 6.18872 13.4524C5.94767 13.68 5.63063 13.8019 5.30442 13.7924C4.98345 13.8046 4.67166 13.6814 4.43846 13.4524C4.21575 13.233 4.0926 12.9255 4.09915 12.6072V2.41871H1.14886C0.843613 2.43226 0.546226 2.31983 0.320893 2.10718C0.104731 1.89452 -0.0105562 1.59789 -7.5572e-05 1.29042C-0.00793603 0.988363 0.112591 0.695792 0.330064 0.492617C0.554087 0.284024 0.846234 0.171601 1.14755 0.181083H9.49929C9.80453 0.168892 10.1019 0.279961 10.3273 0.492617Z" fill="white"/>
<path d="M14.6156 13.4549C14.3929 13.6757 14.0955 13.7976 13.7877 13.7949C13.4759 13.8057 13.1719 13.6825 12.9505 13.4549C12.7331 13.2314 12.6138 12.9253 12.6217 12.6097V1.37009C12.6138 1.05179 12.737 0.744315 12.9597 0.524886C13.1916 0.295976 13.5047 0.172717 13.8257 0.184908C14.1283 0.17949 14.4204 0.302749 14.634 0.524886C14.8567 0.744315 14.9798 1.05179 14.9733 1.37009V12.6097C14.9798 12.9321 14.8488 13.2409 14.6156 13.4549Z" fill="white"/>
<path d="M26.0603 11.8997C26.2699 12.1042 26.3891 12.3886 26.3891 12.6866C26.3983 12.99 26.2778 13.2812 26.0603 13.4844C25.8363 13.693 25.5441 13.8054 25.2428 13.796H18.9414C18.6348 13.8041 18.3387 13.6808 18.1239 13.456C17.9064 13.2325 17.7872 12.9264 17.795 12.6108V1.3698C17.7872 1.05285 17.9064 0.746735 18.1239 0.524598C18.34 0.299751 18.6361 0.176492 18.9414 0.184619H25.2428C25.5455 0.175137 25.8402 0.291624 26.0603 0.505635C26.2791 0.719645 26.3983 1.02034 26.3891 1.33188C26.3996 1.62987 26.283 1.91837 26.0695 2.12019C25.8415 2.32608 25.5441 2.43444 25.2415 2.42089H20.144V5.72722H24.3952C24.6978 5.71774 24.9926 5.83423 25.2127 6.04824C25.4315 6.26225 25.552 6.56294 25.5415 6.87448C25.552 7.17247 25.4354 7.46098 25.2219 7.66144C24.9939 7.86868 24.6978 7.97569 24.3939 7.96214H20.1427V11.5597H25.2402C25.5468 11.5516 25.8428 11.6748 26.059 11.8997H26.0603Z" fill="white"/>
<path d="M39.2735 0.493018C39.4635 0.704319 39.5643 0.983346 39.5552 1.2705V12.6076C39.563 12.9246 39.4438 13.2307 39.2263 13.4528C39.0102 13.6777 38.7141 13.8009 38.4089 13.7928C38.2333 13.7928 38.0578 13.763 37.8914 13.7048C37.7473 13.6641 37.6202 13.5788 37.5246 13.461L30.6191 4.39939V12.7038C30.627 12.9937 30.5222 13.2741 30.3283 13.4813C30.1279 13.6912 29.8514 13.8037 29.5672 13.7928C29.2907 13.8037 29.0235 13.6899 28.8335 13.4813C28.6435 13.27 28.5427 12.991 28.5518 12.7038V1.36938C28.544 1.05243 28.6632 0.746309 28.8807 0.524171C29.0968 0.299325 29.3929 0.176066 29.6982 0.184193C29.8894 0.184193 30.0781 0.224827 30.2536 0.300679C30.4148 0.361632 30.555 0.469991 30.6584 0.612214L37.5049 9.63587V1.27185C37.497 0.981991 37.6018 0.70161 37.7957 0.494372C37.9896 0.287134 38.2595 0.173357 38.5386 0.182838C38.8163 0.172002 39.0835 0.28578 39.2735 0.494372V0.493018Z" fill="white"/>
<path d="M51.0568 1.08633C51.911 1.69991 52.5805 2.54918 52.9905 3.53661C53.4477 4.62563 53.677 5.80133 53.6613 6.98922C53.677 8.17576 53.4477 9.35282 52.9905 10.4405C52.5791 11.4279 51.9071 12.2758 51.0529 12.8881C50.1555 13.5071 49.0943 13.8227 48.0148 13.7929H43.52C43.2134 13.801 42.9173 13.6777 42.7025 13.4529C42.485 13.2294 42.3658 12.9233 42.3737 12.6077V1.36942C42.3658 1.05246 42.485 0.746348 42.7025 0.524211C42.9186 0.299364 43.2147 0.176105 43.52 0.184232H48.0148C49.0943 0.153079 50.1568 0.468676 51.0555 1.08768L51.0568 1.08633ZM50.3704 10.2658C50.9651 9.28645 51.2599 8.14461 51.2154 6.98922C51.2599 5.83248 50.9625 4.68929 50.3599 3.71134C49.7939 2.85259 48.8336 2.36226 47.8301 2.41915H44.7266V11.5579H47.8301C48.8376 11.6202 49.8031 11.1286 50.3704 10.2644V10.2658Z" fill="white"/>
<path d="M66.1507 12.7462C66.1612 13.0564 66.0459 13.3558 65.831 13.5725C65.6385 13.777 65.3738 13.8935 65.0974 13.8935C64.876 13.8949 64.6612 13.8204 64.4856 13.6795C64.297 13.5278 64.1515 13.326 64.0624 13.0957L63.0851 10.7429H57.4832L56.5059 13.1147C56.4299 13.3436 56.2898 13.544 56.1011 13.689C55.9308 13.8217 55.7225 13.8935 55.509 13.8935C55.2352 13.9138 54.9666 13.8149 54.7661 13.6212C54.5893 13.4194 54.4989 13.1539 54.512 12.8817C54.5133 12.7557 54.533 12.6311 54.5683 12.5119L59.2532 0.886266C59.3422 0.642457 59.4994 0.43251 59.7051 0.283515C59.903 0.142647 60.1427 0.0803406 60.3824 0.108785C60.6078 0.108785 60.8279 0.179219 61.0126 0.313314C61.2091 0.452827 61.3584 0.654647 61.4357 0.887621L66.0629 12.283C66.1193 12.4306 66.1507 12.5878 66.152 12.7476L66.1507 12.7462ZM58.4042 8.50667H62.1655L60.2658 3.95556L58.4042 8.50667Z" fill="white"/>
<path d="M78.3516 1.84382C78.3451 2.13503 78.2455 2.41542 78.07 2.64162C77.8931 2.90033 77.6049 3.05338 77.2983 3.04932C77.0743 3.04661 76.8542 2.98566 76.659 2.87459C76.0354 2.57389 75.3542 2.42083 74.6664 2.42761C73.8659 2.40729 73.0746 2.6064 72.3724 3.00191C71.7292 3.37575 71.2052 3.93652 70.8672 4.61647C70.5069 5.35332 70.3261 6.17008 70.3405 6.99633C70.2501 8.27903 70.6838 9.54278 71.5353 10.4814C72.3842 11.2928 73.5122 11.7208 74.6664 11.668C75.3555 11.6856 76.0393 11.5312 76.659 11.221C76.8477 11.1262 77.052 11.0734 77.2616 11.0652C77.5879 11.0652 77.8944 11.2237 78.0883 11.4933C78.2691 11.7181 78.3687 11.9998 78.37 12.2911C78.3726 12.4902 78.3202 12.6852 78.2193 12.8545C78.1158 13.0265 77.9652 13.162 77.787 13.2433C76.8188 13.7471 75.7485 14.0072 74.6651 14.0018C73.4899 14.0153 72.3305 13.7377 71.2798 13.1945C70.2554 12.6608 69.3999 11.8346 68.8156 10.8147C68.1737 9.65656 67.8553 8.33728 67.8946 7.0031C67.875 5.75696 68.1776 4.52979 68.7697 3.44483C69.3383 2.40864 70.1754 1.55666 71.1855 0.983713C72.2519 0.38367 73.4506 0.080263 74.6651 0.0992259C75.7433 0.0897444 76.8084 0.349808 77.7686 0.857744C78.1394 1.03518 78.3687 1.42528 78.3516 1.84653V1.84382Z" fill="white"/>
<path d="M91.6304 10.5273C91.1025 11.5703 90.3138 12.4467 89.3457 13.0643C88.3592 13.6914 87.2194 14.0152 86.0613 13.9989C84.9032 14.0152 83.7647 13.6914 82.7796 13.0657C81.8127 12.4494 81.0254 11.5717 80.504 10.5287C79.9537 9.43968 79.6734 8.22741 79.6865 6.99888C79.6734 5.77035 79.955 4.55808 80.504 3.46906C81.0267 2.4261 81.8153 1.54974 82.7822 0.933442C83.7687 0.30631 84.9071 -0.0174148 86.0639 0.000193651C87.222 -0.0160603 88.3592 0.307664 89.3457 0.933442C90.3138 1.55245 91.1038 2.42881 91.6304 3.47042C92.1859 4.55672 92.4702 5.77035 92.4571 7.00023C92.4689 8.22876 92.1846 9.44104 91.6304 10.5273ZM89.5055 4.63528C89.1885 3.95397 88.7011 3.37425 88.0945 2.953C87.4932 2.53852 86.7858 2.3218 86.0626 2.33128C85.3395 2.31909 84.6294 2.5331 84.0241 2.94352C83.4202 3.36206 82.9394 3.94449 82.6328 4.6258C82.2948 5.36671 82.1245 6.17941 82.135 6.99888C82.1245 7.81835 82.2948 8.62969 82.6328 9.3706C82.9381 10.0519 83.4189 10.6343 84.0215 11.0529C84.6268 11.4633 85.3368 11.6773 86.06 11.6651C86.7818 11.6746 87.4906 11.4579 88.0919 11.0434C88.6985 10.6235 89.1858 10.0424 89.5029 9.36112C89.8487 8.62563 90.0217 7.81564 90.0112 6.99888C90.023 6.18076 89.85 5.37213 89.5055 4.63664V4.63528Z" fill="white"/>
<path d="M101.882 0.785652C102.467 1.18929 102.945 1.73786 103.275 2.3799C103.626 3.05173 103.808 3.80483 103.801 4.56741C103.805 5.32728 103.625 6.07496 103.275 6.74273C102.947 7.38882 102.469 7.94146 101.882 8.34781C101.345 8.72978 100.71 8.93702 100.059 8.94108H96.786V12.6185C96.7978 12.9341 96.6904 13.2403 96.4847 13.4732C96.2803 13.6954 95.9921 13.8159 95.6961 13.8037C95.4026 13.8132 95.1209 13.6886 94.9244 13.4637C94.7214 13.2321 94.6139 12.9301 94.6231 12.6185V1.37892C94.6152 1.06197 94.7345 0.755854 94.9519 0.533716C95.1681 0.30887 95.4642 0.18561 95.7694 0.193737H100.057C100.708 0.197801 101.345 0.403684 101.881 0.785652H101.882ZM100.763 6.41494C101.007 6.19145 101.2 5.91649 101.328 5.60766C101.471 5.28123 101.546 4.92635 101.544 4.56741C101.544 4.20847 101.471 3.85359 101.328 3.52715C101.201 3.22104 101.008 2.94743 100.763 2.72936C100.571 2.54514 100.321 2.43814 100.059 2.42866H96.7847V6.72648H100.057C100.321 6.71564 100.572 6.60457 100.762 6.4163L100.763 6.41494Z" fill="white"/>
<path d="M114.23 11.9089C114.44 12.1135 114.559 12.3979 114.559 12.6959C114.568 12.9993 114.447 13.2905 114.23 13.4937C114.006 13.7023 113.714 13.8147 113.413 13.8052H107.111C106.804 13.8134 106.508 13.6901 106.294 13.4653C106.076 13.2418 105.957 12.9356 105.965 12.6201V1.37908C105.957 1.06213 106.076 0.756012 106.294 0.533875C106.51 0.309028 106.806 0.185769 107.111 0.193896H113.413C113.715 0.184415 114.01 0.300901 114.23 0.514912C114.449 0.728922 114.568 1.02962 114.559 1.34116C114.569 1.63914 114.453 1.92765 114.239 2.12947C114.011 2.33536 113.715 2.44372 113.413 2.43017H108.315V5.7365H112.566C112.869 5.72702 113.164 5.8435 113.384 6.05751C113.602 6.27152 113.723 6.57222 113.713 6.88376C113.723 7.18175 113.606 7.47025 113.393 7.67072C113.165 7.87796 112.869 7.98496 112.566 7.97142H108.315V11.569H113.413C113.719 11.5608 114.015 11.6841 114.23 11.9089Z" fill="white"/>
<path d="M126.522 1.84282C126.515 2.13403 126.417 2.41442 126.24 2.64062C126.063 2.89933 125.775 3.05238 125.468 3.04832C125.244 3.04561 125.024 2.98466 124.829 2.87359C124.205 2.57289 123.524 2.41983 122.836 2.42661C122.036 2.40629 121.245 2.6054 120.541 3.00091C119.898 3.37475 119.374 3.93552 119.036 4.61547C118.676 5.35232 118.495 6.16908 118.509 6.99532C118.42 8.27668 118.852 9.53907 119.704 10.4764C120.553 11.2877 121.681 11.7157 122.835 11.6629C123.524 11.6805 124.208 11.5261 124.828 11.2159C125.016 11.1211 125.221 11.0683 125.43 11.0602C125.755 11.0602 126.062 11.2186 126.257 11.4882C126.438 11.713 126.537 11.9948 126.539 12.286C126.541 12.4851 126.489 12.6801 126.388 12.8495C126.284 13.0215 126.134 13.1569 125.956 13.2382C124.987 13.7421 123.917 14.0021 122.834 13.9967C121.66 14.0116 120.5 13.7353 119.45 13.1949C118.425 12.6612 117.57 11.8349 116.986 10.815C116.344 9.65691 116.025 8.33763 116.065 7.00345C116.045 5.75731 116.347 4.53014 116.94 3.44519C117.508 2.409 118.345 1.55702 119.357 0.985421C120.423 0.385379 121.622 0.081972 122.836 0.100935C123.915 0.0914534 124.98 0.351517 125.94 0.859453C126.309 1.03689 126.539 1.42563 126.522 1.84553V1.84282Z" fill="white"/>
<path d="M149.596 1.84322C149.589 2.13444 149.491 2.41482 149.314 2.64102C149.137 2.89973 148.849 3.05279 148.542 3.04872C148.318 3.04601 148.098 2.98506 147.903 2.87399C147.279 2.57329 146.598 2.42023 145.91 2.42701C145.11 2.40669 144.319 2.6058 143.615 3.00131C142.972 3.37516 142.448 3.93592 142.111 4.61587C141.751 5.35272 141.57 6.16948 141.584 6.99573C141.495 8.27708 141.929 9.53947 142.779 10.4768C143.628 11.2908 144.757 11.7202 145.914 11.6674C146.603 11.685 147.287 11.5319 147.907 11.2204C148.096 11.1256 148.3 11.0728 148.51 11.0646C148.834 11.0646 149.142 11.2231 149.338 11.4927C149.518 11.7175 149.618 11.9992 149.619 12.2905C149.622 12.4896 149.569 12.6846 149.469 12.8539C149.365 13.0259 149.214 13.1614 149.036 13.2427C148.068 13.7465 146.998 14.0066 145.914 14.0012C144.74 14.0147 143.58 13.7371 142.529 13.1939C141.505 12.6602 140.649 11.834 140.065 10.8141C139.422 9.65596 139.102 8.33532 139.141 6.99979C139.122 5.75365 139.424 4.52648 140.016 3.44153C140.585 2.40534 141.422 1.55336 142.433 0.981759C143.5 0.381717 144.699 0.0783098 145.913 0.0972728C146.991 0.0877913 148.056 0.347855 149.017 0.855791C149.386 1.03323 149.615 1.42333 149.598 1.84457L149.596 1.84322Z" fill="white"/>
<path d="M159.67 11.849C159.889 12.063 160.008 12.3637 159.999 12.6753C160.007 12.98 159.886 13.2753 159.67 13.4826C159.449 13.6966 159.155 13.8131 158.852 13.8036H152.737C152.43 13.8117 152.134 13.6884 151.92 13.4636C151.702 13.2401 151.583 12.934 151.591 12.6184V1.37742C151.583 1.05911 151.706 0.751639 151.93 0.532211C152.162 0.303301 152.475 0.180041 152.796 0.192232C153.099 0.186814 153.391 0.310073 153.604 0.532211C153.827 0.751639 153.95 1.05911 153.944 1.37742V11.528H158.852C159.156 11.5185 159.451 11.6337 159.673 11.849H159.67Z" fill="white"/>
<path d="M133.762 13.9082C135.774 13.4199 137.022 11.338 136.549 9.25805C136.077 7.1781 134.063 5.88776 132.052 6.37599C130.04 6.86422 128.792 8.94614 129.264 11.0261C129.736 13.106 131.75 14.3964 133.762 13.9082Z" fill="white"/>
</g>
<defs>
<clipPath id="clip0_1043_388">
<rect width="160" height="14" fill="white"/>
</clipPath>
</defs>
</svg>
