<svg width="160" height="40" viewBox="0 0 160 40" fill="none" xmlns="http://www.w3.org/2000/svg">
<path d="M69.492 22.3677C69.5477 22.1132 70.3734 23.1054 70.3734 22.8641C70.5383 22.3009 71.4329 16.6954 71.3919 15.8109C73.8009 21.1334 72.1766 31.6053 70.6621 40H75.7849C76.4868 23.3859 74.3101 18.4117 72.9752 14.523C75.9484 16.066 75.5769 16.4945 79.7613 17.5403C79.8858 17.6077 79.3202 15.877 79.4447 15.9444C79.6381 15.998 80.587 17.7948 80.7797 17.849C81.8538 18.1571 83.1894 18.3455 84.8277 18.6536C81.2764 12.9814 80.2016 13.0349 74.875 12.2965C72.8507 11.9884 80.8346 12.4174 83.8767 7.91207C82.9272 7.72366 82.0465 7.60393 81.2764 7.48297C81.1519 7.48297 79.954 8.58241 79.8155 8.58241C79.7613 8.58241 80.7108 7.41621 80.6427 7.41621C77.2277 7.10752 75.6312 7.91207 72.8507 10.3119C72.8507 8.09979 72.3414 5.56579 71.268 3.58055C71.1992 3.3934 70.6211 5.49772 70.4973 5.37738C69.9331 4.61317 72.3136 1.6633 67.4552 0C67.2618 4.50607 68.1564 6.06159 70.1807 10.1915C67.8413 8.89048 64.9773 8.40855 62.1282 8.76952C61.9348 8.76952 62.706 9.45372 62.5136 9.45372C61.9211 9.58793 61.7977 7.97883 57.2412 10.1915C63.6145 13.5043 61.7284 11.6123 63.5178 11.6123C63.5874 11.6123 62.1961 12.2965 62.2516 12.2965C64.482 12.7262 65.9408 12.793 68.9147 12.539C65.6242 13.5975 62.9536 15.998 61.3701 19.1501C61.3016 19.2698 62.5136 18.961 62.4438 19.0952C61.9762 20.0076 60.9032 18.6265 60.0352 23.1054C64.6601 20.826 65.4308 18.2913 68.2816 15.5015C65.3627 20.0214 65.6242 23.2926 67.8955 28.2945C71.4475 22.757 69.3689 23.2535 69.492 22.3677Z" fill="white"/>
<path d="M4.98768 36.4043H20.6897V40H0V36.7229L15.6096 11.8716H0.184696V8.27588H20.5973V11.553L4.98768 36.4043Z" fill="white"/>
<path d="M34.5287 11.6846V22.2745H46.2068V25.6833H34.5287V36.5913H47.5861V40H30.3447V8.27588H47.5861V11.6846H34.5287Z" fill="white"/>
<path d="M122.759 8.27588L110.686 40H105.866L93.7935 8.27588H98.2456L108.299 35.6306L118.352 8.27588H122.759Z" fill="white"/>
<path d="M153.103 32.9044H139.311L136.77 40H132.414L143.848 8.27588H148.612L160 40H155.645L153.103 32.9044ZM151.924 29.5168L146.207 13.403L140.49 29.5168H151.924Z" fill="white"/>
</svg>
